<svg xmlns="http://www.w3.org/2000/svg" viewBox="0 0 400 400" width="400" height="400" role="img" aria-label="Cafe Azzurro one-color mark">
  <!-- single ink (#003C82) line-art: for embroidery / stamp / 1-color print -->
  <g fill="#003C82" stroke="#003C82" stroke-linejoin="round">
    <circle cx="200" cy="200" r="158" fill="none" stroke-width="6"/>
    <!-- steam -->
    <g fill="none" stroke-linecap="round" stroke-width="5">
      <path d="M190,120 C184,108 196,102 190,90"/>
      <path d="M210,122 C204,110 216,104 210,92"/>
    </g>
    <!-- handle -->
    <path d="M156,176 L118,190 L118,222 L156,236 Z" fill="none" stroke-width="6"/>
    <!-- spout -->
    <path d="M238,160 L276,154 L246,180 Z" fill="none" stroke-width="4"/>
    <!-- top chamber -->
    <path d="M158,154 L242,154 L232,206 L168,206 Z" fill="none" stroke-width="5"/>
    <!-- lid -->
    <path d="M178,154 L222,154 L216,138 L184,138 Z" stroke-width="2"/>
    <!-- knob -->
    <circle cx="200" cy="128" r="9"/>
    <!-- waist -->
    <rect x="166" y="205" width="68" height="8" stroke="none"/>
    <!-- bottom chamber -->
    <path d="M166,214 L234,214 L260,294 L140,294 Z" fill="none" stroke-width="5"/>
    <!-- base -->
    <rect x="146" y="295" width="108" height="10" stroke="none"/>
  </g>
</svg>
