<svg xmlns="http://www.w3.org/2000/svg" viewBox="0 0 1600 900" width="1600" height="900" role="img" aria-label="Cafe Azzurro - St. Pete lifeguard tower silhouette at the Gulf, heavy retro print">
  <title>Cafe Azzurro - Lifeguard Tower Silhouette</title>
  <defs>
    <!-- inky / hand-printed rough edges -->
    <filter id="rough" x="-15%" y="-15%" width="130%" height="130%">
      <feTurbulence type="fractalNoise" baseFrequency="0.013" numOctaves="2" seed="7" result="n"/>
      <feDisplacementMap in="SourceGraphic" in2="n" scale="5" xChannelSelector="R" yChannelSelector="G"/>
    </filter>
    <!-- paper grain -->
    <filter id="grain">
      <feTurbulence type="fractalNoise" baseFrequency="0.8" numOctaves="2" stitchTiles="stitch" result="g"/>
      <feColorMatrix in="g" type="matrix" values="0 0 0 0 0  0 0 0 0 0  0 0 0 0 0  0 0 0 0.4 0"/>
    </filter>
    <!-- navy halftone screen (the 'shaded' ink) -->
    <pattern id="ht" width="7" height="7" patternUnits="userSpaceOnUse" patternTransform="rotate(15)">
      <circle cx="2" cy="2" r="1.5" fill="#003C82" fill-opacity="0.55"/>
    </pattern>
    <!-- warm gold halftone wash -->
    <pattern id="htg" width="9" height="9" patternUnits="userSpaceOnUse" patternTransform="rotate(-10)">
      <circle cx="2.2" cy="2.2" r="1.3" fill="#C68A3E" fill-opacity="0.4"/>
    </pattern>
    <clipPath id="clip"><rect x="0" y="0" width="1600" height="900"/></clipPath>
    <!-- steam dissipates (fades) as it rises -->
    <linearGradient id="steamfade" gradientUnits="userSpaceOnUse" x1="200" y1="108" x2="200" y2="42">
      <stop offset="0" stop-color="#003C82" stop-opacity="0.7"/>
      <stop offset="0.5" stop-color="#003C82" stop-opacity="0.34"/>
      <stop offset="1" stop-color="#003C82" stop-opacity="0"/>
    </linearGradient>
  </defs>

  <!-- paper / sky base -->
  <rect x="0" y="0" width="1600" height="900" fill="#F3E9D8"/>

  <!-- ===== inked artwork (rough-edged) ===== -->
  <g filter="url(#rough)">

    <!-- ============ SKY ============ -->
    <!-- azzurro upper-left hint -->
    <path d="M0,0 L640,0 L520,120 L320,180 L0,220 Z" fill="#12A0D7" opacity="0.55"/>
    <!-- gold halftone wash across mid-upper sky -->
    <rect x="0" y="180" width="1600" height="300" fill="url(#htg)"/>
    <!-- secondary azzurro halftone band high -->
    <rect x="0" y="60" width="1600" height="160" fill="url(#ht)" opacity="0.35"/>

    <!-- ============ SUN (behind/beside tower) ============ -->
    <!-- gold halftone glow -->
    <circle cx="950" cy="520" r="220" fill="url(#htg)"/>
    <circle cx="950" cy="520" r="180" fill="url(#htg)"/>
    <!-- the disc itself, gold, slight azzurro misregister -->
    <g transform="translate(1.5,1.5)">
      <circle cx="950" cy="520" r="130" fill="#C68A3E"/>
    </g>
    <circle cx="950" cy="520" r="130" fill="none" stroke="#003C82" stroke-width="3"/>

    <!-- ============ GULF (water below horizon y=560) ============ -->
    <g transform="translate(1.5,1.5)">
      <rect x="0" y="560" width="1600" height="160" fill="#12A0D7"/>
    </g>
    <!-- navy keyline horizon -->
    <line x1="0" y1="560" x2="1600" y2="560" stroke="#003C82" stroke-width="4"/>
    <!-- navy halftone ripples generally -->
    <rect x="0" y="560" width="1600" height="160" fill="url(#ht)" opacity="0.45"/>
    <!-- sun reflection column on water (gold halftone) -->
    <path d="M880,560 L1020,560 L1060,720 L840,720 Z" fill="url(#htg)"/>
    <!-- a few stamped navy ripple bars -->
    <g fill="#003C82">
      <rect x="120" y="600" width="80" height="3"/>
      <rect x="260" y="618" width="120" height="3"/>
      <rect x="440" y="592" width="60" height="3"/>
      <rect x="560" y="630" width="100" height="3"/>
      <rect x="720" y="610" width="70" height="3"/>
      <rect x="1140" y="600" width="110" height="3"/>
      <rect x="1300" y="624" width="80" height="3"/>
      <rect x="1420" y="596" width="120" height="3"/>
      <rect x="80" y="654" width="140" height="3"/>
      <rect x="300" y="672" width="90" height="3"/>
      <rect x="1180" y="668" width="140" height="3"/>
      <rect x="1380" y="648" width="100" height="3"/>
    </g>
    <!-- shimmer marks across reflection -->
    <g fill="#003C82" opacity="0.85">
      <rect x="880" y="586" width="120" height="3"/>
      <rect x="868" y="612" width="150" height="3"/>
      <rect x="856" y="640" width="180" height="3"/>
      <rect x="842" y="670" width="210" height="3"/>
      <rect x="830" y="700" width="240" height="3"/>
    </g>

    <!-- ============ BEACH (cream foreground y=720+) ============ -->
    <rect x="0" y="720" width="1600" height="180" fill="#F3E9D8"/>
    <line x1="0" y1="720" x2="1600" y2="720" stroke="#003C82" stroke-width="2" opacity="0.6"/>
    <!-- sparse navy halftone sand grit -->
    <rect x="0" y="720" width="1600" height="180" fill="url(#ht)" opacity="0.18"/>
    <!-- denser sand grit near the front -->
    <rect x="0" y="820" width="1600" height="80" fill="url(#ht)" opacity="0.3"/>
    <!-- gold halftone warm wash on the beach -->
    <rect x="0" y="720" width="1600" height="180" fill="url(#htg)" opacity="0.5"/>

    <!-- footprints leading toward the tower (halftone navy ovals) -->
    <g fill="#003C82" opacity="0.55">
      <ellipse cx="240" cy="870" rx="14" ry="8"/>
      <ellipse cx="300" cy="855" rx="13" ry="7"/>
      <ellipse cx="370" cy="840" rx="12" ry="7"/>
      <ellipse cx="445" cy="828" rx="12" ry="6"/>
      <ellipse cx="525" cy="816" rx="11" ry="6"/>
      <ellipse cx="610" cy="806" rx="11" ry="6"/>
      <ellipse cx="700" cy="798" rx="10" ry="5"/>
      <ellipse cx="790" cy="792" rx="10" ry="5"/>
      <ellipse cx="880" cy="786" rx="9" ry="5"/>
    </g>

    <!-- ============ PELICANS upper-left ============ -->
    <g fill="#003C82">
      <!-- pelican 1 -->
      <path d="M180,140 Q210,120 240,138 Q260,128 280,140 Q260,148 240,144 Q220,150 200,146 Q188,150 180,140 Z"/>
      <!-- pelican 2 -->
      <path d="M330,180 Q360,160 392,180 Q412,170 432,182 Q412,190 392,186 Q372,192 350,188 Q338,192 330,180 Z"/>
      <!-- pelican 3 smaller, farther -->
      <path d="M460,108 Q480,96 502,108 Q516,102 530,110 Q516,116 502,114 Q488,118 472,114 Q464,116 460,108 Z"/>
    </g>

    <!-- ============ UMBRELLA + COOLER (left, x~300, y~600) ============ -->
    <!-- pole (navy) -->
    <g transform="translate(1.5,1.5)">
      <!-- canopy (azzurro) -->
      <path d="M180,460 Q300,380 420,460 Q300,490 180,460 Z" fill="#12A0D7"/>
      <!-- canopy halftone shade -->
      <path d="M300,420 Q360,400 420,460 Q360,484 300,478 Z" fill="url(#ht)"/>
      <!-- gold halftone segments -->
      <path d="M180,460 Q240,420 300,420 Q300,460 270,478 Z" fill="url(#htg)"/>
    </g>
    <!-- canopy keyline -->
    <path d="M180,460 Q300,380 420,460 Q300,490 180,460 Z" fill="none" stroke="#003C82" stroke-width="3"/>
    <!-- canopy ribs -->
    <g stroke="#003C82" stroke-width="2" fill="none">
      <path d="M180,460 Q220,440 300,418"/>
      <path d="M240,478 Q260,448 300,418"/>
      <path d="M360,478 Q340,448 300,418"/>
      <path d="M420,460 Q380,440 300,418"/>
    </g>
    <!-- pole -->
    <rect x="297" y="418" width="6" height="320" fill="#003C82"/>
    <!-- top finial -->
    <circle cx="300" cy="412" r="6" fill="#C68A3E" stroke="#003C82" stroke-width="2"/>

    <!-- cooler beside umbrella -->
    <g transform="translate(1.5,1.5)">
      <rect x="360" y="700" width="170" height="110" fill="#12A0D7"/>
      <rect x="360" y="700" width="170" height="22" fill="url(#ht)"/>
    </g>
    <rect x="360" y="700" width="170" height="110" fill="none" stroke="#003C82" stroke-width="4"/>
    <line x1="360" y1="722" x2="530" y2="722" stroke="#003C82" stroke-width="3"/>
    <!-- handle -->
    <path d="M408,700 Q445,678 482,700" fill="none" stroke="#003C82" stroke-width="3"/>
    <!-- towel draped over cooler -->
    <g transform="translate(1.5,1.5)">
      <path d="M340,700 L560,694 L548,760 L520,752 L500,790 L470,772 L450,800 L420,776 L400,798 L370,770 Z" fill="#C68A3E"/>
      <path d="M340,700 L560,694 L548,760 L520,752 L500,790 L470,772 L450,800 L420,776 L400,798 L370,770 Z" fill="url(#ht)" opacity="0.5"/>
    </g>
    <path d="M340,700 L560,694 L548,760 L520,752 L500,790 L470,772 L450,800 L420,776 L400,798 L370,770 Z" fill="none" stroke="#003C82" stroke-width="3" stroke-linejoin="round"/>
    <!-- towel stripes -->
    <g stroke="#003C82" stroke-width="2" fill="none">
      <path d="M360,710 L548,704"/>
      <path d="M362,722 L548,716"/>
    </g>

    <!-- ============ LIFEGUARD TOWER (x=900-1100, y=300-820) ============ -->
    <!-- back stilts (brown) misregister down-right -->
    <g transform="translate(1.5,1.5)">
      <rect x="920" y="560" width="14" height="260" fill="#5A3A22"/>
      <rect x="1066" y="560" width="14" height="260" fill="#5A3A22"/>
      <!-- front stilts -->
      <rect x="940" y="580" width="14" height="240" fill="#5A3A22"/>
      <rect x="1046" y="580" width="14" height="240" fill="#5A3A22"/>
    </g>
    <!-- stilt keylines -->
    <g fill="none" stroke="#003C82" stroke-width="3">
      <rect x="920" y="560" width="14" height="260"/>
      <rect x="1066" y="560" width="14" height="260"/>
      <rect x="940" y="580" width="14" height="240"/>
      <rect x="1046" y="580" width="14" height="240"/>
    </g>
    <!-- cross-bracing X between stilts -->
    <g stroke="#5A3A22" stroke-width="6" stroke-linecap="round">
      <line x1="930" y1="660" x2="1080" y2="780"/>
      <line x1="930" y1="780" x2="1080" y2="660"/>
    </g>
    <g stroke="#003C82" stroke-width="2" stroke-linecap="round">
      <line x1="930" y1="660" x2="1080" y2="780"/>
      <line x1="930" y1="780" x2="1080" y2="660"/>
    </g>

    <!-- cabin base platform -->
    <g transform="translate(1.5,1.5)">
      <rect x="894" y="546" width="216" height="22" fill="#5A3A22"/>
    </g>
    <rect x="894" y="546" width="216" height="22" fill="none" stroke="#003C82" stroke-width="3"/>

    <!-- cabin body (white wash = cream paper, with keyline) -->
    <g transform="translate(1.5,1.5)">
      <rect x="900" y="400" width="200" height="148" fill="#F3E9D8"/>
      <!-- halftone shade on the right side -->
      <rect x="1010" y="400" width="90" height="148" fill="url(#ht)"/>
      <!-- gold warm wash on left -->
      <rect x="900" y="400" width="60" height="148" fill="url(#htg)" opacity="0.6"/>
    </g>
    <rect x="900" y="400" width="200" height="148" fill="none" stroke="#003C82" stroke-width="4"/>

    <!-- cabin window cutout -->
    <g transform="translate(1.5,1.5)">
      <rect x="930" y="430" width="140" height="60" fill="#12A0D7"/>
      <rect x="1000" y="430" width="70" height="60" fill="url(#ht)"/>
    </g>
    <rect x="930" y="430" width="140" height="60" fill="none" stroke="#003C82" stroke-width="3"/>
    <line x1="1000" y1="430" x2="1000" y2="490" stroke="#003C82" stroke-width="2"/>
    <line x1="930" y1="460" x2="1070" y2="460" stroke="#003C82" stroke-width="2"/>

    <!-- railing around cabin (front rail strip beneath windows down to platform) -->
    <g fill="none" stroke="#003C82" stroke-width="3">
      <line x1="900" y1="510" x2="1100" y2="510"/>
      <line x1="900" y1="528" x2="1100" y2="528"/>
      <!-- vertical balusters -->
      <line x1="918" y1="510" x2="918" y2="546"/>
      <line x1="942" y1="510" x2="942" y2="546"/>
      <line x1="966" y1="510" x2="966" y2="546"/>
      <line x1="990" y1="510" x2="990" y2="546"/>
      <line x1="1014" y1="510" x2="1014" y2="546"/>
      <line x1="1038" y1="510" x2="1038" y2="546"/>
      <line x1="1062" y1="510" x2="1062" y2="546"/>
      <line x1="1086" y1="510" x2="1086" y2="546"/>
    </g>

    <!-- flat roof with slight overhang -->
    <g transform="translate(1.5,1.5)">
      <rect x="880" y="376" width="240" height="28" fill="#5A3A22"/>
      <rect x="880" y="376" width="240" height="10" fill="url(#ht)"/>
    </g>
    <rect x="880" y="376" width="240" height="28" fill="none" stroke="#003C82" stroke-width="4"/>

    <!-- ladder running up the front (between front stilts) -->
    <g stroke="#5A3A22" stroke-width="5" stroke-linecap="round">
      <line x1="970" y1="568" x2="970" y2="820"/>
      <line x1="1018" y1="568" x2="1018" y2="820"/>
    </g>
    <g stroke="#003C82" stroke-width="2" stroke-linecap="round">
      <line x1="970" y1="568" x2="970" y2="820"/>
      <line x1="1018" y1="568" x2="1018" y2="820"/>
      <!-- rungs -->
      <line x1="970" y1="590" x2="1018" y2="590"/>
      <line x1="970" y1="618" x2="1018" y2="618"/>
      <line x1="970" y1="646" x2="1018" y2="646"/>
      <line x1="970" y1="674" x2="1018" y2="674"/>
      <line x1="970" y1="702" x2="1018" y2="702"/>
      <line x1="970" y1="730" x2="1018" y2="730"/>
      <line x1="970" y1="758" x2="1018" y2="758"/>
      <line x1="970" y1="786" x2="1018" y2="786"/>
    </g>

    <!-- flag pole on the roof -->
    <line x1="1080" y1="376" x2="1080" y2="300" stroke="#003C82" stroke-width="3"/>
    <!-- flag (gold, since red isn't in palette) -->
    <g transform="translate(1.5,1.5)">
      <path d="M1080,304 L1140,316 L1080,336 Z" fill="#C68A3E"/>
    </g>
    <path d="M1080,304 L1140,316 L1080,336 Z" fill="none" stroke="#003C82" stroke-width="3" stroke-linejoin="round"/>

    <!-- door on cabin -->
    <g transform="translate(1.5,1.5)">
      <rect x="956" y="494" width="36" height="54" fill="#5A3A22"/>
    </g>
    <rect x="956" y="494" width="36" height="54" fill="none" stroke="#003C82" stroke-width="2"/>

    <!-- ============ TV propped against tower base (x=940, y=750, ~160 wide) ============ -->
    <!-- CRT body, brown -->
    <g transform="translate(1.5,1.5)">
      <path d="M860,756 L1020,748 L1028,860 L854,866 Z" fill="#5A3A22"/>
      <!-- halftone shade right -->
      <path d="M944,752 L1020,748 L1028,860 L948,862 Z" fill="url(#ht)" opacity="0.7"/>
    </g>
    <path d="M860,756 L1020,748 L1028,860 L854,866 Z" fill="none" stroke="#003C82" stroke-width="3" stroke-linejoin="round"/>
    <!-- screen (green pitch) -->
    <g transform="translate(1.5,1.5)">
      <path d="M876,768 L1006,762 L1012,840 L872,846 Z" fill="#12A0D7"/>
      <!-- a green-ish suggestion using gold halftone over azzurro = approximate pitch -->
      <path d="M876,768 L1006,762 L1012,840 L872,846 Z" fill="url(#htg)"/>
    </g>
    <path d="M876,768 L1006,762 L1012,840 L872,846 Z" fill="none" stroke="#003C82" stroke-width="2" stroke-linejoin="round"/>
    <!-- center line on pitch -->
    <line x1="944" y1="766" x2="942" y2="846" stroke="#003C82" stroke-width="1.5"/>
    <circle cx="942" cy="806" r="10" fill="none" stroke="#003C82" stroke-width="1.5"/>
    <!-- stick figures -->
    <g fill="#003C82">
      <!-- player 1 -->
      <circle cx="906" cy="790" r="3.5"/>
      <line x1="906" y1="793" x2="906" y2="808" stroke="#003C82" stroke-width="1.5"/>
      <line x1="906" y1="798" x2="900" y2="804" stroke="#003C82" stroke-width="1.5"/>
      <line x1="906" y1="798" x2="912" y2="804" stroke="#003C82" stroke-width="1.5"/>
      <line x1="906" y1="808" x2="902" y2="818" stroke="#003C82" stroke-width="1.5"/>
      <line x1="906" y1="808" x2="910" y2="818" stroke="#003C82" stroke-width="1.5"/>
      <!-- player 2 -->
      <circle cx="980" cy="812" r="3.5"/>
      <line x1="980" y1="815" x2="980" y2="830" stroke="#003C82" stroke-width="1.5"/>
      <line x1="980" y1="820" x2="974" y2="826" stroke="#003C82" stroke-width="1.5"/>
      <line x1="980" y1="820" x2="986" y2="826" stroke="#003C82" stroke-width="1.5"/>
      <line x1="980" y1="830" x2="976" y2="838" stroke="#003C82" stroke-width="1.5"/>
      <line x1="980" y1="830" x2="984" y2="838" stroke="#003C82" stroke-width="1.5"/>
      <!-- ball -->
      <circle cx="940" cy="822" r="3" fill="#F3E9D8" stroke="#003C82" stroke-width="1"/>
    </g>
    <!-- score bug in corner -->
    <rect x="880" y="770" width="32" height="10" fill="#003C82"/>
    <!-- TV knobs / antenna -->
    <g stroke="#003C82" stroke-width="2" fill="#C68A3E">
      <circle cx="1012" cy="852" r="4"/>
      <circle cx="1024" cy="852" r="4"/>
    </g>
    <g stroke="#003C82" stroke-width="2" fill="none">
      <line x1="900" y1="752" x2="876" y2="710"/>
      <line x1="980" y1="750" x2="1008" y2="708"/>
    </g>

    <!-- ============ Hand-stamped ink frame, inset 30 ============ -->
    <!-- gold misregister underlayer -->
    <rect x="30" y="30" width="1540" height="840" fill="none" stroke="#C68A3E" stroke-width="3" transform="translate(3,3)"/>
    <!-- navy main frame -->
    <rect x="30" y="30" width="1540" height="840" fill="none" stroke="#003C82" stroke-width="6"/>

  </g>

  <!-- paper grain over everything -->
  <g clip-path="url(#clip)"><rect x="0" y="0" width="1600" height="900" filter="url(#grain)" opacity="0.5"/></g>
</svg>
