<svg xmlns="http://www.w3.org/2000/svg" viewBox="0 0 1600 900" width="1600" height="900" role="img" aria-label="Cafe Azzurro - St. Pete Pier at dusk, CRT TV on a piling showing soccer, sun setting at the vanishing point, pelicans in V formation">
  <title>Cafe Azzurro - Pier at Dusk</title>
  <defs>
    <!-- inky / hand-printed rough edges -->
    <filter id="rough" x="-15%" y="-15%" width="130%" height="130%">
      <feTurbulence type="fractalNoise" baseFrequency="0.013" numOctaves="2" seed="7" result="n"/>
      <feDisplacementMap in="SourceGraphic" in2="n" scale="5" xChannelSelector="R" yChannelSelector="G"/>
    </filter>
    <!-- paper grain -->
    <filter id="grain">
      <feTurbulence type="fractalNoise" baseFrequency="0.8" numOctaves="2" stitchTiles="stitch" result="g"/>
      <feColorMatrix in="g" type="matrix" values="0 0 0 0 0  0 0 0 0 0  0 0 0 0 0  0 0 0 0.4 0"/>
    </filter>
    <!-- navy halftone screen (the 'shaded' ink) -->
    <pattern id="ht" width="7" height="7" patternUnits="userSpaceOnUse" patternTransform="rotate(15)">
      <circle cx="2" cy="2" r="1.5" fill="#003C82" fill-opacity="0.55"/>
    </pattern>
    <!-- warm gold halftone wash -->
    <pattern id="htg" width="9" height="9" patternUnits="userSpaceOnUse" patternTransform="rotate(-10)">
      <circle cx="2.2" cy="2.2" r="1.3" fill="#C68A3E" fill-opacity="0.4"/>
    </pattern>
    <!-- dusk sky gradient near horizon -->
    <linearGradient id="duskSky" gradientUnits="userSpaceOnUse" x1="800" y1="200" x2="800" y2="470">
      <stop offset="0" stop-color="#F3E9D8" stop-opacity="0"/>
      <stop offset="0.55" stop-color="#C68A3E" stop-opacity="0.35"/>
      <stop offset="1" stop-color="#C68A3E" stop-opacity="0.7"/>
    </linearGradient>
    <!-- sun glow -->
    <radialGradient id="sunGlow" cx="0.5" cy="0.5" r="0.5">
      <stop offset="0" stop-color="#C68A3E" stop-opacity="0.85"/>
      <stop offset="0.55" stop-color="#C68A3E" stop-opacity="0.3"/>
      <stop offset="1" stop-color="#C68A3E" stop-opacity="0"/>
    </radialGradient>
    <!-- sun reflection column (fade toward viewer) -->
    <linearGradient id="sunCol" gradientUnits="userSpaceOnUse" x1="0" y1="460" x2="0" y2="900">
      <stop offset="0" stop-color="#C68A3E" stop-opacity="0.85"/>
      <stop offset="0.6" stop-color="#C68A3E" stop-opacity="0.3"/>
      <stop offset="1" stop-color="#C68A3E" stop-opacity="0"/>
    </linearGradient>
    <!-- lantern glow -->
    <radialGradient id="lanternGlow" cx="0.5" cy="0.5" r="0.5">
      <stop offset="0" stop-color="#C68A3E" stop-opacity="0.95"/>
      <stop offset="0.6" stop-color="#C68A3E" stop-opacity="0.35"/>
      <stop offset="1" stop-color="#C68A3E" stop-opacity="0"/>
    </radialGradient>
    <clipPath id="frameClip"><rect x="30" y="30" width="1540" height="840"/></clipPath>
  </defs>

  <!-- paper -->
  <rect x="0" y="0" width="1600" height="900" fill="#F3E9D8"/>

  <!-- ===== inked artwork (rough-edged) ===== -->
  <g filter="url(#rough)">

    <!-- ===== SKY ===== -->
    <!-- dusk gradient band near horizon -->
    <rect x="0" y="200" width="1600" height="260" fill="url(#duskSky)"/>

    <!-- navy halftone smudge "dusk clouds" upper right -->
    <g transform="translate(1.5,1.5)">
      <path d="M980,120 C1080,90 1240,100 1360,130 C1460,155 1520,180 1560,170 L1560,250 C1480,260 1360,235 1240,230 C1120,225 1020,235 980,210 Z" fill="url(#ht)" opacity="0.85"/>
      <path d="M1100,170 C1180,150 1300,160 1420,180 C1500,195 1560,210 1580,200 L1580,260 C1500,275 1380,260 1280,260 C1180,260 1120,255 1090,235 Z" fill="url(#ht)" opacity="0.6"/>
    </g>

    <!-- ===== SUN (above vanishing point ~1100,460) ===== -->
    <!-- soft halftone glow -->
    <circle cx="1100" cy="460" r="260" fill="url(#sunGlow)"/>
    <circle cx="1100" cy="460" r="200" fill="url(#htg)" opacity="0.9"/>
    <!-- gold disc, misregister azzurro... actually gold disc on register -->
    <g transform="translate(1.5,1.5)">
      <circle cx="1100" cy="460" r="140" fill="#C68A3E"/>
    </g>
    <circle cx="1100" cy="460" r="140" fill="none" stroke="#003C82" stroke-width="3"/>

    <!-- ===== GULF / WATER ===== -->
    <!-- azzurro fill below horizon (misregistered) -->
    <g transform="translate(1.5,1.5)">
      <rect x="0" y="460" width="1600" height="280" fill="#12A0D7"/>
    </g>
    <!-- navy halftone ripples -->
    <g fill="url(#ht)">
      <path d="M0,470 L1600,470 L1600,490 L0,490 Z" opacity="0.5"/>
      <path d="M0,520 L1600,520 L1600,545 L0,545 Z" opacity="0.6"/>
      <path d="M0,585 L1600,585 L1600,615 L0,615 Z" opacity="0.7"/>
      <path d="M0,660 L1600,660 L1600,700 L0,700 Z" opacity="0.75"/>
    </g>
    <!-- thin navy ripple strokes -->
    <g fill="none" stroke="#003C82" stroke-width="1.5" stroke-linecap="round" opacity="0.7">
      <path d="M60,480 q40,-4 80,0 t80,0 t80,0 t80,0"/>
      <path d="M380,495 q40,-4 80,0 t80,0 t80,0"/>
      <path d="M820,488 q40,-4 80,0 t80,0 t80,0 t80,0"/>
      <path d="M1280,492 q40,-4 80,0 t80,0"/>
      <path d="M40,540 q50,-5 100,0 t100,0 t100,0 t100,0"/>
      <path d="M520,548 q50,-5 100,0 t100,0"/>
      <path d="M880,544 q50,-5 100,0 t100,0 t100,0"/>
      <path d="M80,610 q60,-6 120,0 t120,0 t120,0"/>
      <path d="M540,618 q60,-6 120,0 t120,0"/>
      <path d="M120,690 q70,-7 140,0 t140,0 t140,0"/>
      <path d="M780,700 q70,-7 140,0 t140,0"/>
    </g>

    <!-- sun reflection column from horizon down toward viewer along pier -->
    <path d="M1060,460 L1140,460 L1280,900 L820,900 Z" fill="url(#sunCol)" opacity="0.85"/>
    <path d="M1078,470 L1122,470 L1240,900 L860,900 Z" fill="url(#htg)" opacity="0.55"/>

    <!-- ===== PELICANS (3, V formation, navy, heading toward sun) ===== -->
    <g fill="#003C82" stroke="#003C82" stroke-width="2" stroke-linecap="round" stroke-linejoin="round">
      <!-- lead bird -->
      <path d="M880,300 q14,-10 28,0 q8,-4 18,-2 q-10,4 -18,2 q-14,10 -28,0 q-10,2 -20,-2 q12,-2 20,2 Z"/>
      <!-- back left -->
      <path d="M780,340 q12,-9 24,0 q7,-3 16,-2 q-9,4 -16,2 q-12,9 -24,0 q-9,2 -18,-2 q11,-2 18,2 Z"/>
      <!-- back right -->
      <path d="M980,340 q12,-9 24,0 q7,-3 16,-2 q-9,4 -16,2 q-12,9 -24,0 q-9,2 -18,-2 q11,-2 18,2 Z"/>
    </g>

    <!-- ===== PIER ===== -->
    <!-- pier deck: brown halftone wash, perspective trapezoid from full-width bottom to vanishing point -->
    <!-- left edge: (0,900) -> (1080,460); right edge: (1600,900) -> (1120,460) -->
    <g transform="translate(1.5,1.5)">
      <path d="M0,900 L1080,460 L1120,460 L1600,900 Z" fill="#5A3A22" opacity="0.55"/>
    </g>
    <path d="M0,900 L1080,460 L1120,460 L1600,900 Z" fill="url(#htg)" opacity="0.9"/>
    <path d="M0,900 L1080,460 L1120,460 L1600,900 Z" fill="url(#ht)" opacity="0.35"/>

    <!-- plank lines in perspective (all converge to vanishing point 1100,460) -->
    <g fill="none" stroke="#003C82" stroke-width="1.6" opacity="0.7">
      <line x1="0" y1="900" x2="1100" y2="460"/>
      <line x1="120" y1="900" x2="1100" y2="460"/>
      <line x1="260" y1="900" x2="1100" y2="460"/>
      <line x1="400" y1="900" x2="1100" y2="460"/>
      <line x1="540" y1="900" x2="1100" y2="460"/>
      <line x1="680" y1="900" x2="1100" y2="460"/>
      <line x1="820" y1="900" x2="1100" y2="460"/>
      <line x1="960" y1="900" x2="1100" y2="460"/>
      <line x1="1240" y1="900" x2="1100" y2="460"/>
      <line x1="1380" y1="900" x2="1100" y2="460"/>
      <line x1="1500" y1="900" x2="1100" y2="460"/>
      <line x1="1600" y1="900" x2="1100" y2="460"/>
    </g>

    <!-- cross-board lines (horizontal-ish, more frequent toward viewer) -->
    <g fill="none" stroke="#003C82" stroke-width="2" opacity="0.55">
      <!-- compute trapezoid widths at various y -->
      <!-- at y=500, x_left = 0 + (1080-0)*((500-900)/(460-900)) = 0 + 1080*(400/440) ~ 981.8; x_right = 1600 + (1120-1600)*(400/440) ~ 1600 - 436.3 = 1163.6 -->
      <line x1="982" y1="500" x2="1164" y2="500"/>
      <line x1="900" y1="540" x2="1196" y2="540"/>
      <line x1="810" y1="580" x2="1230" y2="580"/>
      <line x1="713" y1="620" x2="1265" y2="620"/>
      <line x1="606" y1="660" x2="1305" y2="660"/>
      <line x1="491" y1="700" x2="1349" y2="700"/>
      <line x1="368" y1="740" x2="1393" y2="740"/>
      <line x1="245" y1="780" x2="1437" y2="780"/>
      <line x1="123" y1="820" x2="1480" y2="820"/>
      <line x1="0" y1="860" x2="1520" y2="860"/>
    </g>

    <!-- two outer rail edges in heavier ink -->
    <g fill="none" stroke="#5A3A22" stroke-width="9" stroke-linecap="round">
      <line x1="0" y1="900" x2="1080" y2="460"/>
      <line x1="1600" y1="900" x2="1120" y2="460"/>
    </g>
    <g fill="none" stroke="#003C82" stroke-width="2.5" stroke-linecap="round">
      <line x1="0" y1="900" x2="1080" y2="460"/>
      <line x1="1600" y1="900" x2="1120" y2="460"/>
    </g>

    <!-- pilings dropping into water beneath the pier -->
    <!-- LEFT side pilings, navy silhouettes with halftone shading -->
    <g>
      <!-- foreground left piling (also holds TV) -->
      <g transform="translate(1.5,1.5)">
        <rect x="270" y="700" width="60" height="200" fill="#003C82"/>
      </g>
      <rect x="270" y="700" width="60" height="200" fill="url(#ht)" opacity="0.7"/>
      <rect x="270" y="700" width="60" height="200" fill="none" stroke="#003C82" stroke-width="3"/>

      <!-- left mid piling -->
      <g transform="translate(1.5,1.5)">
        <rect x="560" y="620" width="38" height="280" fill="#003C82"/>
      </g>
      <rect x="560" y="620" width="38" height="280" fill="url(#ht)" opacity="0.6"/>
      <rect x="560" y="620" width="38" height="280" fill="none" stroke="#003C82" stroke-width="2.5"/>

      <!-- left far piling -->
      <g transform="translate(1.5,1.5)">
        <rect x="820" y="555" width="22" height="345" fill="#003C82"/>
      </g>
      <rect x="820" y="555" width="22" height="345" fill="url(#ht)" opacity="0.55"/>
      <rect x="820" y="555" width="22" height="345" fill="none" stroke="#003C82" stroke-width="2"/>

      <!-- left farther piling -->
      <g transform="translate(1.5,1.5)">
        <rect x="970" y="510" width="14" height="390" fill="#003C82"/>
      </g>
      <rect x="970" y="510" width="14" height="390" fill="none" stroke="#003C82" stroke-width="1.5"/>
    </g>

    <!-- RIGHT side pilings -->
    <g>
      <rect x="1340" y="700" width="55" height="200" fill="#003C82" transform="translate(1.5,1.5)"/>
      <rect x="1340" y="700" width="55" height="200" fill="url(#ht)" opacity="0.7"/>
      <rect x="1340" y="700" width="55" height="200" fill="none" stroke="#003C82" stroke-width="3"/>

      <rect x="1240" y="620" width="36" height="280" fill="#003C82" transform="translate(1.5,1.5)"/>
      <rect x="1240" y="620" width="36" height="280" fill="url(#ht)" opacity="0.6"/>
      <rect x="1240" y="620" width="36" height="280" fill="none" stroke="#003C82" stroke-width="2.5"/>

      <rect x="1180" y="555" width="22" height="345" fill="#003C82" transform="translate(1.5,1.5)"/>
      <rect x="1180" y="555" width="22" height="345" fill="url(#ht)" opacity="0.55"/>
      <rect x="1180" y="555" width="22" height="345" fill="none" stroke="#003C82" stroke-width="2"/>

      <rect x="1140" y="510" width="14" height="390" fill="#003C82" transform="translate(1.5,1.5)"/>
      <rect x="1140" y="510" width="14" height="390" fill="none" stroke="#003C82" stroke-width="1.5"/>
    </g>

    <!-- ===== LANTERN on mid-distance pier post (left mid piling top, ~x=579, y=620) ===== -->
    <!-- bracket from top of piling extending up -->
    <g fill="none" stroke="#003C82" stroke-width="2.5">
      <line x1="579" y1="620" x2="579" y2="572"/>
      <line x1="579" y1="572" x2="610" y2="572"/>
    </g>
    <!-- glow -->
    <circle cx="610" cy="592" r="28" fill="url(#lanternGlow)"/>
    <circle cx="610" cy="592" r="18" fill="url(#htg)" opacity="0.9"/>
    <!-- lantern body -->
    <g transform="translate(1.5,1.5)">
      <rect x="603" y="582" width="14" height="20" fill="#C68A3E"/>
    </g>
    <rect x="603" y="582" width="14" height="20" fill="none" stroke="#003C82" stroke-width="2"/>
    <line x1="610" y1="572" x2="610" y2="582" stroke="#003C82" stroke-width="2"/>
    <!-- tiny cap -->
    <path d="M600,582 L620,582 L617,576 L603,576 Z" fill="#003C82"/>

    <!-- ===== CRT TV on foreground left piling (~ x=300, y=600, ~200 wide) ===== -->
    <!-- CRT silhouette: trapezoidal body, slight bulge -->
    <g>
      <!-- TV body misregister azzurro... actually a darker housing; use brown azzurro mix: use brown body -->
      <g transform="translate(1.5,1.5)">
        <path d="M210,610 L390,610 L380,720 L220,720 Z" fill="#5A3A22"/>
      </g>
      <!-- gold halftone wash on housing -->
      <path d="M210,610 L390,610 L380,720 L220,720 Z" fill="url(#htg)" opacity="0.6"/>
      <!-- navy keyline -->
      <path d="M210,610 L390,610 L380,720 L220,720 Z" fill="none" stroke="#003C82" stroke-width="4" stroke-linejoin="round"/>

      <!-- screen (azzurro misregistered) -->
      <g transform="translate(1.5,1.5)">
        <path d="M230,622 L370,622 L362,706 L238,706 Z" fill="#12A0D7"/>
      </g>

      <!-- pitch: green-ish — we don't have a green, fake with azzurro + halftone overlay; instead use a darker navy-tinted band as grass via halftone -->
      <!-- Use halftone navy at higher density as "grass shadow" + a thin azzurro green by mixing: use a separate pale pattern by reusing ht under low opacity over azzurro -->
      <!-- white-ish pitch lines (cream) -->
      <g clip-path="none">
        <!-- pitch base: reuse azzurro already there; add a slightly darker rectangle to suggest pitch using navy halftone -->
        <path d="M232,624 L368,624 L361,704 L239,704 Z" fill="url(#ht)" opacity="0.6"/>
        <!-- center line + circle in cream -->
        <line x1="300" y1="626" x2="300" y2="702" stroke="#F3E9D8" stroke-width="1.5" opacity="0.9"/>
        <ellipse cx="300" cy="665" rx="14" ry="8" fill="none" stroke="#F3E9D8" stroke-width="1.5" opacity="0.9"/>
        <!-- goal boxes -->
        <rect x="248" y="650" width="14" height="28" fill="none" stroke="#F3E9D8" stroke-width="1.2" opacity="0.85"/>
        <rect x="338" y="650" width="14" height="28" fill="none" stroke="#F3E9D8" stroke-width="1.2" opacity="0.85"/>

        <!-- two stick figures -->
        <g stroke="#F3E9D8" stroke-width="1.6" fill="#F3E9D8" stroke-linecap="round">
          <!-- player A -->
          <circle cx="275" cy="660" r="2.5"/>
          <line x1="275" y1="662.5" x2="275" y2="672"/>
          <line x1="275" y1="666" x2="271" y2="670"/>
          <line x1="275" y1="666" x2="279" y2="668"/>
          <line x1="275" y1="672" x2="272" y2="680"/>
          <line x1="275" y1="672" x2="278" y2="680"/>
          <!-- player B -->
          <circle cx="325" cy="672" r="2.5"/>
          <line x1="325" y1="674.5" x2="325" y2="684"/>
          <line x1="325" y1="678" x2="321" y2="682"/>
          <line x1="325" y1="678" x2="329" y2="680"/>
          <line x1="325" y1="684" x2="322" y2="692"/>
          <line x1="325" y1="684" x2="328" y2="692"/>
        </g>
        <!-- ball -->
        <circle cx="298" cy="678" r="2.2" fill="#F3E9D8" stroke="#003C82" stroke-width="0.8"/>
      </g>

      <!-- screen keyline -->
      <path d="M230,622 L370,622 L362,706 L238,706 Z" fill="none" stroke="#003C82" stroke-width="3" stroke-linejoin="round"/>

      <!-- glare-washed half: gold halftone overlay across left half of screen, diagonal -->
      <path d="M230,622 L320,622 L300,706 L238,706 Z" fill="url(#htg)" opacity="0.95"/>
      <!-- additional diagonal gold streak -->
      <path d="M230,622 L300,622 L260,706 L238,706 Z" fill="#C68A3E" opacity="0.35"/>

      <!-- tuning knobs + antenna -->
      <circle cx="370" cy="735" r="6" fill="#C68A3E" stroke="#003C82" stroke-width="2"/>
      <circle cx="352" cy="735" r="6" fill="#C68A3E" stroke="#003C82" stroke-width="2"/>
      <!-- antennae -->
      <g fill="none" stroke="#003C82" stroke-width="2.5" stroke-linecap="round">
        <line x1="270" y1="610" x2="232" y2="552"/>
        <line x1="330" y1="610" x2="372" y2="548"/>
        <circle cx="232" cy="552" r="3" fill="#C68A3E"/>
        <circle cx="372" cy="548" r="3" fill="#C68A3E"/>
      </g>

      <!-- base/stand on piling -->
      <rect x="265" y="720" width="80" height="8" fill="#003C82"/>
    </g>

    <!-- ===== loose hand-stamped ink frame inset ~30px ===== -->
    <!-- gold offset (2,2) under, navy on register -->
    <rect x="30" y="30" width="1540" height="840" fill="none" stroke="#C68A3E" stroke-width="2.5" transform="translate(2,2)"/>
    <rect x="30" y="30" width="1540" height="840" fill="none" stroke="#003C82" stroke-width="5"/>

  </g>

  <!-- paper grain over everything last -->
  <rect x="0" y="0" width="1600" height="900" filter="url(#grain)" opacity="0.55"/>
</svg>
