<svg xmlns="http://www.w3.org/2000/svg" viewBox="0 0 1600 900" width="1600" height="900" role="img" aria-label="Cafe Azzurro hero - golden hour over the gulf with palm silhouette and a vintage television showing a distant football match">
  <title>Cafe Azzurro - Golden Hour Wide Horizon</title>
  <defs>
    <!-- inky / hand-printed rough edges -->
    <filter id="rough" x="-5%" y="-5%" width="110%" height="110%">
      <feTurbulence type="fractalNoise" baseFrequency="0.013" numOctaves="2" seed="7" result="n"/>
      <feDisplacementMap in="SourceGraphic" in2="n" scale="5" xChannelSelector="R" yChannelSelector="G"/>
    </filter>
    <!-- paper grain -->
    <filter id="grain">
      <feTurbulence type="fractalNoise" baseFrequency="0.8" numOctaves="2" stitchTiles="stitch" result="g"/>
      <feColorMatrix in="g" type="matrix" values="0 0 0 0 0  0 0 0 0 0  0 0 0 0 0  0 0 0 0.4 0"/>
    </filter>
    <!-- navy halftone screen (the 'shaded' ink) -->
    <pattern id="ht" width="7" height="7" patternUnits="userSpaceOnUse" patternTransform="rotate(15)">
      <circle cx="2" cy="2" r="1.5" fill="#003C82" fill-opacity="0.55"/>
    </pattern>
    <!-- warm gold halftone wash -->
    <pattern id="htg" width="9" height="9" patternUnits="userSpaceOnUse" patternTransform="rotate(-10)">
      <circle cx="2.2" cy="2.2" r="1.3" fill="#C68A3E" fill-opacity="0.4"/>
    </pattern>
    <!-- denser navy halftone for far-ripples on water -->
    <pattern id="htRipple" width="14" height="8" patternUnits="userSpaceOnUse">
      <rect x="0" y="3" width="8" height="1.4" fill="#003C82" fill-opacity="0.55"/>
    </pattern>
    <!-- sky gold gradient near horizon -->
    <linearGradient id="skyGold" gradientUnits="userSpaceOnUse" x1="800" y1="320" x2="800" y2="540">
      <stop offset="0" stop-color="#C68A3E" stop-opacity="0"/>
      <stop offset="0.55" stop-color="#C68A3E" stop-opacity="0.32"/>
      <stop offset="1" stop-color="#C68A3E" stop-opacity="0.55"/>
    </linearGradient>
    <!-- sun column reflection -->
    <linearGradient id="sunCol" gradientUnits="userSpaceOnUse" x1="1100" y1="540" x2="1100" y2="900">
      <stop offset="0" stop-color="#C68A3E" stop-opacity="0.75"/>
      <stop offset="0.5" stop-color="#C68A3E" stop-opacity="0.35"/>
      <stop offset="1" stop-color="#C68A3E" stop-opacity="0"/>
    </linearGradient>
    <!-- upper-left azzurro sky wash -->
    <radialGradient id="skyBlue" gradientUnits="userSpaceOnUse" cx="220" cy="160" r="520">
      <stop offset="0" stop-color="#12A0D7" stop-opacity="0.35"/>
      <stop offset="1" stop-color="#12A0D7" stop-opacity="0"/>
    </radialGradient>
    <!-- frame clip so grain stops at paper edge -->
    <clipPath id="page"><rect x="0" y="0" width="1600" height="900"/></clipPath>
  </defs>

  <!-- paper -->
  <rect x="0" y="0" width="1600" height="900" fill="#F3E9D8"/>

  <!-- sky gradient washes (under the rough ink) -->
  <rect x="0" y="0" width="1600" height="540" fill="url(#skyGold)"/>
  <rect x="0" y="0" width="1600" height="540" fill="url(#skyBlue)"/>
  <!-- upper-left azzurro halftone wash, misregistered -->
  <g transform="translate(1.5,1.5)" opacity="0.55">
    <path d="M0,0 L760,0 L520,360 L0,360 Z" fill="url(#ht)" opacity="0.5"/>
  </g>

  <!-- ===== inked artwork (rough-edged) ===== -->
  <g filter="url(#rough)">

    <!-- ===== GULF: azzurro fill (misregistered) ===== -->
    <g transform="translate(1.5,1.5)">
      <rect x="0" y="540" width="1600" height="360" fill="#12A0D7"/>
      <!-- gold halftone closer to the sun column -->
      <rect x="900" y="540" width="500" height="360" fill="url(#htg)"/>
      <!-- gold sun column reflection in the water -->
      <path d="M1040,540 L1160,540 L1230,900 L970,900 Z" fill="url(#sunCol)"/>
      <!-- navy halftone ripples on the far side of the gulf (small horizontal bars) -->
      <rect x="0" y="556" width="900" height="80" fill="url(#htRipple)" opacity="0.85"/>
      <rect x="0" y="640" width="720" height="40" fill="url(#htRipple)" opacity="0.55"/>
      <rect x="1300" y="556" width="300" height="60" fill="url(#htRipple)" opacity="0.5"/>
    </g>

    <!-- horizon line: navy keyline on register -->
    <line x1="0" y1="540" x2="1600" y2="540" stroke="#003C82" stroke-width="2.5"/>

    <!-- ===== SUN ===== -->
    <!-- gold halftone wash around the sun -->
    <circle cx="1100" cy="580" r="200" fill="url(#htg)" opacity="0.9"/>
    <!-- sun disc (gold), slight misregister down-right like other azzurro? sun is gold so we offset it gently -->
    <g transform="translate(1.5,1.5)">
      <circle cx="1100" cy="580" r="140" fill="#C68A3E"/>
    </g>
    <!-- navy hairline around sun, on register -->
    <circle cx="1100" cy="580" r="140" fill="none" stroke="#003C82" stroke-width="2.5"/>

    <!-- ===== PALM TREE (navy silhouette on left edge) ===== -->
    <!-- trunk, leaning right toward the sun -->
    <path d="M150,900 C170,780 195,660 235,540 C245,500 255,470 270,440"
          stroke="#003C82" stroke-width="14" fill="none" stroke-linecap="round"/>
    <!-- trunk ring marks -->
    <g stroke="#003C82" stroke-width="2.5" fill="none" stroke-linecap="round">
      <path d="M168,820 q12,-4 24,0"/>
      <path d="M182,720 q12,-4 24,0"/>
      <path d="M204,620 q12,-4 26,0"/>
      <path d="M230,540 q12,-4 26,0"/>
    </g>
    <!-- fronds: 6 angular arcs from the crown around (270,440) -->
    <g fill="#003C82">
      <!-- frond 1: up-left -->
      <path d="M270,438 C220,408 168,400 110,420 C168,422 214,428 264,452 Z"/>
      <!-- frond 2: left -->
      <path d="M268,448 C210,468 156,486 96,492 C160,500 218,492 268,470 Z"/>
      <!-- frond 3: down-left -->
      <path d="M268,456 C218,498 176,536 138,572 C200,548 246,510 274,476 Z"/>
      <!-- frond 4: up -->
      <path d="M272,438 C268,388 270,330 286,278 C302,338 296,394 286,448 Z"/>
      <!-- frond 5: up-right -->
      <path d="M274,440 C320,410 372,398 432,408 C376,422 326,438 286,456 Z"/>
      <!-- frond 6: right (toward sun) -->
      <path d="M276,452 C334,460 396,470 450,492 C390,486 332,478 282,468 Z"/>
      <!-- frond 7: down-right short -->
      <path d="M278,460 C322,488 358,514 384,548 C336,524 298,496 278,476 Z"/>
    </g>
    <!-- coconut cluster -->
    <g fill="#003C82">
      <circle cx="276" cy="452" r="7"/>
      <circle cx="288" cy="458" r="6"/>
      <circle cx="266" cy="460" r="6"/>
    </g>
    <!-- halftone shadow on the right side of the palm (sun-opposite side... actually sun is right, so shadow falls left; but spec says halftone shadow on right side) -->
    <path d="M268,452 C320,460 380,470 432,490 C376,486 326,484 286,470 Z" fill="url(#ht)" opacity="0.7"/>
    <path d="M235,540 C246,560 252,600 246,640 C240,610 232,580 224,560 Z" fill="url(#ht)" opacity="0.55"/>

    <!-- ===== TV in lower right ===== -->
    <!-- beach blanket / small table under TV -->
    <g transform="translate(1.5,1.5)">
      <rect x="930" y="820" width="320" height="14" fill="#12A0D7"/>
    </g>
    <rect x="930" y="820" width="320" height="14" fill="none" stroke="#003C82" stroke-width="3"/>
    <!-- blanket stripes -->
    <g stroke="#003C82" stroke-width="2" opacity="0.7">
      <line x1="960" y1="822" x2="960" y2="832"/>
      <line x1="1000" y1="822" x2="1000" y2="832"/>
      <line x1="1040" y1="822" x2="1040" y2="832"/>
      <line x1="1080" y1="822" x2="1080" y2="832"/>
      <line x1="1120" y1="822" x2="1120" y2="832"/>
      <line x1="1160" y1="822" x2="1160" y2="832"/>
      <line x1="1200" y1="822" x2="1200" y2="832"/>
    </g>

    <!-- TV body (cream + navy keyline), the screen inside is azzurro misregistered -->
    <!-- antenna rabbit ears (drawn first so they go behind body's keyline at base) -->
    <g stroke="#003C82" stroke-width="3" fill="none" stroke-linecap="round">
      <line x1="1060" y1="700" x2="1020" y2="640"/>
      <line x1="1080" y1="700" x2="1130" y2="636"/>
      <circle cx="1018" cy="638" r="3" fill="#003C82"/>
      <circle cx="1132" cy="634" r="3" fill="#003C82"/>
      <!-- antenna base -->
      <rect x="1058" y="700" width="24" height="10" fill="#003C82" stroke="none"/>
    </g>

    <!-- TV cabinet outline (slight trapezoid, chunky) -->
    <path d="M940,710 L1240,710 L1250,820 L930,820 Z" fill="none" stroke="#003C82" stroke-width="5" stroke-linejoin="round"/>
    <!-- a thin inner cabinet line -->
    <path d="M952,720 L1228,720 L1236,810 L944,810 Z" fill="none" stroke="#003C82" stroke-width="1.5" opacity="0.7"/>

    <!-- TV screen: azzurro fill, misregistered -->
    <g transform="translate(1.5,1.5)">
      <path d="M980,732 Q1090,724 1200,732 L1208,798 Q1090,808 972,798 Z" fill="#12A0D7"/>
      <!-- green pitch stripe across bottom of screen -->
      <path d="M978,786 Q1090,793 1208,786 L1208,798 Q1090,808 972,798 Z" fill="#C68A3E" opacity="0.55"/>
    </g>
    <!-- screen keyline on register -->
    <path d="M980,732 Q1090,724 1200,732 L1208,798 Q1090,808 972,798 Z" fill="none" stroke="#003C82" stroke-width="3"/>
    <!-- tiny stick figures and ball on the pitch -->
    <g stroke="#003C82" stroke-width="1.6" fill="none" stroke-linecap="round">
      <!-- navy player (left) -->
      <circle cx="1050" cy="772" r="3" fill="#003C82"/>
      <line x1="1050" y1="775" x2="1050" y2="786"/>
      <line x1="1050" y1="779" x2="1046" y2="784"/>
      <line x1="1050" y1="779" x2="1054" y2="784"/>
      <line x1="1050" y1="786" x2="1047" y2="792"/>
      <line x1="1050" y1="786" x2="1053" y2="792"/>
    </g>
    <g stroke="#C68A3E" stroke-width="1.6" fill="none" stroke-linecap="round">
      <!-- gold player (right) -->
      <circle cx="1130" cy="772" r="3" fill="#C68A3E"/>
      <line x1="1130" y1="775" x2="1130" y2="786"/>
      <line x1="1130" y1="779" x2="1126" y2="784"/>
      <line x1="1130" y1="779" x2="1134" y2="784"/>
      <line x1="1130" y1="786" x2="1127" y2="792"/>
      <line x1="1130" y1="786" x2="1133" y2="792"/>
    </g>
    <!-- ball -->
    <circle cx="1088" cy="790" r="2.4" fill="#F3E9D8" stroke="#003C82" stroke-width="0.8"/>

    <!-- TV knobs on right side -->
    <circle cx="1218" cy="752" r="6" fill="#C68A3E" stroke="#003C82" stroke-width="2"/>
    <circle cx="1218" cy="776" r="6" fill="#C68A3E" stroke="#003C82" stroke-width="2"/>
    <!-- TV speaker grille -->
    <g stroke="#003C82" stroke-width="1.2" opacity="0.7">
      <line x1="1212" y1="790" x2="1226" y2="790"/>
      <line x1="1212" y1="794" x2="1226" y2="794"/>
      <line x1="1212" y1="798" x2="1226" y2="798"/>
    </g>

    <!-- halftone shading on the right side of the TV cabinet -->
    <path d="M1100,720 L1228,720 L1236,810 L1100,810 Z" fill="url(#ht)" opacity="0.6"/>

    <!-- ===== Frame: hand-stamped ink rectangle, inset 30px ===== -->
    <!-- gold rectangle offset by translate(2,2) -->
    <rect x="30" y="30" width="1540" height="840" fill="none" stroke="#C68A3E" stroke-width="1.6" transform="translate(2,2)"/>
    <!-- navy stroke on register -->
    <rect x="30" y="30" width="1540" height="840" fill="none" stroke="#003C82" stroke-width="4"/>
  </g>

  <!-- paper grain over everything -->
  <g clip-path="url(#page)"><rect x="0" y="0" width="1600" height="900" filter="url(#grain)" opacity="0.5"/></g>
</svg>
