<svg xmlns="http://www.w3.org/2000/svg" viewBox="0 0 1600 900" width="1600" height="900" role="img" aria-label="Cafe Azzurro - beach chair POV, gulf sunset with portable TV, heavy retro print">
  <title>Cafe Azzurro — Beach Chair POV</title>
  <defs>
    <!-- inky / hand-printed rough edges -->
    <filter id="rough" x="-15%" y="-15%" width="130%" height="130%">
      <feTurbulence type="fractalNoise" baseFrequency="0.013" numOctaves="2" seed="7" result="n"/>
      <feDisplacementMap in="SourceGraphic" in2="n" scale="5" xChannelSelector="R" yChannelSelector="G"/>
    </filter>
    <!-- paper grain -->
    <filter id="grain">
      <feTurbulence type="fractalNoise" baseFrequency="0.8" numOctaves="2" stitchTiles="stitch" result="g"/>
      <feColorMatrix in="g" type="matrix" values="0 0 0 0 0  0 0 0 0 0  0 0 0 0 0  0 0 0 0.4 0"/>
    </filter>
    <!-- navy halftone screen (the 'shaded' ink) -->
    <pattern id="ht" width="7" height="7" patternUnits="userSpaceOnUse" patternTransform="rotate(15)">
      <circle cx="2" cy="2" r="1.5" fill="#003C82" fill-opacity="0.55"/>
    </pattern>
    <!-- warm gold halftone wash -->
    <pattern id="htg" width="9" height="9" patternUnits="userSpaceOnUse" patternTransform="rotate(-10)">
      <circle cx="2.2" cy="2.2" r="1.3" fill="#C68A3E" fill-opacity="0.4"/>
    </pattern>
    <!-- sparser navy halftone for sand -->
    <pattern id="htsand" width="22" height="22" patternUnits="userSpaceOnUse" patternTransform="rotate(20)">
      <circle cx="2" cy="2" r="1.1" fill="#003C82" fill-opacity="0.45"/>
    </pattern>
    <!-- sun gradient fade in sky -->
    <linearGradient id="skyfade" gradientUnits="userSpaceOnUse" x1="0" y1="0" x2="0" y2="500">
      <stop offset="0" stop-color="#C68A3E" stop-opacity="0"/>
      <stop offset="0.55" stop-color="#C68A3E" stop-opacity="0.25"/>
      <stop offset="1" stop-color="#C68A3E" stop-opacity="0.7"/>
    </linearGradient>
    <linearGradient id="azzurrohint" gradientUnits="userSpaceOnUse" x1="1000" y1="120" x2="1600" y2="500">
      <stop offset="0" stop-color="#12A0D7" stop-opacity="0"/>
      <stop offset="1" stop-color="#12A0D7" stop-opacity="0.35"/>
    </linearGradient>
    <clipPath id="frameclip"><rect x="30" y="30" width="1540" height="840"/></clipPath>
  </defs>

  <!-- paper -->
  <rect x="0" y="0" width="1600" height="900" fill="#F3E9D8"/>

  <!-- ===== inked artwork (rough-edged) ===== -->
  <g filter="url(#rough)" clip-path="url(#frameclip)">

    <!-- ============ SKY ============ -->
    <!-- gold gradient wash fading down to horizon -->
    <rect x="0" y="0" width="1600" height="500" fill="url(#skyfade)"/>
    <!-- gold halftone reinforcing horizon glow -->
    <rect x="0" y="320" width="1600" height="180" fill="url(#htg)" opacity="0.85"/>
    <!-- a hint of azzurro to the right -->
    <rect x="900" y="0" width="700" height="500" fill="url(#azzurrohint)"/>

    <!-- ============ SUN ============ -->
    <!-- azzurro misregister disc layer -->
    <g transform="translate(1.5,1.5)">
      <circle cx="800" cy="520" r="120" fill="#C68A3E"/>
      <!-- halftone wash on right side -->
      <path d="M800,400 A120,120 0 0 1 800,640 Z" fill="url(#htg)"/>
    </g>
    <!-- navy keyline on register -->
    <circle cx="800" cy="520" r="120" fill="none" stroke="#003C82" stroke-width="4"/>

    <!-- ============ GULF ============ -->
    <!-- azzurro fill, misregistered -->
    <g transform="translate(1.5,1.5)">
      <rect x="0" y="500" width="1600" height="220" fill="#12A0D7"/>
      <!-- navy halftone ripples on far right -->
      <rect x="980" y="500" width="620" height="220" fill="url(#ht)"/>
      <!-- sun column reflection: vertical gold halftone band -->
      <rect x="740" y="500" width="120" height="220" fill="url(#htg)"/>
    </g>
    <!-- navy keyline horizon -->
    <line x1="0" y1="500" x2="1600" y2="500" stroke="#003C82" stroke-width="3"/>

    <!-- navy ripple linework on register, scattered -->
    <g fill="none" stroke="#003C82" stroke-width="2" stroke-linecap="round">
      <path d="M60,560 q20,-6 40,0 t40,0"/>
      <path d="M180,600 q24,-7 48,0 t48,0"/>
      <path d="M320,650 q20,-6 40,0 t40,0"/>
      <path d="M520,580 q18,-5 36,0 t36,0"/>
      <path d="M1080,560 q22,-7 44,0 t44,0"/>
      <path d="M1220,610 q22,-7 44,0 t44,0"/>
      <path d="M1360,660 q22,-7 44,0 t44,0"/>
      <path d="M1100,690 q22,-7 44,0 t44,0"/>
    </g>

    <!-- ============ SUN COLUMN HIGHLIGHT (extra gold band toward viewer) ============ -->
    <rect x="755" y="510" width="90" height="200" fill="#C68A3E" fill-opacity="0.18"/>

    <!-- ============ SEAGULLS (navy V silhouettes) ============ -->
    <g fill="none" stroke="#003C82" stroke-width="3" stroke-linecap="round">
      <path d="M380,250 q14,-14 28,0 q14,-14 28,0"/>
      <path d="M540,230 q12,-12 24,0 q12,-12 24,0"/>
      <path d="M720,270 q16,-16 32,0 q16,-16 32,0"/>
      <path d="M980,240 q12,-12 24,0 q12,-12 24,0"/>
    </g>

    <!-- ============ SAND STRIP ============ -->
    <!-- cream is paper; sparse navy halftone dots -->
    <rect x="0" y="720" width="1600" height="180" fill="#F3E9D8"/>
    <rect x="0" y="720" width="1600" height="180" fill="url(#htsand)" opacity="0.6"/>
    <!-- shoreline edge -->
    <path d="M0,724 q40,8 80,0 t80,0 t80,0 t80,0 t80,0 t80,0 t80,0 t80,0 t80,0 t80,0 t80,0 t80,0 t80,0 t80,0 t80,0 t80,0 t80,0 t80,0 t80,0 t80,0"
          fill="none" stroke="#003C82" stroke-width="2"/>

    <!-- ============ ADIRONDACK CHAIR ARM (lower-left foreground) ============ -->
    <!-- back of seat slats (angled, receding into scene) - brown wood -->
    <g transform="translate(1.5,1.5)">
      <!-- back panel (slats) -->
      <path d="M40,820 L40,540 L240,500 L240,780 Z" fill="#5A3A22"/>
      <!-- halftone shading right edge of back -->
      <path d="M180,510 L240,500 L240,780 L180,790 Z" fill="url(#ht)"/>
    </g>
    <!-- navy keyline for back -->
    <path d="M40,820 L40,540 L240,500 L240,780 Z" fill="none" stroke="#003C82" stroke-width="5" stroke-linejoin="round"/>
    <!-- slat dividers (brown wood grain) -->
    <g stroke="#5A3A22" stroke-width="3" fill="none">
      <line x1="80" y1="544" x2="80" y2="816"/>
      <line x1="120" y1="536" x2="120" y2="808"/>
      <line x1="160" y1="528" x2="160" y2="800"/>
      <line x1="200" y1="520" x2="200" y2="792"/>
    </g>
    <!-- additional navy ink lines over slats for definition -->
    <g stroke="#003C82" stroke-width="1.5" fill="none" opacity="0.7">
      <line x1="80" y1="544" x2="80" y2="816"/>
      <line x1="120" y1="536" x2="120" y2="808"/>
      <line x1="160" y1="528" x2="160" y2="800"/>
      <line x1="200" y1="520" x2="200" y2="792"/>
    </g>

    <!-- armrest (thick navy outlined wood plank) -->
    <g transform="translate(1.5,1.5)">
      <path d="M0,680 L260,640 L380,660 L380,720 L260,700 L0,740 Z" fill="#5A3A22"/>
      <!-- halftone shade on armrest right edge -->
      <path d="M260,640 L380,660 L380,720 L260,700 Z" fill="url(#ht)"/>
    </g>
    <path d="M0,680 L260,640 L380,660 L380,720 L260,700 L0,740 Z" fill="none" stroke="#003C82" stroke-width="5" stroke-linejoin="round"/>
    <!-- wood grain on armrest -->
    <g stroke="#003C82" stroke-width="1.2" fill="none" opacity="0.6">
      <path d="M20,700 q80,-8 160,-18 t180,-20"/>
      <path d="M20,718 q80,-8 160,-18 t180,-20"/>
    </g>

    <!-- ============ SODA BOTTLE on armrest ============ -->
    <!-- azzurro glass bottle, misregistered -->
    <g transform="translate(1.5,1.5)">
      <!-- bottle body -->
      <path d="M270,560 L270,620 Q260,628 260,640 L260,690 L300,690 L300,640 Q300,628 290,620 L290,560 Z" fill="#12A0D7"/>
      <!-- bottle cap -->
      <rect x="268" y="546" width="24" height="16" fill="#C68A3E"/>
      <!-- halftone shading right side of bottle -->
      <path d="M280,560 L290,560 L290,620 Q300,628 300,640 L300,690 L280,690 Z" fill="url(#ht)"/>
    </g>
    <!-- navy keyline on bottle -->
    <path d="M270,560 L270,620 Q260,628 260,640 L260,690 L300,690 L300,640 Q300,628 290,620 L290,560 Z" fill="none" stroke="#003C82" stroke-width="3" stroke-linejoin="round"/>
    <rect x="268" y="546" width="24" height="16" fill="none" stroke="#003C82" stroke-width="2"/>
    <!-- label band -->
    <rect x="262" y="640" width="40" height="22" fill="#F3E9D8" stroke="#003C82" stroke-width="2"/>

    <!-- condensation droplets (tiny gold halftone dots) -->
    <g fill="#C68A3E" opacity="0.85">
      <circle cx="256" cy="600" r="2.2"/>
      <circle cx="252" cy="620" r="1.8"/>
      <circle cx="258" cy="650" r="2"/>
      <circle cx="304" cy="595" r="2"/>
      <circle cx="306" cy="625" r="2.3"/>
      <circle cx="302" cy="660" r="1.8"/>
      <circle cx="248" cy="675" r="1.6"/>
      <circle cx="310" cy="678" r="1.6"/>
      <circle cx="266" cy="582" r="1.6"/>
      <circle cx="294" cy="582" r="1.6"/>
    </g>

    <!-- ============ COOLER (icebox) lower-right ============ -->
    <!-- white box, navy keyline -->
    <g transform="translate(1.5,1.5)">
      <rect x="1180" y="640" width="380" height="220" fill="#F3E9D8"/>
      <!-- halftone right side -->
      <rect x="1420" y="640" width="140" height="220" fill="url(#ht)"/>
      <!-- gold halftone ribbed slats suggesting Yeti exterior -->
      <rect x="1180" y="660" width="380" height="14" fill="url(#htg)"/>
      <rect x="1180" y="690" width="380" height="14" fill="url(#htg)"/>
      <rect x="1180" y="720" width="380" height="14" fill="url(#htg)"/>
      <rect x="1180" y="750" width="380" height="14" fill="url(#htg)"/>
      <rect x="1180" y="780" width="380" height="14" fill="url(#htg)"/>
      <rect x="1180" y="810" width="380" height="14" fill="url(#htg)"/>
      <rect x="1180" y="840" width="380" height="14" fill="url(#htg)"/>
    </g>
    <rect x="1180" y="640" width="380" height="220" fill="none" stroke="#003C82" stroke-width="5"/>
    <!-- lid line -->
    <line x1="1180" y1="662" x2="1560" y2="662" stroke="#003C82" stroke-width="3"/>
    <!-- ribbed slat keylines (navy) -->
    <g stroke="#003C82" stroke-width="1.5" opacity="0.55">
      <line x1="1180" y1="690" x2="1560" y2="690"/>
      <line x1="1180" y1="720" x2="1560" y2="720"/>
      <line x1="1180" y1="750" x2="1560" y2="750"/>
      <line x1="1180" y1="780" x2="1560" y2="780"/>
      <line x1="1180" y1="810" x2="1560" y2="810"/>
      <line x1="1180" y1="840" x2="1560" y2="840"/>
    </g>
    <!-- latch on cooler -->
    <rect x="1350" y="650" width="40" height="18" fill="#C68A3E" stroke="#003C82" stroke-width="2"/>

    <!-- ============ TV (CRT) on top of cooler ============ -->
    <!-- antenna -->
    <g stroke="#003C82" stroke-width="4" stroke-linecap="round" fill="none">
      <line x1="1290" y1="400" x2="1250" y2="330"/>
      <line x1="1310" y1="400" x2="1370" y2="320"/>
      <circle cx="1250" cy="330" r="4" fill="#003C82"/>
      <circle cx="1370" cy="320" r="4" fill="#003C82"/>
    </g>

    <!-- TV body misregistered azzurro -->
    <g transform="translate(1.5,1.5)">
      <rect x="1240" y="400" width="280" height="240" rx="14" fill="#12A0D7"/>
      <!-- halftone shading right side of TV body -->
      <rect x="1410" y="400" width="110" height="240" rx="0" fill="url(#ht)"/>
    </g>
    <!-- navy TV body keyline -->
    <rect x="1240" y="400" width="280" height="240" rx="14" fill="none" stroke="#003C82" stroke-width="5"/>

    <!-- screen bezel (cream paper-colored inset) -->
    <rect x="1260" y="420" width="220" height="160" rx="10" fill="#F3E9D8" stroke="#003C82" stroke-width="3"/>

    <!-- screen contents: green pitch -->
    <rect x="1268" y="428" width="204" height="144" rx="6" fill="#12A0D7" opacity="0.25"/>
    <!-- pitch (slight green via gold+azzurro feel - using azzurro tinted) -->
    <rect x="1268" y="428" width="204" height="144" rx="6" fill="#C68A3E" fill-opacity="0.15"/>
    <!-- pitch center line -->
    <line x1="1370" y1="428" x2="1370" y2="572" stroke="#003C82" stroke-width="1.5" opacity="0.7"/>
    <circle cx="1370" cy="500" r="14" fill="none" stroke="#003C82" stroke-width="1.5" opacity="0.7"/>
    <!-- halftone shading right side of pitch -->
    <rect x="1370" y="428" width="102" height="144" fill="url(#ht)" opacity="0.7"/>

    <!-- two tiny stick figures -->
    <!-- azzurro player (left) -->
    <g stroke="#12A0D7" stroke-width="2.5" stroke-linecap="round" fill="none">
      <circle cx="1310" cy="488" r="4" fill="#12A0D7"/>
      <line x1="1310" y1="492" x2="1310" y2="510"/>
      <line x1="1310" y1="498" x2="1304" y2="506"/>
      <line x1="1310" y1="498" x2="1316" y2="506"/>
      <line x1="1310" y1="510" x2="1305" y2="520"/>
      <line x1="1310" y1="510" x2="1316" y2="520"/>
    </g>
    <!-- gold player (right) -->
    <g stroke="#C68A3E" stroke-width="2.5" stroke-linecap="round" fill="none">
      <circle cx="1430" cy="520" r="4" fill="#C68A3E"/>
      <line x1="1430" y1="524" x2="1430" y2="542"/>
      <line x1="1430" y1="530" x2="1424" y2="538"/>
      <line x1="1430" y1="530" x2="1436" y2="538"/>
      <line x1="1430" y1="542" x2="1425" y2="552"/>
      <line x1="1430" y1="542" x2="1436" y2="552"/>
    </g>
    <!-- white ball -->
    <circle cx="1360" cy="530" r="3.5" fill="#F3E9D8" stroke="#003C82" stroke-width="1.2"/>

    <!-- TV knobs/controls on right side -->
    <circle cx="1500" cy="450" r="8" fill="#C68A3E" stroke="#003C82" stroke-width="2"/>
    <circle cx="1500" cy="480" r="8" fill="#C68A3E" stroke="#003C82" stroke-width="2"/>
    <rect x="1490" y="510" width="20" height="60" fill="url(#ht)" stroke="#003C82" stroke-width="1.5"/>

    <!-- TV little speaker grill bottom -->
    <g stroke="#003C82" stroke-width="1.2" opacity="0.7">
      <line x1="1260" y1="600" x2="1480" y2="600"/>
      <line x1="1260" y1="612" x2="1480" y2="612"/>
      <line x1="1260" y1="624" x2="1480" y2="624"/>
    </g>

    <!-- screen glare diagonal -->
    <path d="M1280,440 L1320,440 L1300,470 L1268,470 Z" fill="#F3E9D8" opacity="0.4"/>

  </g>

  <!-- ============ Loose hand-stamped ink frame inset ~30px ============ -->
  <g filter="url(#rough)">
    <rect x="30" y="30" width="1540" height="840" fill="none" stroke="#003C82" stroke-width="5"/>
    <rect x="30" y="30" width="1540" height="840" fill="none" stroke="#C68A3E" stroke-width="1.5" transform="translate(2,2)"/>
  </g>

  <!-- paper grain over everything -->
  <rect x="0" y="0" width="1600" height="900" filter="url(#grain)" opacity="0.5"/>
</svg>
