<svg xmlns="http://www.w3.org/2000/svg" viewBox="0 0 400 400" width="400" height="400" role="img" aria-label="Cafe Azzurro favicon">
  <!-- clean, no texture: survives at 16-32px -->
  <circle cx="200" cy="200" r="172" fill="#F3E9D8"/>
  <circle cx="200" cy="200" r="158" fill="none" stroke="#003C82" stroke-width="6"/>

  <!-- steam (simple) -->
  <g fill="none" stroke="#003C82" stroke-width="5" stroke-linecap="round" opacity="0.8">
    <path d="M190,104 C184,92 196,86 190,74"/>
    <path d="M210,106 C204,94 216,88 210,76"/>
  </g>
  <!-- handle -->
  <path d="M156,176 L118,190 L118,222 L156,236 Z" fill="#5A3A22"/>
  <path d="M156,176 L118,190 L118,222 L156,236 Z" fill="none" stroke="#003C82" stroke-width="3" stroke-linejoin="round"/>
  <!-- spout -->
  <path d="M238,160 L276,154 L246,180 Z" fill="#12A0D7"/>
  <path d="M238,160 L276,154 L246,180 Z" fill="none" stroke="#003C82" stroke-width="3" stroke-linejoin="round"/>
  <!-- top chamber -->
  <path d="M190,154 L158,154 L168,206 L190,206 Z" fill="#12A0D7"/>
  <path d="M190,154 L242,154 L232,206 L190,206 Z" fill="#0C6E96"/>
  <path d="M158,154 L242,154 L232,206 L168,206 Z" fill="none" stroke="#003C82" stroke-width="4" stroke-linejoin="round"/>
  <!-- lid + knob -->
  <path d="M178,154 L222,154 L216,138 L184,138 Z" fill="#003C82"/>
  <circle cx="200" cy="128" r="11" fill="#C68A3E"/>
  <circle cx="200" cy="128" r="11" fill="none" stroke="#003C82" stroke-width="3"/>
  <!-- waist -->
  <rect x="166" y="204" width="68" height="10" fill="#003C82"/>
  <!-- bottom chamber -->
  <path d="M192,214 L166,214 L140,294 L192,294 Z" fill="#12A0D7"/>
  <path d="M192,214 L234,214 L260,294 L192,294 Z" fill="#0C6E96"/>
  <path d="M166,214 L234,214 L260,294 L140,294 Z" fill="none" stroke="#003C82" stroke-width="4" stroke-linejoin="round"/>
  <!-- base -->
  <rect x="146" y="294" width="108" height="12" fill="#003C82"/>
</svg>
