<svg xmlns="http://www.w3.org/2000/svg" width="316.228" height="316.228" viewBox="0 0 1257 1257"><path fill="#151515" fill-rule="evenodd" d="M645.61 0Q668 1.03 674.24 1.5 821.5 12.55 947.46 86.86c96.61 56.99 176.8 139.34 230.93 237.24q62.12 112.36 75.17 240.39c12.63 123.84-11.55 247.93-69.48 357.61-74.47 141-201.67 249.86-352.63 301.18-108.19 36.78-225.06 43.46-336.85 19.25-131.82-28.55-251.75-99.66-340.42-201.7Q60.63 933.19 22.21 795.02 5.02 733.17 1.13 666.24.54 656.06 0 645.87v-35.61q.36-3.56.51-7.22 3.81-95.91 35.27-184.77c36.01-101.73 98.59-193.26 179.71-263.79q91.24-79.33 203.74-119.04Q511.07 3.03 610.27 0zm560.34 628.35A577.62 577.62 0 0 0 628.33 50.73 577.62 577.62 0 0 0 50.71 628.35a577.62 577.62 0 0 0 577.62 577.62 577.62 577.62 0 0 0 577.62-577.62"/><path fill="#fff" fill-rule="evenodd" d="M1205.95 628.35a577.62 577.62 0 0 1-577.62 577.62A577.62 577.62 0 0 1 50.71 628.35 577.62 577.62 0 0 1 628.33 50.73a577.62 577.62 0 0 1 577.62 577.62m-147.41-302.71q-16.19-23.1-35.74-45.19c-37.14-41.95-81.09-78.31-129.63-106.74q-34.74-20.34-73.5-35.07c-76.83-29.2-162.05-41.98-243.34-34.26C447.3 116.63 328.99 176.3 241.25 271.5c-86.43 93.77-136.66 217.89-139.17 346.25q-2.16 110.46 39.7 212.47 31.03 75.63 84.9 139.69c12.46 14.82 26.9 27.95 40.65 42.09q11.22 11.54 23.52 21.78c67.95 56.51 148.84 95.29 235.22 111.35 94.76 17.61 191.62 10.62 282.07-22.24q98.97-35.95 178.53-109.47 15.02-13.87 25.36-24.66 21.7-22.64 38.56-46.75a.474.474 10.986 0 0-.24-.72q-21.03-7.15-42.71-1.22-25.87 7.09-45.05 26.08-42.81 42.36-94.09 72.3-116.57 68.08-251.51 65.21-17.14-.36-28.66-1.79-7.84-.98-15.03-6.14-3.42-2.45-9.12-10.75-26.15-38.01-58.58-80.31-12.21-15.94-25.31-30.7c-21.83-24.57-46.8-45.13-76.38-59.54q-12.21-5.95-29-10.84-28.87-8.4-57.59-14.21c-22.23-4.5-43.67-9.51-64.03-17.91-10.94-4.52-23.14-11.59-29.15-21.24-11.86-19.03 3.15-36.52 8.09-59.95q1.85-8.8.47-17.39c-1.1-6.79-5.2-13.8-7.82-19.26-2.6-5.41-4.81-12.36-.2-17.18a3.305 3.101-80.52 0 1 .76-.58c2.96-1.68 6.71-2.96 8.16-6.36a2.649 2.644-47.551 0 0-.1-2.29q-2.92-5.43-5.84-10.08c-4.19-6.67-5.88-11.73-4.81-18.77 2.39-15.79 19.38-24.46 20.16-40.89.5-10.53-8.63-18.62-16.79-27.85-7.72-8.73-10.66-18.62-6.12-29.56 4.22-10.21 13.74-19.87 21.95-26.78q19.42-16.31 21.43-18.05 6.43-5.57 26.3-25.71 10.75-10.89 19.49-22.27c12.82-16.7 18.65-35.61 27.55-58.94q7.6-19.93 19.14-36.36 11.39-16.22 18.47-23.83c13.04-14.02 29.3-26.37 40.55-41.64q7.06-9.59 9.82-20.69 1.64-6.63 3.33-14.41c1.96-9.05 7.38-17.69 13.58-26.01 27.65-37.07 71.99-56.91 117.3-59.07 32.76-1.57 65.53 3.92 97.11 13.1 44.06 12.81 86.69 31.17 128.34 51.38 48.96 23.76 97.96 47.34 151.11 57.62 13.24 2.56 24.84 4 37.19 2.89q17.61-1.58 35.66-6.92 24.68-7.29 50.04-18.43a.209.203 60.307 0 0 .08-.31m-583.75 12.99q6.49-.74 12.74-1.54c49.19-6.27 99.62-4 147.37 8.79 54.56 14.6 105.02 40.14 155.5 66.25q20.36 10.53 31.07 15.15 17.68 7.62 32.18 12.54 32.93 11.16 68.07 13.95c9.14.72 18.81.59 28.15.28q42.28-1.42 81.05-20.37 4.93-2.4 14.83-8.93c13.15-8.67 23.84-15.51 33.95-25.04q2.76-2.61 4.26-5.63a2.303 2.303-61.065 0 0-.86-2.99q-1.34-.81-3.84-.76c-7.64.17-16.22 2.55-23.71 4.8q-5.12 1.53-13.17 3.43-15.56 3.68-25.89 5.91-26.33 5.68-51.96 6.88c-34.69 1.62-69.7-9.81-101.72-22.66q-23.46-9.41-46.61-20.4-28.69-13.62-80.13-37.84-38.26-18.03-74.91-30.57c-30.25-10.36-62.72-17.42-94.38-15.05-38.57 2.9-69.83 22.25-92.21 53.44a.235.229 14.336 0 0 .22.36m35.96 115.92q9.17-1.24 19.12-2.03 6.46-.51 19.25 0 17.34.68 21.14 1 25.04 2.13 46.66 6.84c44.88 9.78 88.09 26.6 132.81 45.41q10.45 4.4 22.74 10.67 21.03 10.75 46.67 20.9c45.22 17.91 93.21 30.15 141.33 30.59q33.32.31 62.87-8.88 55-17.1 85.5-68.24c1.36-2.27 2.81-4.51 3.33-7.06 1-4.86-4.28-5.93-7.63-4.25q-12.16 6.12-19.14 9.38-27.05 12.64-53.46 19.53-40.14 10.48-82.69 7.88-14.23-.87-23.52-2.75c-36.66-7.41-73.57-20.94-108.63-36.91-17.36-7.92-36.57-18.11-53.2-26.27-31.4-15.38-64.71-29.24-98.5-37.74-21.78-5.47-44.81-8.37-67.09-6.5q-54.82 4.58-87.97 47.73a.44.438 14.767 0 0 .41.7m44.98 96.78q.05.07.32.14c39.6 10.58 64.28 16.66 95.16 27.32q.29.1 35.61 12.65c30.49 10.84 55.29 21.75 93.85 38.16 31.76 13.51 64.87 26.42 98.36 34.82q40.39 10.12 79.97 10.25 31.07.09 59.84-7.36 22.2-5.74 37.75-13.52 27.29-13.65 52.08-36.38c10.24-9.39 21.55-21.55 27.38-33.33q.91-1.84.32-3.39a2.425 2.314-10.492 0 0-2.28-1.49q-2.68.05-4.71 1.19-25.13 14.1-49.01 23.22-67.34 25.74-138.37 19.09c-41.35-3.88-80.91-15.34-119.64-30.81-21.68-8.66-45.16-19.27-68.02-27.86q-3.38-1.27-27.32-9.06-29.41-9.59-35.24-11.2-24.4-6.73-50.78-9.48-45.08-4.69-85.13 16.32a.476.471 56.282 0 0-.14.72m37.97 91.91c29.11 9.98 57.15 23.74 84.19 39.65q13.36 7.86 23.52 13.28c57.27 30.55 115.24 59.06 177.38 75.27 30.98 8.07 62.14 12.25 93.45 10.53q52.07-2.87 94.44-29.84c23.52-14.96 43.47-35.03 60.61-58.09 3.84-5.17 9.34-12.19 10.75-18.81a1.619 1.617-81.288 0 0-1.43-1.95q-2.42-.24-4.95 1.11c-32.97 17.62-61.99 32.83-94.69 43.81q-16.49 5.53-36.38 9.41c-24.49 4.78-49.18 5.37-72.98 2.29-68.88-8.89-133.53-41.17-198.48-65.33-33.26-12.36-63.38-21.67-96.37-25.38-12.79-1.44-26.92-2.34-39.09 3.42a.341.34 42.344 0 0 .03.63m60.75 103.25a.357.357-6.475 0 0-.43.54c19.05 26.13 44.08 48.38 71.35 65.85 59.19 37.91 128.78 63.42 199.15 68.29q14.08.98 30.19.22c22.19-1.04 44.35-4.85 64.57-12.31q64.06-23.63 95.01-87.2a1.166 1.166 86.542 0 0-1.68-1.49c-28.37 18.32-57.61 34.58-90.24 42.73q-26.84 6.71-50.38 8.06-14.22.82-20.49.76-22.13-.22-44.14-3.36-39.53-5.65-81.89-17.82c-57.53-16.53-114.67-39.68-171.02-64.27"/><path fill="#0d68b1" fill-rule="evenodd" d="M1058.54 325.64a.209.203 60.307 0 1-.08.31q-25.36 11.14-50.04 18.43-18.05 5.34-35.66 6.92c-12.35 1.11-23.95-.33-37.19-2.89-53.15-10.28-102.15-33.86-151.11-57.62-41.65-20.21-84.28-38.57-128.34-51.38-31.58-9.18-64.35-14.67-97.11-13.1-45.31 2.16-89.65 22-117.3 59.07-6.2 8.32-11.62 16.96-13.58 26.01q-1.69 7.78-3.33 14.41-2.76 11.1-9.82 20.69c-11.25 15.27-27.51 27.62-40.55 41.64q-7.08 7.61-18.47 23.83-11.54 16.43-19.14 36.36c-8.9 23.33-14.73 42.24-27.55 58.94q-8.74 11.38-19.49 22.27-19.87 20.14-26.3 25.71-2.01 1.74-21.43 18.05c-8.21 6.91-17.73 16.57-21.95 26.78-4.54 10.94-1.6 20.83 6.12 29.56 8.16 9.23 17.29 17.32 16.79 27.85-.78 16.43-17.77 25.1-20.16 40.89-1.07 7.04.62 12.1 4.81 18.77q2.92 4.65 5.84 10.08a2.649 2.644-47.551 0 1 .1 2.29c-1.45 3.4-5.2 4.68-8.16 6.36a3.305 3.101-80.52 0 0-.76.58c-4.61 4.82-2.4 11.77.2 17.18 2.62 5.46 6.72 12.47 7.82 19.26q1.38 8.59-.47 17.39c-4.94 23.43-19.95 40.92-8.09 59.95 6.01 9.65 18.21 16.72 29.15 21.24 20.36 8.4 41.8 13.41 64.03 17.91q28.72 5.81 57.59 14.21 16.79 4.89 29 10.84c29.58 14.41 54.55 34.97 76.38 59.54q13.1 14.76 25.31 30.7 32.43 42.3 58.58 80.31 5.7 8.3 9.12 10.75 7.19 5.16 15.03 6.14 11.52 1.43 28.66 1.79 134.94 2.87 251.51-65.21 51.28-29.94 94.09-72.3 19.18-18.99 45.05-26.08 21.68-5.93 42.71 1.22a.474.474 51.283 0 1 .24.72q-16.86 24.11-38.56 46.75-10.34 10.79-25.36 24.66-79.56 73.52-178.53 109.47c-90.45 32.86-187.31 39.85-282.07 22.24-86.38-16.06-167.27-54.84-235.22-111.35q-12.3-10.24-23.52-21.78c-13.75-14.14-28.19-27.27-40.65-42.09q-53.87-64.06-84.9-139.69-41.86-102.01-39.7-212.47c2.51-128.36 52.74-252.48 139.17-346.25 87.74-95.2 206.05-154.87 335.08-167.12 81.29-7.72 166.51 5.06 243.34 34.26q38.76 14.73 73.5 35.07c48.54 28.43 92.49 64.79 129.63 106.74q19.55 22.09 35.74 45.19"/><path fill="#151515" fill-rule="evenodd" d="M474.79 338.63a.235.229 14.336 0 1-.22-.36c22.38-31.19 53.64-50.54 92.21-53.44 31.66-2.37 64.13 4.69 94.38 15.05q36.65 12.54 74.91 30.57 51.44 24.22 80.13 37.84 23.15 10.99 46.61 20.4c32.02 12.85 67.03 24.28 101.72 22.66q25.63-1.2 51.96-6.88 10.33-2.23 25.89-5.91 8.05-1.9 13.17-3.43c7.49-2.25 16.07-4.63 23.71-4.8q2.5-.05 3.84.76a2.303 2.303-61.065 0 1 .86 2.99q-1.5 3.02-4.26 5.63c-10.11 9.53-20.8 16.37-33.95 25.04q-9.9 6.53-14.83 8.93-38.77 18.95-81.05 20.37c-9.34.31-19.01.44-28.15-.28q-35.14-2.79-68.07-13.95-14.5-4.92-32.18-12.54-10.71-4.62-31.07-15.15c-50.48-26.11-100.94-51.65-155.5-66.25-47.75-12.79-98.18-15.06-147.37-8.79q-6.25.8-12.74 1.54"/><path fill="#151515" fill-rule="evenodd" d="M510.75 454.55a.44.438 14.767 0 1-.41-.7q33.15-43.15 87.97-47.73c22.28-1.87 45.31 1.03 67.09 6.5 33.79 8.5 67.1 22.36 98.5 37.74 16.63 8.16 35.84 18.35 53.2 26.27 35.06 15.97 71.97 29.5 108.63 36.91q9.29 1.88 23.52 2.75 42.55 2.6 82.69-7.88 26.41-6.89 53.46-19.53 6.98-3.26 19.14-9.38c3.35-1.68 8.63-.61 7.63 4.25-.52 2.55-1.97 4.79-3.33 7.06q-30.5 51.14-85.5 68.24-29.55 9.19-62.87 8.88c-48.12-.44-96.11-12.68-141.33-30.59q-25.64-10.15-46.67-20.9-12.29-6.27-22.74-10.67c-44.72-18.81-87.93-35.63-132.81-45.41q-21.62-4.71-46.66-6.84-3.8-.32-21.14-1-12.79-.51-19.25 0-9.95.79-19.12 2.03"/><path fill="#151515" fill-rule="evenodd" d="M555.73 551.33a.476.471 56.282 0 1 .14-.72q40.05-21.01 85.13-16.32 26.38 2.75 50.78 9.48 5.83 1.61 35.24 11.2 23.94 7.79 27.32 9.06c22.86 8.59 46.34 19.2 68.02 27.86 38.73 15.47 78.29 26.93 119.64 30.81q71.03 6.65 138.37-19.09 23.88-9.12 49.01-23.22 2.03-1.14 4.71-1.19a2.425 2.314-10.492 0 1 2.28 1.49q.59 1.55-.32 3.39c-5.83 11.78-17.14 23.94-27.38 33.33q-24.79 22.73-52.08 36.38-15.55 7.78-37.75 13.52-28.77 7.45-59.84 7.36-39.58-.13-79.97-10.25c-33.49-8.4-66.6-21.31-98.36-34.82-38.56-16.41-63.36-27.32-93.85-38.16q-35.32-12.55-35.61-12.65c-30.88-10.66-55.56-16.74-95.16-27.32q-.27-.07-.32-.14"/><path fill="#151515" fill-rule="evenodd" d="M593.7 643.24a.341.34 42.344 0 1-.03-.63c12.17-5.76 26.3-4.86 39.09-3.42 32.99 3.71 63.11 13.02 96.37 25.38 64.95 24.16 129.6 56.44 198.48 65.33 23.8 3.08 48.49 2.49 72.98-2.29q19.89-3.88 36.38-9.41c32.7-10.98 61.72-26.19 94.69-43.81q2.53-1.35 4.95-1.11a1.619 1.617-81.288 0 1 1.43 1.95c-1.41 6.62-6.91 13.64-10.75 18.81-17.14 23.06-37.09 43.13-60.61 58.09q-42.37 26.97-94.44 29.84c-31.31 1.72-62.47-2.46-93.45-10.53-62.14-16.21-120.11-44.72-177.38-75.27q-10.16-5.42-23.52-13.28c-27.04-15.91-55.08-29.67-84.19-39.65"/><path fill="#151515" fill-rule="evenodd" d="M654.45 746.49c56.35 24.59 113.49 47.74 171.02 64.27q42.36 12.17 81.89 17.82 22.01 3.14 44.14 3.36 6.27.06 20.49-.76 23.54-1.35 50.38-8.06c32.63-8.15 61.87-24.41 90.24-42.73a1.166 1.166 86.542 0 1 1.68 1.49q-30.95 63.57-95.01 87.2c-20.22 7.46-42.38 11.27-64.57 12.31q-16.11.76-30.19-.22c-70.37-4.87-139.96-30.38-199.15-68.29-27.27-17.47-52.3-39.72-71.35-65.85a.357.357-6.475 0 1 .43-.54"/></svg>