<svg xmlns="http://www.w3.org/2000/svg" width="316.22776601683796" height="316.2277660168379" viewBox="0 0 1257 1257"><!-- Source: https://football-logos.cc -->

<path fill="#151515" fill-rule="evenodd" d="M 645.610 0.000 Q 668.000 1.030 674.240 1.500 Q 821.500 12.550 947.460 86.860 C 1044.070 143.850 1124.260 226.200 1178.390 324.100 Q 1240.510 436.460 1253.560 564.490 C 1266.190 688.330 1242.010 812.420 1184.080 922.100 C 1109.610 1063.100 982.410 1171.960 831.450 1223.280 C 723.260 1260.060 606.390 1266.740 494.600 1242.530 C 362.780 1213.980 242.850 1142.870 154.180 1040.830 Q 60.630 933.190 22.210 795.020 Q 5.020 733.170 1.130 666.240 Q 0.540 656.060 0.000 645.870 L 0.000 610.260 Q 0.360 606.700 0.510 603.040 Q 4.320 507.130 35.780 418.270 C 71.790 316.540 134.370 225.010 215.490 154.480 Q 306.730 75.150 419.230 35.440 Q 511.070 3.030 610.270 0.000 L 645.610 0.000 Z M 1205.950 628.350 A 577.620 577.620 0.000 0 0 628.330 50.730 A 577.620 577.620 0.000 0 0 50.710 628.350 A 577.620 577.620 0.000 0 0 628.330 1205.970 A 577.620 577.620 0.000 0 0 1205.950 628.350 Z"/>
<path fill="#ffffff" fill-rule="evenodd" d="M 1205.950 628.350 A 577.620 577.620 0.000 0 1 628.330 1205.970 A 577.620 577.620 0.000 0 1 50.710 628.350 A 577.620 577.620 0.000 0 1 628.330 50.730 A 577.620 577.620 0.000 0 1 1205.950 628.350 Z M 1058.540 325.640 Q 1042.350 302.540 1022.800 280.450 C 985.660 238.500 941.710 202.140 893.170 173.710 Q 858.430 153.370 819.670 138.640 C 742.840 109.440 657.620 96.660 576.330 104.380 C 447.300 116.630 328.990 176.300 241.250 271.500 C 154.820 365.270 104.590 489.390 102.080 617.750 Q 99.920 728.210 141.780 830.220 Q 172.810 905.850 226.680 969.910 C 239.140 984.730 253.580 997.860 267.330 1012.000 Q 278.550 1023.540 290.850 1033.780 C 358.800 1090.290 439.690 1129.070 526.070 1145.130 C 620.830 1162.740 717.690 1155.750 808.140 1122.890 Q 907.110 1086.940 986.670 1013.420 Q 1001.690 999.550 1012.030 988.760 Q 1033.730 966.120 1050.590 942.010 A 0.474 0.474 10.986 0 0 1050.350 941.290 Q 1029.320 934.140 1007.640 940.070 Q 981.770 947.160 962.590 966.150 Q 919.780 1008.510 868.500 1038.450 Q 751.930 1106.530 616.990 1103.660 Q 599.850 1103.300 588.330 1101.870 Q 580.490 1100.890 573.300 1095.730 Q 569.880 1093.280 564.180 1084.980 Q 538.030 1046.970 505.600 1004.670 Q 493.390 988.730 480.290 973.970 C 458.460 949.400 433.490 928.840 403.910 914.430 Q 391.700 908.480 374.910 903.590 Q 346.040 895.190 317.320 889.380 C 295.090 884.880 273.650 879.870 253.290 871.470 C 242.350 866.950 230.150 859.880 224.140 850.230 C 212.280 831.200 227.290 813.710 232.230 790.280 Q 234.080 781.480 232.700 772.890 C 231.600 766.100 227.500 759.090 224.880 753.630 C 222.280 748.220 220.070 741.270 224.680 736.450 A 3.305 3.101 -80.520 0 1 225.440 735.870 C 228.400 734.190 232.150 732.910 233.600 729.510 A 2.649 2.644 -47.551 0 0 233.500 727.220 Q 230.580 721.790 227.660 717.140 C 223.470 710.470 221.780 705.410 222.850 698.370 C 225.240 682.580 242.230 673.910 243.010 657.480 C 243.510 646.950 234.380 638.860 226.220 629.630 C 218.500 620.900 215.560 611.010 220.100 600.070 C 224.320 589.860 233.840 580.200 242.050 573.290 Q 261.470 556.980 263.480 555.240 Q 269.910 549.670 289.780 529.530 Q 300.530 518.640 309.270 507.260 C 322.090 490.560 327.920 471.650 336.820 448.320 Q 344.420 428.390 355.960 411.960 Q 367.350 395.740 374.430 388.130 C 387.470 374.110 403.730 361.760 414.980 346.490 Q 422.040 336.900 424.800 325.800 Q 426.440 319.170 428.130 311.390 C 430.090 302.340 435.510 293.700 441.710 285.380 C 469.360 248.310 513.700 228.470 559.010 226.310 C 591.770 224.740 624.540 230.230 656.120 239.410 C 700.180 252.220 742.810 270.580 784.460 290.790 C 833.420 314.550 882.420 338.130 935.570 348.410 C 948.810 350.970 960.410 352.410 972.760 351.300 Q 990.370 349.720 1008.420 344.380 Q 1033.100 337.090 1058.460 325.950 A 0.209 0.203 60.307 0 0 1058.540 325.640 Z M 474.790 338.630 Q 481.280 337.890 487.530 337.090 C 536.720 330.820 587.150 333.090 634.900 345.880 C 689.460 360.480 739.920 386.020 790.400 412.130 Q 810.760 422.660 821.470 427.280 Q 839.150 434.900 853.650 439.820 Q 886.580 450.980 921.720 453.770 C 930.860 454.490 940.530 454.360 949.870 454.050 Q 992.150 452.630 1030.920 433.680 Q 1035.850 431.280 1045.750 424.750 C 1058.900 416.080 1069.590 409.240 1079.700 399.710 Q 1082.460 397.100 1083.960 394.080 A 2.303 2.302 -61.065 0 0 1083.100 391.090 Q 1081.760 390.280 1079.260 390.330 C 1071.620 390.500 1063.040 392.880 1055.550 395.130 Q 1050.430 396.660 1042.380 398.560 Q 1026.820 402.240 1016.490 404.470 Q 990.160 410.150 964.530 411.350 C 929.840 412.970 894.830 401.540 862.810 388.690 Q 839.350 379.280 816.200 368.290 Q 787.510 354.670 736.070 330.450 Q 697.810 312.420 661.160 299.880 C 630.910 289.520 598.440 282.460 566.780 284.830 C 528.210 287.730 496.950 307.080 474.570 338.270 A 0.235 0.229 14.336 0 0 474.790 338.630 Z M 510.750 454.550 Q 519.920 453.310 529.870 452.520 Q 536.330 452.010 549.120 452.520 Q 566.460 453.200 570.260 453.520 Q 595.300 455.650 616.920 460.360 C 661.800 470.140 705.010 486.960 749.730 505.770 Q 760.180 510.170 772.470 516.440 Q 793.500 527.190 819.140 537.340 C 864.360 555.250 912.350 567.490 960.470 567.930 Q 993.790 568.240 1023.340 559.050 Q 1078.340 541.950 1108.840 490.810 C 1110.200 488.540 1111.650 486.300 1112.170 483.750 C 1113.170 478.890 1107.890 477.820 1104.540 479.500 Q 1092.380 485.620 1085.400 488.880 Q 1058.350 501.520 1031.940 508.410 Q 991.800 518.890 949.250 516.290 Q 935.020 515.420 925.730 513.540 C 889.070 506.130 852.160 492.600 817.100 476.630 C 799.740 468.710 780.530 458.520 763.900 450.360 C 732.500 434.980 699.190 421.120 665.400 412.620 C 643.620 407.150 620.590 404.250 598.310 406.120 Q 543.490 410.700 510.340 453.850 A 0.440 0.438 14.767 0 0 510.750 454.550 Z M 555.730 551.330 Q 555.780 551.400 556.050 551.470 C 595.650 562.050 620.330 568.130 651.210 578.790 Q 651.500 578.890 686.820 591.440 C 717.310 602.280 742.110 613.190 780.670 629.600 C 812.430 643.110 845.540 656.020 879.030 664.420 Q 919.420 674.540 959.000 674.670 Q 990.070 674.760 1018.840 667.310 Q 1041.040 661.570 1056.590 653.790 Q 1083.880 640.140 1108.670 617.410 C 1118.910 608.020 1130.220 595.860 1136.050 584.080 Q 1136.960 582.240 1136.370 580.690 A 2.425 2.314 -10.492 0 0 1134.090 579.200 Q 1131.410 579.250 1129.380 580.390 Q 1104.250 594.490 1080.370 603.610 Q 1013.030 629.350 942.000 622.700 C 900.650 618.820 861.090 607.360 822.360 591.890 C 800.680 583.230 777.200 572.620 754.340 564.030 Q 750.960 562.760 727.020 554.970 Q 697.610 545.380 691.780 543.770 Q 667.380 537.040 641.000 534.290 Q 595.920 529.600 555.870 550.610 A 0.476 0.471 56.282 0 0 555.730 551.330 Z M 593.700 643.240 C 622.810 653.220 650.850 666.980 677.890 682.890 Q 691.250 690.750 701.410 696.170 C 758.680 726.720 816.650 755.230 878.790 771.440 C 909.770 779.510 940.930 783.690 972.240 781.970 Q 1024.310 779.100 1066.680 752.130 C 1090.200 737.170 1110.150 717.100 1127.290 694.040 C 1131.130 688.870 1136.630 681.850 1138.040 675.230 A 1.619 1.617 -81.288 0 0 1136.610 673.280 Q 1134.190 673.040 1131.660 674.390 C 1098.690 692.010 1069.670 707.220 1036.970 718.200 Q 1020.480 723.730 1000.590 727.610 C 976.100 732.390 951.410 732.980 927.610 729.900 C 858.730 721.010 794.080 688.730 729.130 664.570 C 695.870 652.210 665.750 642.900 632.760 639.190 C 619.970 637.750 605.840 636.850 593.670 642.610 A 0.341 0.340 42.344 0 0 593.700 643.240 Z M 654.450 746.490 A 0.357 0.357 -6.475 0 0 654.020 747.030 C 673.070 773.160 698.100 795.410 725.370 812.880 C 784.560 850.790 854.150 876.300 924.520 881.170 Q 938.600 882.150 954.710 881.390 C 976.900 880.350 999.060 876.540 1019.280 869.080 Q 1083.340 845.450 1114.290 781.880 A 1.166 1.165 86.542 0 0 1112.610 780.390 C 1084.240 798.710 1055.000 814.970 1022.370 823.120 Q 995.530 829.830 971.990 831.180 Q 957.770 832.000 951.500 831.940 Q 929.370 831.720 907.360 828.580 Q 867.830 822.930 825.470 810.760 C 767.940 794.230 710.800 771.080 654.450 746.490 Z"/>
<path fill="#0d68b1" fill-rule="evenodd" d="M 1058.540 325.640 A 0.209 0.203 60.307 0 1 1058.460 325.950 Q 1033.100 337.090 1008.420 344.380 Q 990.370 349.720 972.760 351.300 C 960.410 352.410 948.810 350.970 935.570 348.410 C 882.420 338.130 833.420 314.550 784.460 290.790 C 742.810 270.580 700.180 252.220 656.120 239.410 C 624.540 230.230 591.770 224.740 559.010 226.310 C 513.700 228.470 469.360 248.310 441.710 285.380 C 435.510 293.700 430.090 302.340 428.130 311.390 Q 426.440 319.170 424.800 325.800 Q 422.040 336.900 414.980 346.490 C 403.730 361.760 387.470 374.110 374.430 388.130 Q 367.350 395.740 355.960 411.960 Q 344.420 428.390 336.820 448.320 C 327.920 471.650 322.090 490.560 309.270 507.260 Q 300.530 518.640 289.780 529.530 Q 269.910 549.670 263.480 555.240 Q 261.470 556.980 242.050 573.290 C 233.840 580.200 224.320 589.860 220.100 600.070 C 215.560 611.010 218.500 620.900 226.220 629.630 C 234.380 638.860 243.510 646.950 243.010 657.480 C 242.230 673.910 225.240 682.580 222.850 698.370 C 221.780 705.410 223.470 710.470 227.660 717.140 Q 230.580 721.790 233.500 727.220 A 2.649 2.644 -47.551 0 1 233.600 729.510 C 232.150 732.910 228.400 734.190 225.440 735.870 A 3.305 3.101 -80.520 0 0 224.680 736.450 C 220.070 741.270 222.280 748.220 224.880 753.630 C 227.500 759.090 231.600 766.100 232.700 772.890 Q 234.080 781.480 232.230 790.280 C 227.290 813.710 212.280 831.200 224.140 850.230 C 230.150 859.880 242.350 866.950 253.290 871.470 C 273.650 879.870 295.090 884.880 317.320 889.380 Q 346.040 895.190 374.910 903.590 Q 391.700 908.480 403.910 914.430 C 433.490 928.840 458.460 949.400 480.290 973.970 Q 493.390 988.730 505.600 1004.670 Q 538.030 1046.970 564.180 1084.980 Q 569.880 1093.280 573.300 1095.730 Q 580.490 1100.890 588.330 1101.870 Q 599.850 1103.300 616.990 1103.660 Q 751.930 1106.530 868.500 1038.450 Q 919.780 1008.510 962.590 966.150 Q 981.770 947.160 1007.640 940.070 Q 1029.320 934.140 1050.350 941.290 A 0.474 0.474 51.283 0 1 1050.590 942.010 Q 1033.730 966.120 1012.030 988.760 Q 1001.690 999.550 986.670 1013.420 Q 907.110 1086.940 808.140 1122.890 C 717.690 1155.750 620.830 1162.740 526.070 1145.130 C 439.690 1129.070 358.800 1090.290 290.850 1033.780 Q 278.550 1023.540 267.330 1012.000 C 253.580 997.860 239.140 984.730 226.680 969.910 Q 172.810 905.850 141.780 830.220 Q 99.920 728.210 102.080 617.750 C 104.590 489.390 154.820 365.270 241.250 271.500 C 328.990 176.300 447.300 116.630 576.330 104.380 C 657.620 96.660 742.840 109.440 819.670 138.640 Q 858.430 153.370 893.170 173.710 C 941.710 202.140 985.660 238.500 1022.800 280.450 Q 1042.350 302.540 1058.540 325.640 Z"/>
<path fill="#151515" fill-rule="evenodd" d="M 474.790 338.630 A 0.235 0.229 14.336 0 1 474.570 338.270 C 496.950 307.080 528.210 287.730 566.780 284.830 C 598.440 282.460 630.910 289.520 661.160 299.880 Q 697.810 312.420 736.070 330.450 Q 787.510 354.670 816.200 368.290 Q 839.350 379.280 862.810 388.690 C 894.830 401.540 929.840 412.970 964.530 411.350 Q 990.160 410.150 1016.490 404.470 Q 1026.820 402.240 1042.380 398.560 Q 1050.430 396.660 1055.550 395.130 C 1063.040 392.880 1071.620 390.500 1079.260 390.330 Q 1081.760 390.280 1083.100 391.090 A 2.303 2.302 -61.065 0 1 1083.960 394.080 Q 1082.460 397.100 1079.700 399.710 C 1069.590 409.240 1058.900 416.080 1045.750 424.750 Q 1035.850 431.280 1030.920 433.680 Q 992.150 452.630 949.870 454.050 C 940.530 454.360 930.860 454.490 921.720 453.770 Q 886.580 450.980 853.650 439.820 Q 839.150 434.900 821.470 427.280 Q 810.760 422.660 790.400 412.130 C 739.920 386.020 689.460 360.480 634.900 345.880 C 587.150 333.090 536.720 330.820 487.530 337.090 Q 481.280 337.890 474.790 338.630 Z"/>
<path fill="#151515" fill-rule="evenodd" d="M 510.750 454.550 A 0.440 0.438 14.767 0 1 510.340 453.850 Q 543.490 410.700 598.310 406.120 C 620.590 404.250 643.620 407.150 665.400 412.620 C 699.190 421.120 732.500 434.980 763.900 450.360 C 780.530 458.520 799.740 468.710 817.100 476.630 C 852.160 492.600 889.070 506.130 925.730 513.540 Q 935.020 515.420 949.250 516.290 Q 991.800 518.890 1031.940 508.410 Q 1058.350 501.520 1085.400 488.880 Q 1092.380 485.620 1104.540 479.500 C 1107.890 477.820 1113.170 478.890 1112.170 483.750 C 1111.650 486.300 1110.200 488.540 1108.840 490.810 Q 1078.340 541.950 1023.340 559.050 Q 993.790 568.240 960.470 567.930 C 912.350 567.490 864.360 555.250 819.140 537.340 Q 793.500 527.190 772.470 516.440 Q 760.180 510.170 749.730 505.770 C 705.010 486.960 661.800 470.140 616.920 460.360 Q 595.300 455.650 570.260 453.520 Q 566.460 453.200 549.120 452.520 Q 536.330 452.010 529.870 452.520 Q 519.920 453.310 510.750 454.550 Z"/>
<path fill="#151515" fill-rule="evenodd" d="M 555.730 551.330 A 0.476 0.471 56.282 0 1 555.870 550.610 Q 595.920 529.600 641.000 534.290 Q 667.380 537.040 691.780 543.770 Q 697.610 545.380 727.020 554.970 Q 750.960 562.760 754.340 564.030 C 777.200 572.620 800.680 583.230 822.360 591.890 C 861.090 607.360 900.650 618.820 942.000 622.700 Q 1013.030 629.350 1080.370 603.610 Q 1104.250 594.490 1129.380 580.390 Q 1131.410 579.250 1134.090 579.200 A 2.425 2.314 -10.492 0 1 1136.370 580.690 Q 1136.960 582.240 1136.050 584.080 C 1130.220 595.860 1118.910 608.020 1108.670 617.410 Q 1083.880 640.140 1056.590 653.790 Q 1041.040 661.570 1018.840 667.310 Q 990.070 674.760 959.000 674.670 Q 919.420 674.540 879.030 664.420 C 845.540 656.020 812.430 643.110 780.670 629.600 C 742.110 613.190 717.310 602.280 686.820 591.440 Q 651.500 578.890 651.210 578.790 C 620.330 568.130 595.650 562.050 556.050 551.470 Q 555.780 551.400 555.730 551.330 Z"/>
<path fill="#151515" fill-rule="evenodd" d="M 593.700 643.240 A 0.341 0.340 42.344 0 1 593.670 642.610 C 605.840 636.850 619.970 637.750 632.760 639.190 C 665.750 642.900 695.870 652.210 729.130 664.570 C 794.080 688.730 858.730 721.010 927.610 729.900 C 951.410 732.980 976.100 732.390 1000.590 727.610 Q 1020.480 723.730 1036.970 718.200 C 1069.670 707.220 1098.690 692.010 1131.660 674.390 Q 1134.190 673.040 1136.610 673.280 A 1.619 1.617 -81.288 0 1 1138.040 675.230 C 1136.630 681.850 1131.130 688.870 1127.290 694.040 C 1110.150 717.100 1090.200 737.170 1066.680 752.130 Q 1024.310 779.100 972.240 781.970 C 940.930 783.690 909.770 779.510 878.790 771.440 C 816.650 755.230 758.680 726.720 701.410 696.170 Q 691.250 690.750 677.890 682.890 C 650.850 666.980 622.810 653.220 593.700 643.240 Z"/>
<path fill="#151515" fill-rule="evenodd" d="M 654.450 746.490 C 710.800 771.080 767.940 794.230 825.470 810.760 Q 867.830 822.930 907.360 828.580 Q 929.370 831.720 951.500 831.940 Q 957.770 832.000 971.990 831.180 Q 995.530 829.830 1022.370 823.120 C 1055.000 814.970 1084.240 798.710 1112.610 780.390 A 1.166 1.165 86.542 0 1 1114.290 781.880 Q 1083.340 845.450 1019.280 869.080 C 999.060 876.540 976.900 880.350 954.710 881.390 Q 938.600 882.150 924.520 881.170 C 854.150 876.300 784.560 850.790 725.370 812.880 C 698.100 795.410 673.070 773.160 654.020 747.030 A 0.357 0.357 -6.475 0 1 654.450 746.490 Z"/>
<!-- source: https://football-logos.cc --></svg>