<svg xmlns="http://www.w3.org/2000/svg" width="247.968" height="300" viewBox="0 0 247.968 300"><defs><clipPath id="a" clipPathUnits="userSpaceOnUse"><path d="M442.559 41.002H531v106.999h-88.441z"/></clipPath></defs><path d="M136.425 1076.958V910.245h275.798v333.427H136.425z" style="fill:#fdfdfe" transform="translate(-54.871 -602.132)"/><g clip-path="url(#a)" transform="matrix(2.80377 0 0 -2.80377 -1240.835 414.96)"><path d="M0 0c26.509 15.973 44.221 44.904 44.221 77.945a90.7 90.7 0 0 1-2.487 21.038c-12.867 5.166-26.926 8.016-41.657 8.016a111.5 111.5 0 0 1-41.833-8.108 90.7 90.7 0 0 1-2.465-20.946C-44.221 44.904-26.509 15.973 0 0" style="fill:#fff;fill-opacity:1;fill-rule:nonzero;stroke:none" transform="translate(486.78 41.002)"/><path d="M0 0a108.1 108.1 0 0 1-40.477-7.86 88 88 0 0 1-2.39-20.305c0-32.028 17.17-60.074 42.867-75.558z" style="fill:#b01028;fill-opacity:1;fill-rule:nonzero;stroke:none" transform="translate(486.78 146.369)"/><path d="M0 0h-.075v-103.723C25.622-88.24 42.792-60.194 42.792-28.165c0 7.023-.85 13.845-2.41 20.394C27.909-2.763 14.28 0 0 0" style="fill:#082242;fill-opacity:1;fill-rule:nonzero;stroke:none" transform="translate(486.854 146.37)"/><path d="M0 0q-.002 3.758-.339 7.43a108.5 108.5 0 0 1-32.409 4.926c-11.35 0-22.289-1.747-32.563-4.976A81 81 0 0 1-65.646 0c0-26.583 12.901-50.172 32.823-64.935C-12.901-50.172 0-26.583 0 0" style="fill:#fff;fill-opacity:1;fill-rule:nonzero;stroke:none" transform="translate(519.602 113.618)"/><path d="M0 0c.078.103.212.286.463.541.25.255.617.584 1.162.977s1.267.851 2.23 1.367c.577.308 1.141.583 1.682.829a31 31 0 0 0 2.928 1.157c.424.145.811.266 1.151.372 0 0 .09.343-.058.678-.149.335-.536.664-1.492.635-.766-.023-1.26.1-1.805.173-.545.074-1.141.1-2.107-.115a3.9 3.9 0 0 1-1.247-.507c-.349-.215-.673-.47-1.09-.746-.51-.338-.845-.472-1.129-.625s-.514-.326-.809-.745c-.296-.422-.312-.749-.3-1.128.011-.379.049-.809-.135-1.436C-.792.626 0 0 0 0m11.85-.072c-.05.084-.39.526-.467.714-.076.187-.505.611-.3 1.061.066.144.044.403-.017.7 0 0-.18-.021-.498-.069a34 34 0 0 1-3.203-.631c-.69-.17-1.43-.378-2.173-.625a38 38 0 0 1-2.55-.95 31 31 0 0 1-1.621-.727C.649-.781.452-.89.452-.89c-.301-.574-.201-.885.025-1.07.227-.185.669-.226.79-.311.554-.394.537-1.389.388-1.857-.149-.469-.414-.788-.317-.969s.485-.378.927-.596c.441-.217.938-.455 1.251-.715.651-.539 1.199-.987 1.7-1.326.502-.339.957-.569 1.423-.673.464-.103.939-.079 1.481.091.539.169-.388.684.004 1.661.446 1.111.065 1.355.445 1.368 1.004.037 1.64.121 2.022.295.383.173.512.436.5.827-.017.509-.422.712.048 1.093.297.241-.084.613-.245.684-.01.004.375.04.405.467.009.121-.352.328-.191.553.134.186.623.088.858.291.218.189.161.597-.116 1.005" style="fill:#082242;fill-opacity:1;fill-rule:nonzero;stroke:none" transform="translate(494.945 79.165)"/><path d="M0 0c.224.711.176 1.198.162 1.628-.015.43.004.802.365 1.282.358.475.639.672.985.845.346.174.755.326 1.376.709.509.314.903.603 1.329.847s.881.442 1.518.574c.786.164 1.371.205 1.871.19.499-.015.913-.087 1.358-.151a8.6 8.6 0 0 1 1.544-.103c1.165.032 1.642-.34 1.824-.721s.074-.769.074-.769a51 51 0 0 1-1.402-.423 43 43 0 0 1-1.678-.57 39 39 0 0 1-1.893-.743 36 36 0 0 1-2.05-.941C4.208 1.068 3.327.548 2.663.102a10.6 10.6 0 0 1-1.416-1.108c-.306-.29-.47-.497-.565-.614 0 0-.968.711-.682 1.62m15.304-2.844c-.287-.264-.882-.119-1.044-.33-.196-.254.244-.491.235-.629-.035-.484-.507-.524-.495-.529.196-.08.665-.504.305-.777-.575-.434-.075-.663-.052-1.24.017-.443-.142-.742-.609-.939s-1.244-.292-2.472-.334c-.465-.015.005-.293-.536-1.555-.474-1.107.659-1.693.001-1.884-.662-.193-1.242-.221-1.812-.104-.569.117-1.128.379-1.742.764s-1.287.894-2.086 1.506c-.383.294-.992.563-1.532.81-.541.248-1.016.473-1.135.678-.119.204.206.568.387 1.099.18.532.18 1.666-.483 2.107-.151.101-.686.144-.964.354s-.4.564-.033 1.216c0 0 .24.123.694.329s1.122.495 1.979.826c.857.332 1.902.704 3.111 1.079.907.281 1.809.516 2.652.709a45 45 0 0 0 3.908.718c.388.053.609.077.609.077.077-.337.102-.631.022-.795-.248-.51.278-.992.372-1.205s.511-.718.574-.81c.315-.457.448-.928.146-1.141" style="fill:#082242;fill-opacity:1;fill-rule:nonzero;stroke:none" transform="translate(494.398 111.54)"/><path d="M0 0c.069.103.188.286.417.541s.569.584 1.08.977a17.6 17.6 0 0 0 2.116 1.367c.55.308 1.09.583 1.611.829a28 28 0 0 0 1.498.655c.474.191.922.357 1.334.502.411.145.787.266 1.118.372 0 0 .062.343-.115.678s-.593.664-1.546.635c-.763-.023-1.268.1-1.819.173-.551.074-1.15.1-2.098-.115a3.6 3.6 0 0 1-1.203-.507c-.331-.215-.633-.47-1.026-.746-.482-.338-.808-.472-1.078-.625-.271-.153-.486-.326-.745-.745-.261-.422-.25-.749-.207-1.128s.118-.809-.013-1.436C-.845.626 0 0 0 0m11.857-.072c-.057.084-.436.526-.528.714s-.558.611-.39 1.061c.054.144.012.403-.074.7-.001 0-.319-.038-.852-.124a34 34 0 0 1-2.133-.417 28 28 0 0 1-2.779-.784 35 35 0 0 1-2.47-.95 28 28 0 0 1-1.56-.727C.715-.781.527-.89.527-.89.274-1.464.4-1.775.642-1.96s.686-.224.815-.311c.606-.404.655-1.389.546-1.857-.11-.469-.347-.788-.235-.969s.517-.378.977-.596.975-.455 1.31-.715c.697-.539 1.283-.987 1.813-1.326s1.005-.569 1.478-.673c.474-.103.947-.079 1.474.091.525.169-.444.684-.135 1.661.353 1.111-.05 1.355.329 1.368 1.001.037 1.63.121 1.998.295.368.173.476.436.431.827-.059.509-.481.714-.046 1.093.276.239-.136.613-.303.684-.01.004.373.04.367.467-.002.121-.379.328-.236.553.117.185.615.09.831.291.202.188.113.597-.199 1.005" style="fill:#082242;fill-opacity:1;fill-rule:nonzero;stroke:none" transform="translate(467.52 79.165)"/><path d="M0 0c.164.711.076 1.198.025 1.628s-.063.802.257 1.281c.318.476.582.672.913.846s.729.325 1.318.709c.482.314.851.603 1.256.847a4.5 4.5 0 0 0 1.47.574c.772.164 1.355.205 1.856.19s.921-.088 1.371-.152a8.7 8.7 0 0 1 1.552-.103c1.163.033 1.669-.339 1.884-.72s.139-.769.139-.769c-.405-.12-.864-.26-1.367-.424a41 41 0 0 1-1.629-.57 34 34 0 0 1-3.801-1.684C4.119 1.068 3.281.548 2.655.102a9.5 9.5 0 0 1-1.324-1.108c-.281-.29-.426-.498-.512-.615C.819-1.621-.21-.909 0 0m15.545-2.844c-.264-.264-.874-.121-1.018-.331-.173-.253.286-.49.288-.628.006-.484-.462-.524-.449-.529.202-.079.704-.505.368-.777-.536-.432-.018-.663.053-1.24.054-.444-.078-.742-.528-.939s-1.219-.292-2.444-.334c-.463-.015.027-.294-.407-1.555-.381-1.107.803-1.693.161-1.884-.645-.193-1.224-.221-1.804-.104-.579.117-1.159.378-1.806.763-.648.386-1.363.895-2.213 1.507-.409.294-1.038.563-1.599.81-.562.248-1.056.473-1.192.678-.136.204.157.568.293 1.099.136.532.062 1.654-.659 2.107-.162.103-.699.144-.994.354s-.448.563-.136 1.215c0 0 .229.124.666.33s1.08.495 1.909.826 1.843.704 3.021 1.079a34 34 0 0 0 2.591.709 43 43 0 0 0 3.848.717c.384.053.603.078.603.078.105-.337.155-.631.089-.795-.206-.51.361-.992.473-1.205.113-.213.573-.719.643-.81.356-.459.528-.928.243-1.141" style="fill:#082242;fill-opacity:1;fill-rule:nonzero;stroke:none" transform="translate(463.997 111.54)"/><path d="M0 0a4.8 4.8 0 0 1-1.082-.392 5 5 0 0 1-.97-.645 6.4 6.4 0 0 1-.866-.896A7.23 7.23 0 0 1-4.432-5.44l-.314-2.14a5.6 5.6 0 0 1-.057-1.197q.04-.539.22-.961t.501-.727.745-.449q.423-.146.946-.134.524.011 1.145.175a7.4 7.4 0 0 1 1.163.406q.545.243 1.011.57.466.328.855.739.387.412.663.87.274.46.437.967.162.509.213 1.068l-.01.04c-.401-.085-.7-.152-1-.218l-.996-.227a4 4 0 0 0-.221-.946 2.7 2.7 0 0 0-.423-.743 2.4 2.4 0 0 0-.635-.544 3.3 3.3 0 0 0-.855-.346q-.485-.125-.843-.033a1.03 1.03 0 0 0-.589.404 1.75 1.75 0 0 0-.302.775q-.072.464.01 1.076l.144 1.066.143 1.067q.08.606.277 1.137.196.531.505.986.308.456.681.736t.815.386q.492.117.841.061a.9.9 0 0 0 .552-.279q.204-.224.277-.596a3 3 0 0 0 .013-.891 118 118 0 0 0 1.974.422l.018.046q.107.86-.078 1.484A2.04 2.04 0 0 1 2.023.016a3 3 0 0 1-.915.127A5 5 0 0 1 0 0m8.973 1.548c.317.047.635.093 1.059.152a253 253 0 0 1 .721-2.615l.324-1.147.313-1.1.318-1.099q.161-.556.334-1.144a283 283 0 0 1 .778-2.605 90 90 0 0 1-2.182-.297l-.272 1.047-.269 1.048A133 133 0 0 1 7.673-6.6c-.384-.066-.794-.139-1.286-.229l-.465-1.18-.468-1.184a107 107 0 0 1-2.131-.439l.592 1.412.537 1.28.495 1.183.469 1.125.46 1.104.465 1.117.486 1.169.521 1.254.57 1.375c.421.066.738.114 1.055.161m-.59-6.439c.397.065.795.128 1.328.208a336 336 0 0 0-.938 3.83L8.73-.86l-.446-1.139-.385-.982-.387-.985-.452-1.148c.528.092.925.158 1.323.223m9.903 1.189a131 131 0 0 0 1.908.126l-.042-.929-.043-.928q-.248-.227-.72-.401-.47-.175-1.233-.231a2.4 2.4 0 0 0-.954.101 1.64 1.64 0 0 0-.709.472q-.293.329-.42.781a3.1 3.1 0 0 0-.089 1.027l.07 1.06.069 1.06q.036.565.215 1.039.18.475.498.859.32.383.72.592.4.21.884.244.457.031.799-.063a1.3 1.3 0 0 0 .569-.313q.455-.438.477-1.236c.4.023.7.037 1 .052s.6.027.999.042l.016.042q.012.726-.227 1.302t-.729 1a2.7 2.7 0 0 1-.753.458 3.8 3.8 0 0 1-.958.243 6 6 0 0 1-1.164.024 5 5 0 0 1-1.156-.213 4.5 4.5 0 0 1-1.025-.468 4.8 4.8 0 0 1-.896-.719 5 5 0 0 1-.711-.911 4.8 4.8 0 0 1-.463-1.04 5.2 5.2 0 0 1-.214-1.163l-.078-1.058-.078-1.058a4.4 4.4 0 0 1 .054-1.138q.099-.523.343-.953.246-.43.637-.77t.877-.546a4 4 0 0 1 1.063-.281 6 6 0 0 1 1.248-.023 9.5 9.5 0 0 1 1.452.218q.662.157 1.191.416.53.258.921.538t.645.586l.043 1.316.037 1.148.043 1.315a107 107 0 0 1-2.633-.129c-.419-.025-.868-.054-1.406-.093l-.039-.698zm8.107 5.209L26.39.298l-.001-1.12-.002-1.09-.002-1.12-.002-1.209-.002-1.358a92 92 0 0 0 2.447-.02 98 98 0 0 0 2.44-.074l.027-.775.028-.775a104 104 0 0 1-3.581.093 98 98 0 0 1-2.267-.001 100 100 0 0 1-1.329-.022l.027 1.416.025 1.275.023 1.181.022 1.135.022 1.134.022 1.182.025 1.275.027 1.416a104 104 0 0 0 2.056.023zm6.34-8.818a93 93 0 0 0 2.203-.143l-.079 1.423-.07 1.281-.066 1.187-.062 1.14-.063 1.139-.065 1.187-.071 1.281-.078 1.423a142 142 0 0 1-2.088.119l.061-1.419.057-1.278.052-1.184.049-1.137.05-1.138.052-1.184.056-1.278zm7.505 9.393c.32-.036.641-.073 1.067-.126l.559-1.345.51-1.227.476-1.143.456-1.093.911-2.177.485-1.156 1.105-2.628c-.431.076-.754.131-1.078.184-.324.054-.649.107-1.082.174l-.459 1.158-.456 1.154a119 119 0 0 1-2.444.325c-.39.048-.807.098-1.31.153l-.289-1.051c-.087-.315-.174-.631-.292-1.051a107 107 0 0 1-2.207.213q.236.729.442 1.378.206.65.391 1.242a272 272 0 0 1 .696 2.255 218 218 0 0 1 .68 2.255 263 263 0 0 1 .769 2.623c.428-.045.749-.08 1.07-.117m.495-6.372c.402-.05.804-.102 1.339-.175l-.441 1.123-.377.964-.376.963L40.443-.3l-.043.005-.348-1.336c-.104-.398-.2-.767-.306-1.165l-.356-1.335c.538-.06.941-.109 1.343-.159m13.184.709a4.8 4.8 0 0 1-.227.977q-.165.467-.427.894a5 5 0 0 1-1.416 1.489 5 5 0 0 1-.933.499 6 6 0 0 1-1.075.319 116 116 0 0 1-4.034.723l.141-1.458.126-1.313.117-1.217.113-1.168.112-1.168.117-1.217.127-1.313.14-1.458a100 100 0 0 0 2.118-.415l-.134 1.31-.119 1.144-.135 1.31a87 87 0 0 0 1.784-.366l.652-1.136.564-.984.566-.988.662-1.155a89 89 0 0 0 2.074-.528l-.713 1.253-.61 1.072-.606 1.066-.7 1.232q.613.078 1.031.395.443.34.612.889.17.551.073 1.312m-2.285-.672c-.255-.255-.667-.318-1.238-.197a102 102 0 0 1-2.03.411l-.123 1.187-.107 1.035-.122 1.186a105 105 0 0 0 2.004-.387q.425-.086.758-.277.334-.19.577-.484a2.55 2.55 0 0 0 .576-1.347q.087-.745-.295-1.127m4.354 3.438c.285-.076.569-.152.945-.255l.224-1.524.201-1.372.188-1.272.18-1.221.179-1.221.188-1.271.201-1.372.225-1.524a102 102 0 0 1-2.045.598l-.203 1.51-.183 1.36-.171 1.26-.163 1.21-.162 1.21-.171 1.26-.183 1.36-.204 1.51c.384-.097.67-.171.954-.246" style="fill:#fff;fill-opacity:1;fill-rule:nonzero;stroke:none" transform="translate(460.333 136.763)"/><path d="M0 0c-7.475-.553-15.979-1.009-25.038-1.096.087 7.825.134 16.097.134 24.655l-.001 1.041c-1.08.035-2.164.057-3.254.057q-1.777-.001-3.541-.066v-1.032c0-8.557.047-16.827.134-24.652-9.008.096-17.459.553-24.888 1.105a71 71 0 0 1 1.284-5.563 214 214 0 0 1 23.683-1.722c.199-13.913.53-26.164.952-35.744a73 73 0 0 1 2.309-1.792c.729.54 1.443 1.098 2.151 1.664.425 9.598.757 21.894.958 35.867 8.573.128 16.65.788 23.83 1.706A72 72 0 0 1 0 0" style="fill:#b01028;fill-opacity:1;fill-rule:nonzero;stroke:none" transform="translate(515.005 97.405)"/></g></svg>