<svg xmlns="http://www.w3.org/2000/svg" id="svg39" width="484.002" height="500" viewBox="0 0 484.002 500"><defs id="defs11"><style id="style9">.cls-3{fill:#10416a}</style></defs><path id="path687" d="M184.835 0v68.647c-23.862.338-46.61.826-64.332 1.607-19.46.859-33.136 1.761-40.477 3.576l-11.594 2.802.138 33.06v.003c.094 18.029.178 36.325.238 54.676H0v114.284h68.772c1.974 35.426 14.573 67.238 38.227 95.917 20.894 25.34 46.43 46.852 77.873 65.86V500h114.293v-59.59c24.224-14.552 46.498-32.135 66.13-52.477l.014-.013.013-.014c31.314-32.843 47.878-69.08 49.925-109.25h68.755v-114.33h-68.685v-6.906c0-22.535-.082-45.78.127-68.756v-.002l.1-12.026-11.67-2.847c-7.3-1.779-20.974-2.69-40.427-3.555-17.716-.788-40.464-1.285-64.328-1.63V0Z" style="color:#000;fill:#fff;stroke:none;stroke-width:12.769px;stroke-miterlimit:10;-inkscape-stroke:none"/><path id="path17" d="M408.944 157.42c0-22.52-.08-45.784.128-68.814l.058-6.965-6.756-1.648c-11.434-2.786-56.555-4.504-109.628-5.166V6.385H191.221v68.488c-53.073.65-98.205 2.322-109.663 5.154l-6.72 1.626.115 28.01c.105 20.14.21 40.56.267 61.094H6.384v101.514h68.395c.72 36.635 12.885 68.825 37.146 98.24 21.116 25.607 46.91 47.28 79.33 66.445v56.66h101.526v-56.718a316.5 316.5 0 0 0 67.92-53.398c32.096-33.664 48.034-70.113 48.545-111.23h68.372V170.71h-68.686z" style="fill:#10416a;fill-opacity:1;stroke-width:1.16082"/><path id="path15" d="M92.412 95.93v13.594c.279 51.4.557 104.555-.197 156.954-.488 34.825 10.343 65.18 33.13 92.866 28.033 33.988 65.133 60.768 116.546 84.078 43.67-19.49 78.494-43.078 106.11-72.064 30.855-32.352 45.121-67.327 43.6-107.016-.72-18.387-.545-36.763-.371-54.558v-1.161c.093-8.126.174-16.182.174-24.238v-26.954c0-20.117-.08-40.85.058-61.524-46.166-5.27-252.896-5.281-299.05.024" style="fill:#fff;stroke-width:1.16082"/><g id="g624" transform="translate(-714.976 4.237)scale(1.16082)"><path id="path19" d="M753.313 215.07v-11.91a1.63 1.63 0 0 0-1.77-1.77h-11a1.58 1.58 0 0 0-1.76 1.77v8.82c0 3-1.55 4.42-4.42 4.42h-5.73c-2.87 0-4.41-1.44-4.41-4.42v-50.3c0-2.87 1.43-4.41 4.41-4.41h5.73c2.87 0 4.42 1.54 4.42 4.41v8.83a1.57 1.57 0 0 0 1.76 1.76h11a1.62 1.62 0 0 0 1.77-1.76v-11.92c0-10.36-5.63-15.88-15.89-15.88h-12.35c-10.37 0-16 5.52-16 15.88v56.48c0 10.37 5.63 15.88 16 15.88h12.35c10.26 0 15.89-5.51 15.89-15.88" class="cls-3"/><path id="path21" d="M764.333 215.07c0 10.37 5.51 15.88 15.88 15.88h12.35c10.38 0 15.89-5.51 15.89-15.88v-56.48c0-10.36-5.51-15.88-15.89-15.88h-12.35c-10.37 0-15.88 5.52-15.88 15.88zm14.67-53.72c0-2.87 1.54-4.41 4.41-4.41h6.4c2.87 0 4.41 1.54 4.41 4.41v51c0 3-1.54 4.42-4.41 4.42h-6.4c-2.87 0-4.41-1.44-4.41-4.42z" class="cls-3"/><path id="path23" d="M821.683 230.95h10.15a2 2 0 0 0 2.2-2.2v-49.64h.77l10.92 49.86a2.29 2.29 0 0 0 2.43 2h5.4a2.29 2.29 0 0 0 2.43-2l10.94-49.86h.77v49.64a2 2 0 0 0 2.21 2.2h10.26a2 2 0 0 0 2.2-2.2v-83.83a2 2 0 0 0-2.2-2.21h-14.58a2.3 2.3 0 0 0-2.43 2l-12.23 54.92-12.25-54.93a2.29 2.29 0 0 0-2.42-2h-14.57a2 2 0 0 0-2.21 2.21v83.84a2 2 0 0 0 2.21 2.2" class="cls-3"/><path id="path25" d="M923.803 142.71h-12.35c-10.37 0-15.88 5.52-15.88 15.88v56.48c0 10.37 5.51 15.88 15.88 15.88h12.35c10.38 0 15.89-5.51 15.89-15.88v-56.48c0-10.36-5.51-15.88-15.89-15.88m1.66 69.6c0 3-1.54 4.42-4.41 4.42h-6.4c-2.87 0-4.41-1.44-4.41-4.42v-50.96c0-2.87 1.54-4.41 4.41-4.41h6.4c2.87 0 4.41 1.54 4.41 4.41z" class="cls-3"/></g><g id="g618" transform="translate(-714.976 4.237)scale(1.16082)"><rect id="rect27" width="7.61" height="30.25" x="759.483" y="96.27" class="cls-3" rx=".82"/><path id="path29" d="M785.533 116.35a5.3 5.3 0 0 0 1.62 1.08 4.7 4.7 0 0 0 2 .41h9.64a.8.8 0 0 1 .58.22.71.71 0 0 1 .24.56v7.09a.84.84 0 0 0 .21.58.75.75 0 0 0 .57.24h6a.77.77 0 0 0 .58-.24.78.78 0 0 0 .24-.58v-24.36a4.85 4.85 0 0 0-.41-2 5.1 5.1 0 0 0-2.67-2.68 4.9 4.9 0 0 0-2-.41h-13a4.9 4.9 0 0 0-2 .41 5.3 5.3 0 0 0-1.62 1.08 4.8 4.8 0 0 0-1.08 1.6 5.2 5.2 0 0 0-.38 2v11.45a5.2 5.2 0 0 0 .38 2 4.8 4.8 0 0 0 1.1 1.55m5.88-13.2h8.43v7.61h-8.43z" class="cls-3"/><path id="path31" d="M827.453 125.05a5.07 5.07 0 0 0 3.59 1.47h13a5 5 0 0 0 2-.39 4.8 4.8 0 0 0 1.6-1.08 5.7 5.7 0 0 0 1.08-1.62 4.9 4.9 0 0 0 .41-2v-20.08a4.85 4.85 0 0 0-.41-2 5.5 5.5 0 0 0-1.08-1.6 5.1 5.1 0 0 0-1.6-1.08 4.9 4.9 0 0 0-2-.41h-13a4.9 4.9 0 0 0-2 .41 5.3 5.3 0 0 0-1.62 1.08 4.8 4.8 0 0 0-1.08 1.6 5 5 0 0 0-.39 2v20.14a5.05 5.05 0 0 0 .39 2 5 5 0 0 0 1.11 1.56m5.88-21.44h8.42v15.56h-8.42z" class="cls-3"/><path id="path33" d="M867.293 103.35h13.48l-10.24 19.71-1.47 2.8c-.2.47 0 .7.48.7h6.87a1.4 1.4 0 0 0 .69-.2 1.05 1.05 0 0 0 .48-.5l.69-1.29 8.55-16.22 2.08-4a3.7 3.7 0 0 0 .28-.74 3.3 3.3 0 0 0 .11-.78v-5.7a.83.83 0 0 0-.22-.58.71.71 0 0 0-.56-.24h-21.22a.72.72 0 0 0-.82.82v5.44a.71.71 0 0 0 .24.56.8.8 0 0 0 .58.22" class="cls-3"/></g><g id="g877" transform="translate(-714.976 4.237)scale(1.16082)"><g id="g890"><path id="path35" d="M900.453 255.29c-.4.23-.84.46-1.31.71s-1 .5-1.49.75a63.4 63.4 0 0 1-17.84 5.6c-8.73 1.31-17.55.76-26.33-.41-5.09-.77-10.14-1.73-15.19-2.79-5.27-1.13-10.52-2.35-15.78-3.51s-10.45-2.19-15.71-3.06a95 95 0 0 0-12.68-1.1c-8.9 0-19.69 1-28 4.41-6.26 2.92-10 4.1-15.08 9.13-1 1-1.86 1.93-2.62 2.78-.38.42-.73.82-1.05 1.19l-.86 1c-1 1.26-1.18 1.5-1.58 2l-1.92 2.68s.59-.37 1.7-1l.93-.54 1.13-.63c.81-.44 1.74-.93 2.8-1.45a65.5 65.5 0 0 1 17.84-5.51c8.71-1.33 17.57-.75 26.33.41 5.09.76 10.14 1.71 15.2 2.76 5.26 1.13 10.51 2.31 15.76 3.47a278 278 0 0 0 15.71 3 133 133 0 0 0 15 1.37 65.7 65.7 0 0 0 25.65-4.71 58.8 58.8 0 0 0 17-11.76c.49-.5 1-1 1.39-1.43l1.23-1.34c.76-.84 1.4-1.6 1.91-2.22l1.58-2-1.7 1c-.55.35-1.21.75-2.02 1.2" style="fill:#10416a;fill-opacity:1"/><path id="path872" d="M748.181 332.313c6.907-.026 15.283.51 22.063 1.828 5 1 10.049 2.169 15.049 3.449 5.2 1.36 10.39 2.78 15.59 4.18s10.34 2.62 15.55 3.7a132 132 0 0 0 14.93 2.06 65.8 65.8 0 0 0 25.83-3.54 58.6 58.6 0 0 0 17.53-11c.51-.47 1-.92 1.46-1.36s.88-.88 1.28-1.28c.8-.8 1.47-1.53 2-2.13l1.66-1.92s-.61.35-1.75 1c-.57.31-1.27.67-2.1 1.09l-1.34.64q-.72.35-1.53.69a63 63 0 0 1-18.069 4.74c-8.78.91-17.571-.001-26.291-1.6-5-1-10-2.19-15-3.48-5.21-1.37-10.4-2.83-15.6-4.23s-10.34-2.66-15.55-3.76a95 95 0 0 0-12.62-1.68c-8.89-.42-19.72.07-28.15 3.13l-3.577 1.57s1.535 2.655 8.635 7.903" style="fill:#10416a;fill-opacity:1"/><path id="path783" d="M724.924 307.041c14.2-2.88 28.789-2.751 43.299-1.701 8.63.78 17.24 1.88 25.84 3.16 9 1.37 17.92 2.85 26.88 4.27s17.8 2.59 26.73 3.5a225 225 0 0 0 25.39.83c15-.87 29.11-3.85 42.71-10.44 5.975-3.201 11.724-6.976 16.968-11.271a129 129 0 0 0 8.918-15.383c-9.06 4.957-18.884 8.589-28.975 10.785-14.57 3.06-29.462 2.998-44.372 1.898-8.63-.79-17.24-1.909-25.85-3.189-9-1.4-17.93-2.93-26.89-4.37s-17.81-2.649-26.75-3.589a159 159 0 0 0-21.449-.602c-15 .84-33.06 3.56-46.66 10.17-2 1.07-7.003 3.599-8.723 4.539l7.806 14.825z" style="fill:#10416a;fill-opacity:1"/></g></g></svg>