<?xml version="1.0" encoding="utf-8"?>
<!-- Generator: Adobe Illustrator 14.0.0, SVG Export Plug-In . SVG Version: 6.00 Build 43363)  -->
<!DOCTYPE svg PUBLIC "-//W3C//DTD SVG 1.1//EN" "http://www.w3.org/Graphics/SVG/1.1/DTD/svg11.dtd">
<svg version="1.1" id="Layer_1" xmlns="http://www.w3.org/2000/svg" xmlns:xlink="http://www.w3.org/1999/xlink" x="0px" y="0px"
	 width="316" height="316" viewBox="0 0 400 400.869" enable-background="new 0 0 400 400.869" xml:space="preserve">
<g>
	<circle fill="#ED1C24" cx="200.969" cy="198.098" r="150.931"/>
	<path fill="#808285" d="M200.97,70.287c-70.476,0-127.813,57.335-127.813,127.811c0,70.477,57.337,127.811,127.813,127.811
		c70.475,0,127.812-57.334,127.812-127.811C328.782,127.622,271.445,70.287,200.97,70.287z M200.97,302.792
		c-57.728,0-104.694-46.965-104.694-104.693S143.242,93.405,200.97,93.405s104.693,46.965,104.693,104.693
		S258.698,302.792,200.97,302.792z"/>
	<path fill="#CF9C51" d="M96.275,198.098c0,57.728,46.966,104.693,104.694,104.693s104.693-46.965,104.693-104.693
		S258.698,93.405,200.97,93.405S96.275,140.37,96.275,198.098z"/>
	<g>
		<path fill="#0A4A9B" d="M200.97,18.727v196.127c22.347-17.209,41.486-29.283,41.486-90.932c0-24.917,13.87-32.438,22.473-32.438
			V56.463c-20.161,0-37.194-16.279-37.194-37.736"/>
		<path fill="#ED1C24" d="M168.789,180.177h32.181v-33.651h-40.444C161.966,160.877,164.85,171.648,168.789,180.177z M137.01,91.485
			c7.391,0,18.663,5.564,21.693,22.933h42.266V80.767H137.01V91.485z M174.205,18.727c0,12.442-5.734,23.137-14.479,29.932h41.244
			V18.727H174.205z"/>
		<path fill="#FFFFFF" d="M159.483,123.923c0,8.424,0.369,15.892,1.043,22.603h40.444v-32.108h-42.266
			C159.2,117.264,159.483,120.416,159.483,123.923z M200.97,214.854v-34.677h-32.181
			C176.492,196.854,188.203,205.023,200.97,214.854z M159.726,48.659c-6.335,4.923-14.246,7.804-22.715,7.804v24.304h63.959V48.659
			H159.726z"/>
	</g>
	<g>
		<path fill="#CF9C51" d="M216.769,41.54c-8.626,0-11.56,8.189-11.56,15.595c0,10.962,5.652,23.633,5.652,23.633v2.312h-1.477v1.528
			h-1.738v5.832h1.738c-1.987,4.835-1.49,51.257-1.49,51.257s-3.351,3.48-3.351,9.061c0,7.316,6.081,13.031,14.025,13.031
			c9.929,0,14.77-5.342,14.77-14.028c0-6.332-1.242-8.812-5.959-11.171c0,0-0.247-44.432-2.606-48.151h1.489v-5.588l-1.613-0.62
			v-2.607c0,0,5.088-7.572,5.088-21.719C229.738,46.873,223.905,41.54,216.769,41.54z"/>
		<path fill="#FFFFFF" d="M208.888,63.255c0-0.869,1.49,0,1.49,0s1.86,2.73,5.335,2.73c5.462,0,7.695-1.985,10.178-4.467
			c0.349,7.425-1.502,14.888-3.972,21.222h-1.737c0,0,0.124-5.46,2.979-13.279c-0.089-1.002-1.551-0.932-2.481,0
			c-2.235,4.22-2.483,13.404-2.483,13.404h-4.593C213.603,75.79,208.888,67.599,208.888,63.255z M210.873,86.339v2.854
			c3.601,0,4.84,0.993,8.441,0.993c2.108,0,3.97-0.868,3.97-0.868v-3.103c0,0-1.736-0.869-3.97-0.869
			c-2.235,0-3.227,0.993-5.337,0.993C212.735,86.339,210.873,86.339,210.873,86.339z"/>
		<path fill="#ED1C24" d="M224.526,109.921v13.155l-13.527-19.982c0,0-0.311-8.377,0.497-9.184
			C214.163,94.964,224.526,109.921,224.526,109.921z M211.495,137.348c-0.559,0.559,0,7.322,0,7.322l4.218,3.104h4.343v-3.104
			C220.057,144.67,215.713,138.465,211.495,137.348z"/>
		<path fill="#808285" d="M224.526,129.778v11.046c0,0-10.364-10.984-13.527-15.267c0-1.117-0.807-12.099,0-12.906
			C215.748,117.865,224.526,129.778,224.526,129.778z M218.072,92.421l4.964,6.081v-5.832L218.072,92.421z"/>
		<path fill="#FFFFFF" d="M210.75,151.125c0,1.861,1.737,4.095,1.737,4.095s0,2.111-0.992,2.111c-2.235,0-3.849-2.979-3.849-6.826
			c0-1.615,0.869-4.717,1.861-4.717C210.5,145.787,210.75,147.277,210.75,151.125z M214.97,149.387c-0.746,0-1.614,1.612-1.614,2.73
			c0,2.854,2.233,7.694,3.351,7.694c1.116,0,2.172-1.117,2.172-2.172C215.993,153.699,217.079,149.387,214.97,149.387z
			 M220.057,149.387c-1.24,2.979,0.994,9.06,3.352,9.06c1.241,0,2.606-1.239,2.606-2.605
			C221.547,152.615,224.897,149.387,220.057,149.387z M224.774,147.152c0,1.862,2.111,6.827,4.096,6.827
			c1.117,0,1.985-1.986,1.985-4.592c0-1.117-2.729-3.662-3.661-3.662C226.263,145.725,224.774,146.531,224.774,147.152z"/>
	</g>
	<g>
		<path d="M7.997,129.341v30.329c0,83.808,59.963,122.468,118.998,122.468V129.341H96.203v120.387
			C63.329,235.804,39.02,210.833,39.02,129.341H7.997z"/>
		<path fill="#FFFFFF" d="M100.827,133.965c0,8.55,0,122.742,0,122.742l-6.427-2.722c-30.602-12.96-58.939-36.606-59.956-120.02
			c-5.488,0-16.289,0-21.824,0c0,6.643,0,25.705,0,25.705c0,79.203,54.375,115.827,109.75,117.751c0-8.582,0-135.037,0-143.457
			C116.873,133.965,106.326,133.965,100.827,133.965z"/>
	</g>
	<g>
		<path d="M271.534,129.341v26.717c0,91.561,63.01,126.08,120.47,126.08v-25.905c-53.769,0-87.979-37.905-87.979-95.991h56.854
			v36.92h31.125v-67.821H271.534z"/>
		<path fill="#FFFFFF" d="M276.157,133.965c0,6.324,0,22.093,0,22.093c0,87.074,58.873,119.575,111.224,121.371
			c0-4.993,0-12.032,0-16.779c-53.582-2.137-87.982-41-87.982-100.408v-4.624h66.103c0,0,0,29.843,0,36.92
			c5.535,0,16.344,0,21.879,0c0-7.443,0-51.131,0-58.574C379.17,133.965,284.367,133.965,276.157,133.965z"/>
	</g>
	<g>
		<path d="M251.583,224.805c0,0-20.865-0.888-30.853-0.888c-7.251,0-19.389-0.256-29.809,3.169
			c-14.777,4.859-27.238,19.247-27.238,35.896c0,38.84,66.59,49.496,66.59,73.693c0,11.537-10.876,19.311-25.083,19.311h-41.507
			v26.156h50.831c16.204,0,48.168-16.17,48.168-47.021c0-22.199-14.777-33.773-29.945-43.929
			c-17.9-11.987-36.647-20.134-36.647-29.985c0-8.881,5.772-11.987,36.848-11.987c4.662,0,18.646,0.223,18.646,0.223V224.805z"/>
		<path fill="#FFFFFF" d="M192.367,231.478c-11.957,3.932-24.059,16.016-24.059,31.505c0,19.134,18.79,30.792,36.961,42.066
			c15.236,9.451,29.629,18.379,29.629,31.626c0,13.867-12.495,23.934-29.707,23.934c0,0-29.582,0-36.883,0c0,4.92,0,11.986,0,16.91
			c7.641,0,46.207,0,46.207,0c14.779,0,43.543-14.967,43.543-42.398c0-19.774-13.193-30.246-27.892-40.087
			c-4.378-2.932-8.797-5.623-13.07-8.225c-14.317-8.721-25.628-15.607-25.628-25.602l0,0c0-14.301,12.226-16.61,41.472-16.61
			c0,0,8.75,0.104,14.022,0.167c0-4.774,0-10.931,0-15.517c-6.657-0.258-19.224-0.706-26.229-0.706l-1.427-0.001
			C212.184,228.524,201.425,228.5,192.367,231.478z"/>
	</g>
</g>
</svg>
