<?xml version="1.0" encoding="UTF-8" standalone="no"?>
<svg
   xmlns:dc="http://purl.org/dc/elements/1.1/"
   xmlns:cc="http://creativecommons.org/ns#"
   xmlns:rdf="http://www.w3.org/1999/02/22-rdf-syntax-ns#"
   xmlns:svg="http://www.w3.org/2000/svg"
   xmlns="http://www.w3.org/2000/svg"
   xmlns:sodipodi="http://sodipodi.sourceforge.net/DTD/sodipodi-0.dtd"
   xmlns:inkscape="http://www.inkscape.org/namespaces/inkscape"
   inkscape:version="1.0 (4035a4f, 2020-05-01)"
   sodipodi:docname="logo.svg"
   id="svg6628"
   version="1.1"
   viewBox="0 0 69 69"
   height="69"
   width="69">
  <metadata
     id="metadata6634">
    <rdf:RDF>
      <cc:Work
         rdf:about="">
        <dc:format>image/svg+xml</dc:format>
        <dc:type
           rdf:resource="http://purl.org/dc/dcmitype/StillImage" />
        <dc:title></dc:title>
      </cc:Work>
    </rdf:RDF>
  </metadata>
  <defs
     id="defs6632" />
  <sodipodi:namedview
     inkscape:current-layer="svg6628"
     inkscape:window-maximized="1"
     inkscape:window-y="25"
     inkscape:window-x="0"
     inkscape:cy="34.5"
     inkscape:cx="34.5"
     inkscape:zoom="8.7515973"
     showgrid="false"
     id="namedview6630"
     inkscape:window-height="793"
     inkscape:window-width="1440"
     inkscape:pageshadow="2"
     inkscape:pageopacity="0"
     guidetolerance="10"
     gridtolerance="10"
     objecttolerance="10"
     borderopacity="1"
     bordercolor="#666666"
     pagecolor="#ffffff" />
  <g
     id="g6626"
     fill="none"
     fill-rule="nonzero">
    <path
       id="path6616"
       d="M 0.23,34.5 34.496,0.235 68.76,34.5 34.495,68.765 Z"
       fill="#ffffff" />
    <path
       style="fill:#61358b;fill-opacity:1"
       id="path6618"
       d="M 1.79,34.5 34.495,1.795 67.201,34.5 34.495,67.205 Z"
       fill="#5a348b" />
    <path
       id="path6620"
       d="M 6.467,34.5 34.501,6.467 62.534,34.5 34.5,62.533 Z"
       fill="#ffffff" />
    <path
       style="fill:#dd3224;fill-opacity:1"
       id="path6622"
       fill="#e2241c"
       d="M 48.978,24.996 45.361,21.377 A 2.526,2.526 0 0 0 41.818,21.34 c -2,1.925 -4.126,4.293 -5.534,7.08 0.637,-4.195 2.075,-8.691 3.977,-12.145 L 34.989,11 29.717,16.275 c 1.902,3.461 3.34,7.957 3.976,12.145 -1.415,-2.794 -3.534,-5.155 -5.534,-7.08 a 2.526,2.526 0 0 0 -3.542,0.037 l -3.617,3.62 5.864,5.866 v -5.425 c 1.76,0.525 5.369,2.623 6.65,5.425 h -2.3 v 1.191 h 2.554 L 31.634,33.8 a 1.173,1.173 0 0 0 -0.09,1.73 l 3.46,3.47 3.452,-3.47 a 1.168,1.168 0 0 0 -0.09,-1.73 l -2.134,-1.746 h 2.554 v -1.191 h -2.3 c 1.274,-2.802 4.89,-4.9 6.65,-5.425 v 5.425 L 49,24.996 Z" />
    <path
       style="fill:#61358b;fill-opacity:1"
       id="path6624"
       d="m 11,35 h 14.1 l 9.4,9.2 9.4,-9.2 H 58 L 34.5,58 Z"
       fill="#5a348b" />
  </g>
</svg>
