<svg xmlns="http://www.w3.org/2000/svg" width="223.846" height="300" viewBox="0 0 522.307 700"><path fill="#ffd508" d="M0 0v520.985c0 29.234 0 65.617 18.11 94.73 21.286 34.23 61.797 50.863 123.775 50.863 36.366 0 61.488 4.154 78.328 8.909 16.35 4.618 30.272 10.797 40.022 24.539h1.837c9.758-13.733 23.672-19.921 40.022-24.54 16.849-4.754 41.97-8.908 78.337-8.908 61.995 0 102.489-16.634 123.775-50.862 18.11-29.114 18.11-65.497 18.101-94.73V0Z" style="stroke-width:7.29167"/><path fill="#00263e" d="M261.067 679.22s21.209-27.276 116.153-27.276c129.285 0 130.29-74.74 130.29-132.306V124.612H261.178Z" style="stroke-width:7.29167"/><path fill="#ae1919" d="M261.154 124.612H14.617v395.026c0 57.566-1.012 132.306 127.269 132.306 94.936 0 119.183 27.277 119.183 27.277z" style="stroke-width:7.29167"/><path fill="#fff" d="M507.51 14.617H14.617v149.952H507.51Z" style="stroke-width:7.29167"/><path fill="#ae1919" d="M492.988 78.878H271.865V28.89h-21.423v49.988H28.84V100.3h221.604v49.987h21.422V100.3h221.123z" style="stroke-width:7.29167"/><path fill="#ffd508" d="M171.806 425.62c-1.013 2.026-4.567 6.592.506 8.583l-2.025 5.58s8.625-2.035 8.625-7.614c0-3.545-3.046-14.205-5.072-17.75 13.183 2.026 29.929 2.532 38.546 1.52 11.158-1.013 20.298-4.06 29.422-10.145 0 0-4.558 9.639-21.809 12.685a201.3 201.3 0 0 0 36.049 25.87s-48.692 9.637-54.28 10.65c-5.586 1.013-10.179 3.597-12.239 9.159-9.604 26.899 16.308 39.584 16.308 42.116 0 3.047-10.651 23.843-10.651 23.843-10.145-8.625-16.231-5.072-17.759-3.046 1.528 0 4.06 1.527 4.06 3.046a12.1 12.1 0 0 0-5.578-1.519c-5.58 0-7.099 2.026-8.112 4.566 1.52 0 3.545.507 4.052 2.575a8.73 8.73 0 0 0-4.567-1.013c-10.651 0-6.591 15.218-6.591 15.218 2.025-1.519 4.06-2.026 8.12-2.026h29.422a14.4 14.4 0 0 0 11.157-5.072l20.797-21.312c3.047-3.544 3.553-6.591 2.575-9.638-3.048-11.158-5.58-27.388-5.58-27.388s1.52 1.519 4.558 4.06a68.9 68.9 0 0 0 22.831 9.638c-.506-3.553-6.592-22.315 1.519-36.048 0 0-3.545 13.733 5.073 36.529 7.613 17.75 23.337 31.448 45.66 31.448 25.87 0 22.823 37.035 22.823 37.035-10.652-10.154-17.243-5.587-19.74-2.034 2.034 0 5.578.506 7.106 3.553 0 0-4.566-2.034-8.12-2.034a7.353 7.353 0 0 0-7.613 6.094c.516 0 4.06 1.013 4.566 3.038a25.4 25.4 0 0 0-5.579-.506c-7.604 0-4.059 17.758-4.059 17.758l1.528-1.527a5.8 5.8 0 0 1 3.544-1.52h37.036c5.072 0 10.145-4.06 10.145-9.132v-48.717c0-6.085-4.06-7.605-9.639-7.605 0 0 3.047-2.574 3.047-8.119 0 0-3.047 1.022-15.732-3.038-8.583-3.047-14.196-11.158-13.69-33.473 19.74 12.17 43.112 19.277 53.214 5.072 6.094-8.12 7.614-25.363-9.639-39.061-23.328-20.29-15.723-25.363-9.123-31.448 1.013 1.013 5.579 2.532 9.638-.506 5.073-4.06 1.52-13.192 6.086-16.24 0 0-10.652-1.518-16.745 2.575-5.58 3.554-3.039 9.639-2.026 11.159-7.098 6.591-18.264 15.723 3.553 35.507 13.733 13.192 14.205 22.315 8.583 28.916-9.63 9.639-37.027-9.132-43.619-14.711-.506-7.605-4.059-14.712-8.625-20.29-10.652-12.171-24.35-31.448-31.448-54.279a36.78 36.78 0 0 0 28.907 9.132l-10.694-23.414c7.106 14.711 24.89 23.844 46.168 18.265l-24.89-29.423c12.676 18.265 38.545 25.87 64.93 9.639l-43.594-29.894c17.75 12.676 43.12 8.625 60.87-9.64l-43.627-15.723c43.628 15.724 57.833-23.844 57.833-23.844-38.555 16.23-78.106-32.46-100.945 4.566-12.686 23.844-26.89 29.423-35.516 32.461 7.613-5.073 15.733-9.63 27.903-30.941 14.711-24.891 27.397-26.376 50.22-19.278 6.084 1.528 10.65 1.528 14.71 0 15.724-6.608 17.217-17.767 17.217-17.767-32.975 16.23-60.879-23.843-80.68 9.133-12.17 21.81-19.74 33.473-28.907 43.112 2.576-8.111 4.051-27.894-4.566-49.206 9.639-2.026 7.605-13.184 7.605-13.184s-3.039 3.039-10.651 3.039c-6.592 0-8.12-7.098-22.831-7.098-16.737 0-23.835 8.583-23.835 8.583-20.797.506-21.312 16.23-21.312 16.23s24.891-5.072 25.878 15.218c0 8.626-4.566 15.217-18.771 21.809-10.651 5.073-23.337 17.251-27.396 33.989a61.4 61.4 0 0 0 4.625 41.155 35 35 0 0 1 2.035-8.583c2.025 5.072 9.123 15.217 11.664 18.256a30.4 30.4 0 0 0-7.107 3.047c-9.63 6.085-11.664 7.613-17.243 8.583-1.013-1.52-4.06-8.583-8.626-19.74-5.578-12.687-17.243 0-17.243 0h7.098s-1.52 5.578 4.567 7.097c6.084 1.52 9.132 12.18 9.132 12.18l-20.806-12.73c-5.579-3.038-10.651 4.567-12.179 8.584l5.073-1.52a7.65 7.65 0 0 0 8.583 4.566c8.626-1.527 17.758 7.099 17.758 7.099s-11.158-1.013-15.725-1.52c-5.586-.506-7.612 6.593-8.625 11.159l5.072-3.048s3.039 4.06 7.099 2.575c4.566-1.528 10.145-7.613 17.251-2.575 3.545 2.575 4.06 6.6 3.038 8.626m65.488-166.853c.507 1.022-.514 3.048-2.033 3.554-3.039 1.012-6.086-1.013-6.592-2.575a7.05 7.05 0 0 1 4.566-3.047c7.605-1.52 12.17.507 12.17.507-5.578.506-8.11 1.518-8.11 1.518m-103.51 55.85c4.06 0 10.65-6.6 16.23.506 3.553 5.073-2.026 10.145-2.026 10.145s-6.094 5.58-2.034 10.652l-3.554 3.553s9.64 1.013 10.66-4.06l3.04-15.217 17.757 16.23c5.58-13.733 19.277-17.243 19.277-17.243-15.732-7.613-40.073-13.192-40.073-13.192l-15.192-20.273c-4.566-6.085-10.154-.506-12.686 3.039l4.566-.507c-.506 2.034-1.012 6.6 6.085 8.12 8.12 1.519 12.18 11.157 12.18 11.157s-12.686-3.038-17.252-4.06c-5.073-.506-7.604 6.6-7.604 11.158l4.05-4.06a6.87 6.87 0 0 0 6.6 4.06" style="stroke-width:7.29167"/></svg>