<?xml version="1.0" encoding="UTF-8" standalone="no"?>
<svg
   width="223.845939"
   height="300"
   viewBox="0 0 522.30719 700"
   xmlns="http://www.w3.org/2000/svg">
  <path
     d="m 0,0 v 520.98521 c 0,29.23375 4.9112073e-6,65.61698 18.110021,94.73042 21.28576,34.22854 61.797167,50.86229 123.774879,50.86229 36.36573,0 61.48843,4.15406 78.32781,8.90896 16.35083,4.61781 30.27208,10.7975 40.0225,24.53864 h 1.83677 c 9.75844,-13.73239 23.67167,-19.92083 40.0225,-24.53864 16.84813,-4.7549 41.9701,-8.90896 78.33656,-8.90896 61.99448,0 102.48875,-16.63375 123.77459,-50.86229 18.11031,-29.11344 18.11031,-65.49667 18.10156,-94.73042 V 0 Z"
     fill="#ffd508"
     id="path824"
     style="stroke-width:7.29167" />
  <path
     d="m 261.06719,679.22094 c 0,0 21.20854,-27.27667 116.1526,-27.27667 129.28563,0 130.28969,-74.74031 130.28969,-132.30656 V 124.61229 H 261.17875 Z"
     fill="#00263e"
     id="path826"
     style="stroke-width:7.29167" />
  <path
     d="M 261.15396,124.61229 H 14.617385 v 395.02542 c 0,57.56625 -1.012812,132.30656 127.268245,132.30656 94.93604,0 119.18302,27.27667 119.18302,27.27667 z"
     fill="#ae1919"
     id="path828"
     style="stroke-width:7.29167" />
  <path
     d="M 507.51021,14.616729 H 14.617167 V 164.56927 H 507.51021 Z"
     fill="#ffffff"
     id="path830"
     style="stroke-width:7.29167" />
  <path
     d="M 492.98813,78.877605 H 271.86542 V 28.890313 H 250.4425 V 78.877605 H 28.839125 V 100.30052 H 250.4425 v 49.98729 h 21.42292 v -49.98729 h 221.12271 z"
     fill="#ae1919"
     id="path832"
     style="stroke-width:7.29167" />
  <path
     d="m 171.80552,425.62042 c -1.01281,2.02562 -4.56604,6.59167 0.50677,8.58229 l -2.02562,5.57958 c 0,0 8.62531,-2.03437 8.62531,-7.61323 0,-3.5452 -3.04646,-14.20489 -5.07208,-17.74937 13.18333,2.0249 29.92864,2.53167 38.54593,1.51885 11.15771,-1.01281 20.29855,-4.06 29.42261,-10.14489 0,0 -4.55802,9.63885 -21.80938,12.68531 11.02573,9.92542 23.11532,18.60104 36.04855,25.86938 0,0 -48.69157,9.63812 -54.27917,10.65093 -5.58688,1.01282 -10.17917,3.59625 -12.23906,9.15834 -9.60459,26.89895 16.30781,39.58427 16.30781,42.11666 0,3.04719 -10.65167,23.84302 -10.65167,23.84302 -10.14489,-8.62531 -16.23052,-5.07208 -17.75812,-3.04645 1.5276,0 4.06,1.5276 4.06,3.04645 -1.7099,-0.9501 -3.62396,-1.47073 -5.57886,-1.51885 -5.57885,0 -7.09844,2.02562 -8.11125,4.56604 1.51959,0 3.54521,0.50677 4.05125,2.57469 -1.40146,-0.74667 -2.9801,-1.09667 -4.56604,-1.01281 -10.65167,0 -6.59167,15.21771 -6.59167,15.21771 2.02563,-1.51886 4.05927,-2.02563 8.11927,-2.02563 h 29.42261 c 2.11823,0.0277 4.21677,-0.41344 6.14542,-1.2899 1.92864,-0.87645 3.64,-2.16854 5.01229,-3.78218 l 20.79656,-21.31209 c 3.04719,-3.54448 3.55323,-6.59166 2.57469,-9.63812 -3.04719,-11.15771 -5.57886,-27.38823 -5.57886,-27.38823 0,0 1.51886,1.51885 4.5573,4.05927 6.965,4.5675 14.70072,7.83344 22.83093,9.63885 -0.50604,-3.55323 -6.59166,-22.31541 1.51886,-36.04854 0,0 -3.54448,13.73313 5.07281,36.52906 7.61323,17.75011 23.33698,31.44823 45.66115,31.44823 25.86937,0 22.82218,37.03511 22.82218,37.03511 -10.65166,-10.15365 -17.24333,-5.58688 -19.74073,-2.03365 2.03438,0 5.57886,0.50604 7.10646,3.55323 0,0 -4.56604,-2.03437 -8.11927,-2.03437 -1.79448,-0.089 -3.55906,0.48125 -4.96125,1.60416 -1.40292,1.12292 -2.34573,2.7198 -2.65198,4.49021 0.51552,0 4.06,1.01281 4.56604,3.03771 -1.83458,-0.37406 -3.70562,-0.54396 -5.57885,-0.50604 -7.60448,0 -4.05927,17.75812 -4.05927,17.75812 l 1.5276,-1.5276 c 0.97271,-0.89688 2.22396,-1.43354 3.54448,-1.51958 h 37.03584 c 5.07208,0 10.14489,-4.05927 10.14489,-9.13209 v -48.71708 c 0,-6.0849 -4.06,-7.60448 -9.63885,-7.60448 0,0 3.04718,-2.57469 3.04718,-8.11927 0,0 -3.04718,1.02156 -15.7325,-3.03844 -8.58302,-3.04719 -14.19614,-11.15771 -13.6901,-33.47312 19.74073,12.17052 43.11271,19.27698 53.21458,5.07208 6.09365,-8.11927 7.61323,-25.3626 -9.63885,-39.06073 -23.32823,-20.29052 -15.72375,-25.3626 -9.12333,-31.44823 1.01281,1.01281 5.57885,2.5324 9.63812,-0.50604 5.07281,-4.06 1.51958,-13.19208 6.08563,-16.23927 0,0 -10.65167,-1.51886 -16.74532,2.57469 -5.57885,3.55395 -3.03843,9.63885 -2.02562,11.15843 -7.09844,6.59167 -18.26417,15.72375 3.55323,35.5075 13.73312,13.19209 14.20489,22.31542 8.58302,28.91584 -9.63011,9.63885 -37.02708,-9.13209 -43.61875,-14.71094 -0.50604,-7.60448 -4.05927,-14.71167 -8.62531,-20.29052 -10.65167,-12.17052 -24.35052,-31.4475 -31.44823,-54.27844 3.89229,3.48906 8.48458,6.10823 13.46916,7.68323 4.98459,1.575 10.24771,2.06865 15.43792,1.44885 l -10.69396,-23.41427 c 7.10646,14.71167 24.89011,23.84375 46.16792,18.2649 l -24.89083,-29.42261 c 12.67729,18.2649 38.54593,25.86938 64.9301,9.63886 l -43.59323,-29.89438 c 17.7501,12.67657 43.12073,8.62532 60.87083,-9.63885 l -43.6275,-15.72375 c 43.6275,15.72375 57.8324,-23.84375 57.8324,-23.84375 -38.55469,16.23052 -78.10542,-32.46031 -100.94438,4.56604 -12.68604,23.84375 -26.8902,29.42261 -35.51625,32.46104 7.61323,-5.07281 15.7325,-9.6301 27.90303,-30.94146 14.71093,-24.89083 27.39697,-26.37541 50.21916,-19.2777 6.0849,1.5276 10.65094,1.5276 14.71094,0 15.72375,-6.60844 17.21708,-17.76688 17.21708,-17.76688 -32.9751,16.23052 -60.87885,-23.84302 -80.67937,9.13281 -12.17052,21.80938 -19.74073,33.47313 -28.90781,43.11198 2.57541,-8.11125 4.05125,-27.89427 -4.56605,-49.20635 9.63886,-2.02563 7.60448,-13.18333 7.60448,-13.18333 0,0 -3.03843,3.03843 -10.65093,3.03843 -6.59167,0 -8.12,-7.09771 -22.83094,-7.09771 -16.73656,0 -23.835,8.58303 -23.835,8.58303 -20.79656,0.50604 -21.31136,16.22979 -21.31136,16.22979 0,0 24.89084,-5.07209 25.8774,15.21771 0,8.62604 -4.56604,15.2177 -18.77094,21.80937 -10.65094,5.07281 -23.33698,17.25135 -27.39625,33.98865 -3.27104,13.84031 -1.63552,28.38646 4.62583,41.15489 0.31428,-2.93489 0.99823,-5.81875 2.03438,-8.58302 2.02563,5.07281 9.12333,15.21771 11.66448,18.25615 -2.48938,0.70948 -4.8774,1.73323 -7.10719,3.04719 -9.6301,6.08489 -11.66375,7.61322 -17.24333,8.58302 -1.01281,-1.51959 -4.05927,-8.58302 -8.62531,-19.74073 -5.57886,-12.68604 -17.24334,0 -17.24334,0 h 7.09771 c 0,0 -1.51885,5.57885 4.56677,7.09771 6.0849,1.51958 9.13208,12.17927 9.13208,12.17927 l -20.80531,-12.72834 c -5.57885,-3.03843 -10.65166,4.56604 -12.17927,8.58302 l 5.07281,-1.51958 c 0.67886,1.63844 1.90677,2.98958 3.4723,3.82302 1.56552,0.83271 3.37239,1.09521 5.11072,0.74302 8.62605,-1.5276 17.75813,7.09844 17.75813,7.09844 0,0 -11.15771,-1.01281 -15.72448,-1.51958 -5.58687,-0.50605 -7.6125,6.59239 -8.62531,11.15843 l 5.07208,-3.04718 c 0,0 3.03844,4.06 7.09844,2.57468 4.56604,-1.5276 10.14489,-7.61323 17.25135,-2.57468 3.54521,2.57468 4.06,6.60041 3.03844,8.62604 m 65.48792,-166.85302 c 0.50677,1.02156 -0.51479,3.04718 -2.03365,3.55323 -3.03844,1.01281 -6.08562,-1.01282 -6.59166,-2.57469 0.51843,-0.78677 1.19,-1.46198 1.97458,-1.98552 0.78385,-0.52354 1.66542,-0.88448 2.59146,-1.06167 7.60448,-1.51885 12.17052,0.50677 12.17052,0.50677 -5.57886,0.50604 -8.11125,1.51886 -8.11125,1.51886 M 133.7401,314.53115 c 4.06,0 10.65167,-6.60042 16.23053,0.50604 3.55322,5.07281 -2.02563,10.14489 -2.02563,10.14489 0,0 -6.09365,5.57959 -2.03437,10.65167 l -3.55323,3.55323 c 0,0 9.63885,1.01281 10.66041,-4.05927 l 3.03844,-15.21771 17.75813,16.23052 c 5.57885,-13.73312 19.27698,-17.24333 19.27698,-17.24333 -15.73251,-7.61323 -40.07355,-13.19208 -40.07355,-13.19208 l -15.19218,-20.27303 c -4.56605,-6.08489 -10.15365,-0.50604 -12.68532,3.03844 l 4.56604,-0.50604 c -0.50677,2.03365 -1.01281,6.59969 6.0849,8.11927 8.12,1.51886 12.17927,11.15771 12.17927,11.15771 0,0 -12.68531,-3.03844 -17.25135,-4.06 -5.07282,-0.50604 -7.60448,6.60042 -7.60448,11.15771 l 4.05125,-4.05927 c 0.56291,1.26218 1.49479,2.32531 2.67239,3.0501 1.17761,0.72406 2.54698,1.07625 3.9273,1.00917"
     fill="#ffd508"
     id="path834"
     style="stroke-width:7.29167" />
</svg>
