<?xml version="1.0" encoding="UTF-8" standalone="no"?>
<!-- Generator: Adobe Illustrator 15.0.2, SVG Export Plug-In . SVG Version: 6.00 Build 0)  -->

<svg
   xmlns:dc="http://purl.org/dc/elements/1.1/"
   xmlns:cc="http://creativecommons.org/ns#"
   xmlns:rdf="http://www.w3.org/1999/02/22-rdf-syntax-ns#"
   xmlns:svg="http://www.w3.org/2000/svg"
   xmlns="http://www.w3.org/2000/svg"
   xmlns:sodipodi="http://sodipodi.sourceforge.net/DTD/sodipodi-0.dtd"
   xmlns:inkscape="http://www.inkscape.org/namespaces/inkscape"
   version="1.1"
   id="Layer_1"
   x="0px"
   y="0px"
   width="100"
   height="123"
   viewBox="0 0 100 123"
   enable-background="new 0 0 351.273 461.059"
   xml:space="preserve"
   inkscape:version="0.92.4 (5da689c313, 2019-01-14)"
   sodipodi:docname="Real Time logo.svg"><title
   id="title847">S.S. Lazio shield</title><metadata
   id="metadata135"><rdf:RDF><cc:Work
       rdf:about=""><dc:format>image/svg+xml</dc:format><dc:type
         rdf:resource="http://purl.org/dc/dcmitype/StillImage" /><dc:title>S.S. Lazio shield</dc:title><cc:license
         rdf:resource="http://scripts.sil.org/OFL" /></cc:Work><cc:License
       rdf:about="http://scripts.sil.org/OFL"><cc:permits
         rdf:resource="http://scripts.sil.org/pub/OFL/Reproduction" /><cc:permits
         rdf:resource="http://scripts.sil.org/pub/OFL/Distribution" /><cc:permits
         rdf:resource="http://scripts.sil.org/pub/OFL/Embedding" /><cc:permits
         rdf:resource="http://scripts.sil.org/pub/OFL/DerivativeWorks" /><cc:requires
         rdf:resource="http://scripts.sil.org/pub/OFL/Notice" /><cc:requires
         rdf:resource="http://scripts.sil.org/pub/OFL/Attribution" /><cc:requires
         rdf:resource="http://scripts.sil.org/pub/OFL/ShareAlike" /><cc:requires
         rdf:resource="http://scripts.sil.org/pub/OFL/DerivativeRenaming" /><cc:requires
         rdf:resource="http://scripts.sil.org/pub/OFL/BundlingWhenSelling" /></cc:License></rdf:RDF></metadata><defs
   id="defs133" /><sodipodi:namedview
   pagecolor="#ffffff"
   bordercolor="#666666"
   borderopacity="1"
   objecttolerance="1"
   gridtolerance="1"
   guidetolerance="1"
   inkscape:pageopacity="0"
   inkscape:pageshadow="2"
   inkscape:window-width="1366"
   inkscape:window-height="705"
   id="namedview131"
   showgrid="false"
   inkscape:zoom="1"
   inkscape:cx="3.956874"
   inkscape:cy="50.811493"
   inkscape:window-x="-8"
   inkscape:window-y="-8"
   inkscape:window-maximized="1"
   inkscape:current-layer="Layer_1"
   inkscape:showpageshadow="false" />

<g
   transform="matrix(0.15780356,0,0,0.15780356,-518.02312,93.11314)"
   id="#000000ff" /><g
   id="#868686ff"
   transform="matrix(0.03854182,0,0,0.03854182,-4.973258,100.5502)" /><g
   id="g3128"
   transform="matrix(0.69215848,0,0,0.69215848,-85.235709,4.4451046)"><path
     inkscape:connector-curvature="0"
     style="fill:#15366f;fill-opacity:1;fill-rule:evenodd;stroke:none"
     id="path16"
     d="m 223.20602,-3.7495885 h 40.84287 V 85.910741 c 0,0 1.60367,61.339969 -67.53763,81.589259 0,0 -62.42998,-12.61944 -69.43149,-80.414859 V -3.3089144 h 31.79755 l 64.3287,-0.4406741 v 0" /><path
     inkscape:connector-curvature="0"
     style="fill:#ffffff;fill-opacity:1;fill-rule:evenodd;stroke:none"
     id="path18"
     d="m 222.06194,-0.94490562 h 39.15345 V 85.005517 c 0,0 1.53785,58.802293 -64.74405,78.216903 0,0 -59.84675,-12.09846 -66.55968,-77.089176 V -0.52105499 h 30.48463 l 61.66565,-0.42385063 v 0" /><path
     inkscape:connector-curvature="0"
     style="fill:#15366f;fill-opacity:1;fill-rule:evenodd;stroke:none"
     id="path20"
     d="m 217.61182,42.066393 h 32.57915 v 42.290051 c 0,0 1.28109,48.929996 -53.8712,65.081896 0,0 -49.80029,-10.06767 -55.38423,-64.144648 V 42.125547 h 25.36512 l 51.31116,-0.05915 v 0" /><path
     inkscape:connector-curvature="0"
     style="fill:#87d8f7;fill-opacity:1;fill-rule:evenodd;stroke:none"
     id="path22"
     d="m 216.5179,44.73106 h 30.96363 v 40.191424 c 0,0 1.21582,46.500866 -51.19952,61.853356 0,0 -47.3271,-9.56947 -52.63433,-60.962796 V 44.785871 h 24.10451 l 48.76571,-0.05481 v 0" /><path
     inkscape:connector-curvature="0"
     style="fill:#15366f;fill-opacity:1;fill-rule:evenodd;stroke:none"
     id="path24"
     d="m 176.1087,33.542173 c 0.61115,-0.07653 1.06426,-0.23119 1.35715,-0.464553 0.2929,-0.23119 0.53725,-0.707683 0.72874,-1.430561 l 3.15445,-11.85261 c 0.0906,-0.335391 0.158,-0.614882 0.20013,-0.83956 0.0508,-0.231191 0.0761,-0.432533 0.0761,-0.606198 0,-0.445558 -0.12253,-0.72505 -0.36464,-0.837389 -0.24435,-0.120985 -0.75031,-0.214367 -1.52112,-0.284377 v -0.682719 h 8.16663 v 0.682719 c -0.89542,0.09543 -1.5001,0.242046 -1.80971,0.439047 -0.30963,0.188362 -0.56908,0.674035 -0.77783,1.456069 l -3.34164,12.614021 c -0.0334,0.137302 -0.063,0.267009 -0.0885,0.387489 -0.0166,0.121017 -0.0253,0.26321 -0.0253,0.426564 0,0.292516 0.12672,0.501998 0.37704,0.631705 0.25083,0.120471 0.60306,0.180176 1.05562,0.180176 1.76602,0 3.29148,-0.309883 4.57257,-0.928563 1.29187,-0.619222 2.42517,-1.774635 3.40473,-3.470578 l 0.61546,0.11668 -1.50656,5.134503 h -14.27327 v -0.671865" /><path
     inkscape:connector-curvature="0"
     style="fill:#15366f;fill-opacity:1;fill-rule:evenodd;stroke:none"
     id="path26"
     d="m 209.23804,33.45317 12.85085,-15.980401 h -2.03732 c -1.66247,0.04296 -3.10377,0.468895 -4.3196,1.276435 -0.79022,0.525879 -1.677,1.394744 -2.65712,2.605512 l -0.7077,-0.102033 1.90681,-4.708482 h 12.27153 l -0.0696,0.773893 -12.82765,15.980401 h 1.85825 c 1.47097,0 2.7143,-0.180177 3.72946,-0.542702 1.85233,-0.661554 3.37347,-1.924963 4.55584,-3.790772 l 0.69529,0.11668 -2.01037,5.132332 h -13.3061 l 0.0674,-0.760868 v 0" /><path
     inkscape:connector-curvature="0"
     style="fill:#15366f;fill-opacity:1;fill-rule:evenodd;stroke:none"
     id="path28"
     d="m 224.99253,33.542173 c 0.62194,-0.07653 1.08528,-0.23119 1.38466,-0.464553 0.29883,-0.23119 0.54534,-0.707683 0.74384,-1.430561 l 3.21703,-11.85261 c 0.0948,-0.335391 0.16227,-0.614882 0.20453,-0.83956 0.0529,-0.231191 0.0782,-0.432533 0.0782,-0.606198 0,-0.445558 -0.12672,-0.72505 -0.37326,-0.837389 -0.24652,-0.120985 -0.76489,-0.214367 -1.55081,-0.284377 v -0.682719 h 7.80902 v 0.682719 c -0.64244,0.08684 -1.10848,0.242046 -1.39923,0.464553 -0.27995,0.22477 -0.52053,0.701713 -0.71634,1.430563 l -3.23213,11.85478 -0.20451,0.916081 c -0.0161,0.08466 -0.034,0.175836 -0.0508,0.26918 -0.0113,0.08682 -0.0129,0.167153 -0.0129,0.245845 0,0.447186 0.11818,0.731562 0.35816,0.849871 0.23789,0.121017 0.75626,0.216537 1.55081,0.284375 v 0.671865 h -7.80685 v -0.671865" /><path
     inkscape:connector-curvature="0"
     style="fill:#ffffff;fill-opacity:1;fill-rule:evenodd;stroke:none"
     id="path30"
     d="m 178.17139,44.694698 36.64414,-0.0059 v 94.321592 -0.10584 c 0,0 -8.63699,5.50354 -18.62845,7.77801 0,0 -10.43216,-2.49319 -18.01569,-7.263 V 44.694752" /><path
     inkscape:connector-curvature="0"
     style="fill:#15366f;fill-opacity:1;fill-rule:evenodd;stroke:none"
     id="path32"
     d="m 139.97916,34.603744 1.35661,-5.901884 0.75032,0.05101 c -0.006,0.841731 0.0232,1.454442 0.0906,1.840302 0.11596,0.642017 0.37057,1.212396 0.76272,1.708427 0.36032,0.455869 0.77944,0.803741 1.25574,1.043072 0.48655,0.231192 1.02434,0.347872 1.61175,0.347872 1.04969,0 1.88199,-0.33539 2.49908,-1.002912 0.62571,-0.678378 0.97147,-1.462583 1.03242,-2.353157 0.0782,-1.106569 -0.89541,-2.503484 -2.91604,-4.193458 -2.0163,-1.765409 -2.97321,-3.397855 -2.86749,-4.89897 0.0966,-1.413738 0.64891,-2.617994 1.65598,-3.612223 1.01571,-0.99423 2.36639,-1.49026 4.05419,-1.49026 0.46767,0 0.94558,0.04658 1.43267,0.139968 0.32041,0.06129 0.60036,0.133416 0.84256,0.218212 l 0.6489,0.220247 c 0.14133,0.04229 0.28913,0.08095 0.43854,0.114416 0.15157,0.02555 0.28858,0.04025 0.40672,0.04025 0.30746,0 0.54588,-0.06557 0.71849,-0.192658 0.16829,-0.129111 0.32041,-0.288176 0.4531,-0.477035 h 0.77944 l -1.42619,5.27235 -0.68505,-0.09118 -0.0297,-0.860725 c -0.0545,-0.814053 -0.25676,-1.513597 -0.60684,-2.096459 -0.54965,-0.916081 -1.41378,-1.376291 -2.58915,-1.376291 -1.00762,0 -1.76387,0.369038 -2.27577,1.107111 -0.34144,0.487346 -0.53131,1.015396 -0.57123,1.581433 -0.0399,0.599687 0.0804,1.132077 0.36248,1.593916 0.16237,0.256698 0.41103,0.536189 0.74816,0.835219 l 2.13228,1.865808 c 0.75625,0.658842 1.38412,1.41374 1.88793,2.261983 0.50542,0.839017 0.71849,1.799599 0.64459,2.880662 -0.0966,1.388773 -0.7309,2.6435 -1.89818,3.767436 -1.15918,1.11471 -2.68894,1.670436 -4.58928,1.670436 -0.47845,0 -0.95691,-0.04667 -1.43482,-0.142184 -0.47198,-0.08466 -0.93587,-0.214368 -1.39275,-0.385861 l -0.64729,-0.243673 c -0.21684,-0.08466 -0.36626,-0.137848 -0.44879,-0.154664 -0.0841,-0.0255 -0.18124,-0.03853 -0.2929,-0.03853 -0.28858,0 -0.50327,0.07434 -0.64028,0.21871 -0.12838,0.137848 -0.2821,0.381518 -0.45957,0.733189 h -0.79401 v 0" /><path
     inkscape:connector-curvature="0"
     style="fill:#15366f;fill-opacity:1;fill-rule:evenodd;stroke:none"
     id="path34"
     d="m 152.65956,31.286659 c 0.41049,-0.37772 0.87816,-0.563867 1.40732,-0.566039 0.53725,0 0.97956,0.19266 1.32748,0.578521 0.35817,0.377179 0.51837,0.833048 0.48007,1.363268 -0.0377,0.540531 -0.26107,1.002369 -0.6721,1.38823 -0.40024,0.377722 -0.87006,0.566039 -1.40731,0.566039 -0.52701,0 -0.96932,-0.188317 -1.32749,-0.566039 -0.34737,-0.385861 -0.5038,-0.847699 -0.4655,-1.38823 0.0378,-0.540531 0.25675,-0.998572 0.65753,-1.37575 v 0" /><path
     inkscape:connector-curvature="0"
     style="fill:#15366f;fill-opacity:1;fill-rule:evenodd;stroke:none"
     id="path36"
     d="m 156.41007,34.604783 1.35445,-5.901882 0.75247,0.05101 c -0.009,0.83956 0.0211,1.454442 0.0885,1.840303 0.11597,0.642016 0.37057,1.212396 0.76272,1.708425 0.36032,0.45587 0.77944,0.801572 1.2579,1.043073 0.48492,0.231191 1.02217,0.345702 1.61175,0.345702 1.04752,0 1.87983,-0.333219 2.49908,-1.000743 0.62355,-0.678378 0.96931,-1.462582 1.03027,-2.353155 0.0782,-1.106569 -0.89543,-2.503484 -2.91605,-4.193458 -2.01631,-1.765952 -2.97321,-3.397857 -2.86749,-4.89897 0.0987,-1.41374 0.65107,-2.617994 1.65598,-3.612225 1.01572,-0.99423 2.36639,-1.490258 4.05419,-1.49243 0.46768,0 0.94613,0.04884 1.43483,0.143823 0.31826,0.0597 0.59821,0.131825 0.8404,0.216629 l 0.64891,0.220245 c 0.14123,0.04229 0.28911,0.08095 0.44069,0.114416 0.14946,0.02555 0.28642,0.03798 0.40671,0.03798 0.30531,0 0.54373,-0.06353 0.71633,-0.190398 0.17047,-0.129802 0.32042,-0.288176 0.45311,-0.477036 h 0.77944 l -1.42619,5.272351 -0.68289,-0.08901 -0.0318,-0.862895 c -0.0545,-0.814054 -0.25676,-1.513596 -0.60683,-2.096458 -0.54966,-0.916081 -1.41379,-1.376291 -2.58917,-1.376291 -1.00544,0 -1.76386,0.369035 -2.27575,1.106567 -0.33929,0.487889 -0.53133,1.01594 -0.56909,1.581435 -0.0421,0.600228 0.0782,1.132075 0.3625,1.594457 0.16026,0.256698 0.40887,0.53619 0.74599,0.835219 l 2.13229,1.865809 c 0.75624,0.658839 1.38411,1.413739 1.89008,2.26361 0.50326,0.839559 0.7185,1.800142 0.64243,2.879034 -0.0966,1.388774 -0.72873,2.643501 -1.89818,3.767436 -1.15918,1.114711 -2.68895,1.670437 -4.58928,1.670437 -0.47629,0 -0.95474,-0.04667 -1.43482,-0.140017 -0.47199,-0.08684 -0.93372,-0.216539 -1.39059,-0.388032 l -0.64945,-0.243673 c -0.21468,-0.08684 -0.3641,-0.137848 -0.44879,-0.154664 -0.0841,-0.0255 -0.1807,-0.03853 -0.29074,-0.03853 -0.29074,0 -0.50326,0.07218 -0.64243,0.21871 -0.12838,0.137848 -0.28211,0.381518 -0.45958,0.733189 h -0.79185 v 0" /><path
     inkscape:connector-curvature="0"
     style="fill:#15366f;fill-opacity:1;fill-rule:evenodd;stroke:none"
     id="path38"
     d="m 169.93087,31.286659 c 0.40886,-0.37772 0.87869,-0.566039 1.40731,-0.566039 0.53778,0 0.9801,0.19266 1.32747,0.578521 0.35655,0.377179 0.51839,0.833048 0.48063,1.363268 -0.0377,0.540531 -0.26109,1.002369 -0.67211,1.38823 -0.40024,0.377722 -0.87007,0.566039 -1.40732,0.566039 -0.52915,0 -0.96931,-0.188317 -1.32747,-0.566039 -0.34792,-0.385861 -0.50381,-0.847699 -0.46605,-1.38823 0.0382,-0.540531 0.2573,-0.998572 0.65754,-1.37575 v 0" /><path
     inkscape:connector-curvature="0"
     style="fill:#15366f;fill-opacity:1;fill-rule:evenodd;stroke:none"
     id="path40"
     d="m 239.32513,20.137707 c 2.29034,-2.700485 4.85629,-4.049098 7.69251,-4.05127 1.88792,0.0022 3.44088,0.572551 4.65455,1.714939 1.2115,1.1451 1.8205,2.692344 1.8205,4.644986 0,2.847013 -1.07236,5.550213 -3.21758,8.11068 -2.29248,2.745528 -4.92424,4.114765 -7.89908,4.114765 -1.8712,0 -3.39666,-0.569836 -4.57687,-1.714938 -1.17106,-1.15107 -1.75524,-2.685832 -1.75524,-4.604282 0,-2.887175 1.09393,-5.626191 3.28121,-8.21488 z m 0.80912,12.032788 c 0.41912,1.057726 1.17968,1.585774 2.2817,1.585774 1.03242,0 1.97423,-0.381519 2.82109,-1.146729 0.84525,-0.773893 1.7218,-2.245158 2.62585,-4.411623 0.57285,-1.367609 1.02163,-2.806855 1.34635,-4.320451 0.32419,-1.513595 0.48655,-2.736846 0.48871,-3.676263 0,-0.885689 -0.21892,-1.640588 -0.65538,-2.270122 -0.43584,-0.636046 -1.11442,-0.951899 -2.03735,-0.95407 -2.17866,0 -4.0121,1.9483 -5.4998,5.842729 -1.12898,2.957183 -1.69158,5.420508 -1.69158,7.389972 0,0.76521 0.10511,1.41808 0.32041,1.960783 v 0" /><path
     inkscape:connector-curvature="0"
     style="fill:#15366f;fill-opacity:1;fill-rule:evenodd;stroke:none"
     id="path42"
     d="m 202.71445,27.856285 -0.0798,-6.42342 -4.77861,6.421249 4.85845,0.0022 v 0 z m -11.69382,5.906225 c 0.50758,-0.146537 0.88894,-0.305541 1.14408,-0.477035 0.37705,-0.250186 0.82152,-0.712567 1.33558,-1.393116 L 205.4034,16.36403 h 0.67858 l 0.41264,15.102308 c 0.0297,1.015395 0.14784,1.63679 0.35601,1.870152 0.2066,0.224678 0.71255,0.366323 1.51735,0.42602 l -0.0885,0.631706 h -7.96059 l 0.0885,-0.631706 c 0.75842,-0.0597 1.30429,-0.180177 1.63927,-0.362524 0.34144,-0.18886 0.55397,-0.574721 0.63434,-1.159754 0.0276,-0.197001 0.0464,-0.669694 0.0566,-1.418081 0.005,-0.154664 0.008,-0.795058 0.0113,-1.922792 h -5.65353 l -1.91273,2.68366 c -0.12673,0.180177 -0.24868,0.377178 -0.36249,0.591546 -0.10785,0.215995 -0.17531,0.421679 -0.20228,0.621392 -0.0508,0.360355 0.0232,0.593175 0.22332,0.695203 0.20821,0.103655 0.65322,0.192658 1.33557,0.27135 l -0.0885,0.631706 h -5.15565 l 0.0885,-0.631706 v 0" /><g
     id="g3325"
     transform="matrix(1.9699408,0,0,-1.9698836,-7.8343596,232.37299)" /></g></svg>