<svg xmlns="http://www.w3.org/2000/svg" xml:space="preserve" width="100" height="123" viewBox="0 0 100 123"><title>S.S. Lazio shield</title><path d="M223.206-3.75h40.843v89.66s1.604 61.34-67.538 81.59c0 0-62.43-12.62-69.431-80.415V-3.309h31.797z" style="fill:#15366f;fill-opacity:1;fill-rule:evenodd;stroke:none" transform="translate(-85.236 4.445)scale(.69216)"/><path d="M222.062-.945h39.153v85.95s1.538 58.803-64.744 78.217c0 0-59.846-12.098-66.56-77.089V-.52h30.485z" style="fill:#fff;fill-opacity:1;fill-rule:evenodd;stroke:none" transform="translate(-85.236 4.445)scale(.69216)"/><path d="M217.612 42.066h32.579v42.29s1.281 48.93-53.871 65.082c0 0-49.8-10.067-55.384-64.144V42.126H166.3z" style="fill:#15366f;fill-opacity:1;fill-rule:evenodd;stroke:none" transform="translate(-85.236 4.445)scale(.69216)"/><path d="M216.518 44.731h30.964v40.191s1.215 46.501-51.2 61.854c0 0-47.327-9.57-52.634-60.963V44.786h24.104z" style="fill:#87d8f7;fill-opacity:1;fill-rule:evenodd;stroke:none" transform="translate(-85.236 4.445)scale(.69216)"/><path d="M176.109 33.542q.916-.114 1.357-.464.44-.347.729-1.43l3.154-11.854q.136-.502.2-.84.076-.345.076-.605 0-.669-.364-.838-.366-.18-1.521-.284v-.683h8.166v.683q-1.344.143-1.81.439-.465.283-.777 1.456l-3.342 12.614q-.05.206-.089.388a3 3 0 0 0-.025.426q.001.438.377.632.376.18 1.056.18 2.65 0 4.572-.929 1.937-.927 3.405-3.47l.616.117-1.507 5.134h-14.273zm33.129-.089 12.85-15.98h-2.036q-2.495.065-4.32 1.276-1.186.79-2.657 2.606l-.708-.102 1.907-4.709h12.271l-.07.774-12.827 15.98h1.858q2.207 0 3.73-.542 2.78-.992 4.556-3.791l.695.117-2.01 5.132H209.17zm15.755.089q.934-.114 1.384-.464.448-.347.744-1.43l3.217-11.854q.142-.502.205-.84.078-.345.078-.605c0-.446-.127-.725-.373-.838q-.371-.18-1.551-.284v-.683h7.809v.683q-.964.13-1.4.464-.421.338-.716 1.431l-3.232 11.855-.204.916-.051.27a2 2 0 0 0-.013.245q-.001.671.358.85.358.181 1.55.284v.672h-7.806z" style="fill:#15366f;fill-opacity:1;fill-rule:evenodd;stroke:none" transform="translate(-85.236 4.445)scale(.69216)"/><path d="m178.171 44.695 36.645-.006v94.321-.105s-8.637 5.503-18.629 7.778c0 0-10.432-2.494-18.016-7.263z" style="fill:#fff;fill-opacity:1;fill-rule:evenodd;stroke:none" transform="translate(-85.236 4.445)scale(.69216)"/><path d="m139.98 34.604 1.356-5.902.75.05q-.01 1.263.09 1.841.175.964.763 1.709.541.683 1.256 1.043a3.7 3.7 0 0 0 1.612.348q1.574-.001 2.499-1.003.94-1.018 1.032-2.354.117-1.658-2.916-4.193-3.025-2.647-2.867-4.899a5.44 5.44 0 0 1 1.656-3.612q1.523-1.49 4.054-1.49a7.6 7.6 0 0 1 1.433.14q.48.09.842.218l.65.22q.211.063.438.114.228.04.406.04.46 0 .719-.192.253-.194.453-.477h.78l-1.427 5.272-.685-.09-.03-.862q-.081-1.221-.606-2.096-.826-1.375-2.59-1.376-1.509 0-2.275 1.107a3.1 3.1 0 0 0-.571 1.581q-.06.9.362 1.594.243.386.748.835l2.132 1.866a9.2 9.2 0 0 1 1.888 2.262q.757 1.26.645 2.88-.146 2.084-1.898 3.768-1.74 1.671-4.59 1.67-.717.001-1.434-.142a8 8 0 0 1-1.393-.385l-.647-.244a3.5 3.5 0 0 0-.45-.155 1 1 0 0 0-.292-.038q-.434.001-.64.218-.193.206-.46.734zm12.68-3.317q.614-.565 1.407-.566.806 0 1.327.578.538.567.48 1.363a2.04 2.04 0 0 1-.672 1.389q-.6.566-1.407.566-.791 0-1.327-.566a1.8 1.8 0 0 1-.466-1.389q.057-.81.658-1.375m3.75 3.318 1.355-5.902.752.05q-.013 1.261.088 1.841.174.964.763 1.709.54.682 1.258 1.043a3.7 3.7 0 0 0 1.612.345q1.57 0 2.499-1c.623-.679.97-1.463 1.03-2.353q.116-1.66-2.916-4.194-3.025-2.648-2.867-4.899.147-2.121 1.656-3.612 1.522-1.49 4.054-1.493.702.002 1.435.144.477.09.84.217l.649.22q.213.064.44.115.226.038.407.038.458 0 .717-.19.254-.195.453-.478h.78l-1.427 5.272-.683-.089-.032-.862q-.081-1.222-.606-2.097-.826-1.375-2.59-1.376-1.507 0-2.275 1.106a3.1 3.1 0 0 0-.57 1.582q-.063.9.363 1.594.24.386.746.835l2.132 1.866a9.3 9.3 0 0 1 1.89 2.264q.756 1.26.643 2.879-.145 2.082-1.898 3.767-1.74 1.671-4.59 1.67-.714 0-1.434-.14a8 8 0 0 1-1.391-.387l-.65-.244a3 3 0 0 0-.448-.155 1 1 0 0 0-.291-.038q-.434 0-.642.219-.194.205-.46.733zm13.52-3.318q.615-.566 1.408-.566.806 0 1.328.578.535.567.48 1.363a2.04 2.04 0 0 1-.672 1.389q-.6.566-1.407.566-.793 0-1.328-.566-.522-.578-.466-1.389.058-.81.658-1.375m69.394-11.149q3.436-4.05 7.693-4.052 2.833.003 4.654 1.715 1.819 1.717 1.82 4.645 0 4.27-3.217 8.111-3.437 4.117-7.899 4.115-2.807.001-4.577-1.715-1.755-1.727-1.755-4.604 0-4.332 3.281-8.215m.81 12.032q.627 1.587 2.281 1.586 1.55 0 2.821-1.146 1.269-1.162 2.626-4.412a24.4 24.4 0 0 0 1.346-4.32q.486-2.269.489-3.677 0-1.326-.655-2.27-.654-.953-2.038-.954-3.268 0-5.5 5.843-1.692 4.435-1.691 7.39-.001 1.147.32 1.96m-37.42-4.314-.08-6.423-4.778 6.421zm-11.693 5.907q.761-.22 1.144-.478.565-.373 1.335-1.393l11.903-15.528h.679l.413 15.102q.044 1.522.356 1.87.31.337 1.517.427l-.089.631h-7.96l.088-.631q1.138-.09 1.64-.363.513-.283.634-1.16.041-.296.057-1.418.007-.232.01-1.923h-5.653l-1.912 2.684q-.191.27-.363.592a2 2 0 0 0-.202.621q-.076.541.223.695.312.155 1.336.272l-.089.631h-5.155z" style="fill:#15366f;fill-opacity:1;fill-rule:evenodd;stroke:none" transform="translate(-85.236 4.445)scale(.69216)"/></svg>