<svg xmlns="http://www.w3.org/2000/svg" width="283.064" height="353.277" viewBox="0 0 799.97 998.8"><defs><style>.cls-1{fill:#002856;stroke-width:0}</style></defs><path d="M399.87 998.76a704 704 0 0 1-102.14-96.71c-34.97-40.45-66.6-83.7-94.61-129.26-49.12-79.67-88.1-165.2-119.07-253.4a1515.4 1515.4 0 0 1-67.81-274.95C8.21 191.14 3.12 137.41 1.03 83.54.37 65.8.09 48.06 0 30.34v-9.05c69.46 9.79 139.71 12.74 209.74 8.8C273.89 26.71 337.98 17.67 399.82.04c.18-.05.42-.05.6 0 43.09 12.66 87.81 20.49 132.42 25.31 88.89 9.55 178.6 8.12 267.12-4.22.4 122.19-14.31 243.94-43.78 362.52a1458.4 1458.4 0 0 1-92.5 264.96 1136 1136 0 0 1-120.23 202.74 814 814 0 0 1-98.64 109.69c-14.35 13.27-29.34 25.82-44.77 37.75l-.16-.04Z" style="stroke-width:0;fill:#c89c66"/><path d="M362.76 951.44c-73.68-68.33-134.74-153.6-182.1-242A1379.7 1379.7 0 0 1 74.6 450.31a1515.4 1515.4 0 0 1-60.34-345.29c-1.34-23.2-1.87-46.53-2.11-69.81a1093.7 1093.7 0 0 0 203.29 6.74C277.66 38.32 339.7 29.51 399.8 12.7c.18-.05.42-.05.6 0a663 663 0 0 0 83.1 18.49c83.61 13.45 168.98 15.91 253.4 9.48 17.03-1.3 34.02-3.12 50.99-5.3-.66 93.43-10.19 186.61-28.48 278.23-17.91 90.98-44.41 180.03-79.1 266.01-33.39 82.57-74.32 161.04-124.92 234.39a838.5 838.5 0 0 1-113.08 132.89c-13.53 12.81-27.69 24.98-42.19 36.58-12.9-10.21-25.42-20.88-37.37-32l.02-.04Zm25.71-692.72c4.84.51 9.73.6 14.57.31a78.7 78.7 0 0 0 31.01-9.82c.51-3.59.44-7.22-.18-10.78-4.23 3.87-9.09 6.98-14.35 9.26-12.54 5.21-25.31 4.86-35.87-4.51-15.82-14.15-18.27-39.81-14.99-59.53 3.52-21.22 18.46-35.63 40.69-32.6 3.48.48 15.12 3.35 15.96 7.28.79 4.29 1.15 8.61 1.14 12.96l5.5-.95c1.59-7.72 3.04-15.43 4.09-23.2-12.72-4-26.15-5.21-39.4-3.56-20.73 1.94-38.54 15.56-45.87 35.06a79.8 79.8 0 0 0-3.68 39.94c2.97 21.15 19.79 38.34 41.38 40.17l.02-.02Zm59.55 80c5.92 1.1 12.99-.71 16.77-5.59 3.24-4.22 5.17-10.08 3.1-15.19-1.76-4.34-6.03-6.54-10.03-8.43a25.4 25.4 0 0 0 5.42-4.22c3.21-3.12 4.23-7.86 2.64-12.04-2.68-6.14-10.54-7.68-16.62-6.07-5.97 1.54-10.15 6.89-10.15 13.05.13 5.21 3.34 9.84 8.14 11.86a15.75 15.75 0 0 0-9.77 14.11c.02 6.16 4.44 11.42 10.48 12.54zm-43.77-216.23c1.37.71 2.95.86 4.44.44a6.476 6.476 0 0 0 4.51-7.73c-.88-3.35-4.33-5.37-7.68-4.51a6.317 6.317 0 0 0-4.62 7.66c.48 1.8 1.7 3.3 3.35 4.16zm8.25 216.3c4.66 1.3 9.68.09 13.23-3.21 7.17-7.66 7.07-19.17 6.82-29.07-.18-7.11-1.91-16.09-9.26-18.99-4.22-1.69-10.26-1.63-13.95 1.45-4.93 4.09-6.73 9.48-7.51 15.67-1.17 9.95-1.58 30.79 10.74 34.13h-.05zm64.64-216.17c1.39.7 2.99.79 4.45.22a6.326 6.326 0 0 0 4.09-7.95.9.9 0 0 0-.11-.29 5.9 5.9 0 0 0-3.3-3.61c-3.1-1.23-6.65.04-8.25 2.97a6.3 6.3 0 0 0 2.77 8.5c.11.05.22.13.33.16zm-106.41 1.13c1.06 0 2.11-.11 3.17-.27 6.1-1.69 12.11-3.63 18.03-5.77l-1.48-4.22c-2.22.71-6.16 2.11-8.3.81a5.6 5.6 0 0 1-1.39-3.54c-.73-9.27-.95-18.58-.6-27.88.16-9.97.66-19.94 1.48-29.87l-15.47 4.49c.79 12.44.82 24.93.84 37.41.26 4.45.02 8.91-.66 13.31a6.32 6.32 0 0 1-2.6 3.39c-4.56 3.61-10.54 6.05-16.46 4.47-9.35-2.49-10.19-11.8-10.23-19.89 0-14.3.22-28.55-.16-42.81-7.5 2.02-15.1 3.63-22.78 4.78v4.22c1.67 0 9.05-.71 9.18 1.54.82 14.41.22 28.76.93 43.09.13 3.96 1.63 7.77 4.22 10.76 4.66 4.93 11.01 6.32 17.63 6.05 7.57-.44 14.83-3.21 20.75-7.94.02 2.33.44 8.23 3.9 7.88Zm63.28-.71c11.29 2.33 27.27-.71 33.04-11.62 2.36-4.23 3.02-9.24 1.81-13.95-3.76-11.55-16.6-14.59-25.97-20.58-1.08-.81-2.02-1.76-2.8-2.84-2.75-4.62-1.98-11.44 3.54-13.75 4.64-1.8 9.92-.59 13.32 3.04l.11 7.66 4.22-1.06 2.29-14.22c-1.98-.73-4.05-1.26-6.14-1.59-9.49-1.37-21.9 0-27.93 8.43-4.05 5.63-4.66 14.04-.15 19.63 5.85 7.31 16.16 9.05 23.04 15.12 4.78 5.11 4.51 13.1-.57 17.89-1.12 1.06-2.4 1.87-3.83 2.47-7.88 2.49-14.41-3.46-18.46-9.6l-6.8 10.25a31.9 31.9 0 0 0 11.31 4.73h-.05.02Zm75.4 135.66a75.3 75.3 0 0 0 45.6-9.51c.53-3.59.46-7.24-.13-10.81a50.7 50.7 0 0 1-21.41 11.6c-10.12 2.75-20.95.16-28.77-6.82-16.13-14.94-18.49-39.64-14.92-60.17 3.67-21.09 18.62-34.86 40.52-31.96 3.52.46 15.16 3.34 15.98 7.28.81 4.25 1.17 8.61 1.12 12.96l5.57-.95c1.59-7.72 3.02-15.43 4.07-23.2a88.5 88.5 0 0 0-24.21-4.22c-25.48-1.78-50.09 9.59-60.28 33.74-7.42 17.81-7.55 37.85-.31 55.75 6.29 14.72 21.44 24.78 37.22 26.32h-.05Zm-357.68-1.84c22.19-.86 44.3-.79 66.57 0l.95-15.01c-14.15 5.7-30.06 7-45.2 6.96-2.11-35.5-1.1-71.06-.71-106.56-12.32 3.1-24.71 5.85-37.22 8.01l1.21 5.46c3.92-.13 7.81 0 11.69 0 1.41 0 1.23.38 2.11 1.21.15.59.24 1.21.29 1.81 1.14 12.61 1.59 25.29 1.41 37.97-.05 20.23-.27 40.27-1.08 60.15l-.02-.02Zm165.78 0h.81l1.17-14.86c-15.23 5.3-31.85 6.58-47.83 6.6-1.08-16.18-1.28-32.44-.97-48.66 11.62 0 23.2.59 34.82 1.52l1.01-10.54c-11.89 1.23-23.86 1.54-35.87 1.63l1.26-40.08c3.96 0 7.95.27 11.93.51 5.3.37 13.47.57 18.4 2.11.44.15.82.4 1.1.75l.97 13.98 5.3-.46 3.3-25.18c-17.76.81-36.34-.66-53.74.46-8.61.57-16.88 3.52-25.31 5.3l1.17 5.74c4.03-.33 8.1-.33 12.13 0 .46.11.93.27 1.37.48.51.59.82 1.34.84 2.11 2.11 32.81.97 65.8 0 98.66 22.76-.79 45.47-.75 68.12.05v-.11Zm344.63 0h.68l1.17-14.92c-15.19 5.42-31.87 6.56-47.91 6.67-1.03-16.2-1.26-32.46-.95-48.68 11.58 0 23.2.57 34.64 1.52l1.17-10.54c-11.86 1.23-23.81 1.54-35.7 1.63 0-13.32.6-26.72 1.21-40.08 4.88 0 9.77.22 14.66.57 5.33.4 11.33.4 16.44 2.25.29.71.48 1.48.57 2.24.37 4.07.6 8.14.73 12.26l5.31-.48 3.3-25.31c-17.76.86-36.2-.57-53.59.51-8.67.57-17.03 3.52-25.49 5.3l1.17 5.68c4.09-.29 8.21-.26 12.28.16 1.01 0 1.87.79 1.96 1.8.81 10.94 1.17 21.96 1.21 32.95 0 21.52-.33 43.05-.99 64.62v1.87c22.73-.7 45.45-.81 68.16.11v-.11l-.04-.04Zm-305.98 81.21h.82v-2.33c-2.33.02-4.64-.24-6.91-.71-.55-.51-.88-1.21-.97-1.94-.64-15.56 0-30.72.24-46.24-.11-.4-.33-.75-.66-1.03-5.59 2.84-11.38 5.28-17.34 7.24l.44 3.78c3.04-1.54 6.16-2.88 9.2-4.38.22-.09.42-.15.64-.22.31 0 .6.16.93.26 0 13.53.53 27.14-.59 40.6-.05.97-.71 1.8-1.63 2.11-2.14.33-4.34.53-6.52.57l.16 2.29c7.4-.16 14.77-.22 22.19 0l-.02.02Zm14.55 1.09 1.28-.26a32.4 32.4 0 0 0 20.44-15.93c4.66-8.82 6.32-25.97-2.11-33.04a15.33 15.33 0 0 0-18.35-.79 18.69 18.69 0 0 0-6.32 20.55c1.83 6.27 8.14 10.1 14.55 8.85 3.81-.6 6.32-3.81 9.22-6.01-.7 13.36-9.77 22.08-22.34 25 .68.57 2.75 1.92 3.63 1.63m67.26 507.72.64.24 1.23-.26c-1.1-.82-2.07-1.81-2.84-2.93 0 .11-.18 2.47.33 2.8.09.13.33.09.66.15zm-63.28 30.17c.16.26.37.48.51.73.46-.93.75-1.96.82-2.99-.71-4.09-.51-7.04-.93-10.78-.38-1.03-.66-2.09-.86-3.17.55-1.94 1.21-3.83 1.96-5.7.02-1.7-.16-3.41-.57-5.08-.71-1.41-1.26-2.9-1.65-4.44.15-2.91 1.3-7.26 1.37-10.12-.29-3.23-.09-6.45.64-9.62.44.11 2.64 1.72 3.39 2.11.04 1.69.71 3.32 1.91 4.51l1.25-.86c-.37-.4-.71-.84-1.03-1.28-.26-.38-.38-.82-.38-1.26a8.48 8.48 0 0 0-2.25-5.59c1.03-2 1.76-4.71 2.71-6.43 1.26-2.33 2.93-2.22 2.8-5.26l2.69-2.77c.26 3.5.9 5.96 1.41 9.27.11.73-.68 3.21-.48 3.78.51 1.43.82 2.93.9 4.45-.13 1.76-.84 3.45-1.08 5.08.13 1.26.31 2.55.57 3.79-.51 3.63-1.28 7.24-2.33 10.76-.22 1.06.22 3.48 0 4.44s-1.26 2.42-1.21 3.19c0 1.78-.33 3.32-.33 5.06v.6c.6 1.36 1.65 2.91 1.17 4.45.18.38.48 1.54.6 1.12.97-2.05.79-4.47-.51-6.32.75-1.54.99-3.24.71-4.93.68-.95 1.15-2.05 1.43-3.19.18-1.54.24-3.1.16-4.64 2.25.81 4.09 2.47 5.11 4.64l2.11.26 1.01 3.92c.44-1.54.44-3.13 0-4.67a58.6 58.6 0 0 0-6.96-6.95c.29-3.04.79-6.03 1.43-9 .33-2.75.46-5.48.33-8.25.38-.95 1.45-2.11 1.34-3.17-.24-2.11.31-7.18 2.75-7.83.88-2.69.53-3.76 3.34-5.22.71 2.13 1.96 4.05 3.61 5.59.04 2.18.59 4.29 1.59 6.19.24 1.69.24 3.37 0 5.06-.64 1.5-1.91 2.99-2.6 4.45-.18.4-.18.84 0 1.25.66 1.94.86 4 .6 6.01 1.65 2.36.66 5.83-.4 8.25a34.7 34.7 0 0 1 1.15 7.29c-.11.44 0 .9.29 1.26a6.16 6.16 0 0 1 1.3 4.42c-.46 2.79-1.3 5.46-1.91 8.25-.37.27-1.03.73-1.26.88-.57 2.62-.71 5.31-.48 7.99v.48h1.43c-.05-2.11.04-4.23.33-6.32.4-1.15 1.12-2.18 2.11-2.91l3.21 1.01c.16.18.44.38.51.6.44 1.7 1.8 1.7 2.84 2.46s1.15 1.54 1.7 2.68c.24.48.57.46.7 0 .04-.59 0-1.21-.13-1.8a10.6 10.6 0 0 1-3.3-4.22l-4.8-2.99c-.02-.82.05-1.63.24-2.42.16-.48 1.41-2.88 1.45-3.17-.09-2.29-.44-4.6-1.08-6.82 1.3-.33 2.68-.15 3.83.53 1.8 1.36 3.46 2.8 5.04 4.38 3.54.48 3.63 1.92 4.89 4.93 1.59.93 3.3 2.68 4.62 3.34.81.38 1.83.51 1.15 0-1.25-1.01-2.42-2.11-3.56-3.24l-.6-.55c-.59-1.91-1.63-3.63-2.99-5.06-1.45-.55-2.88-1.23-4.22-2-.88-.71-1.54-1.7-1.87-2.8-.16-.22-.4-.38-.66-.48-2.05-.97-4.01-2.13-5.83-3.48-.24-.18-.4-.44-.48-.71-1.08-3.23 1.69-6.07 1.08-8.25-.71-1.81-.93-3.78-.6-5.7.64-2.66 2.57-6.52 2.95-8.85.27-3.83-.05-7.7-.97-11.44.55-1.39 1.25-2.71 2.11-3.94 1.1.42 2.07 1.14 2.75 2.11.48 2.64 1.37 5.19 2.62 7.57a10.7 10.7 0 0 0 0 3.19c1.06 3.08 1.81 6.27 2.27 9.49l-1.92 1.43c-.51.73-.33 2.11-1.58 3.67-.24 2.53-.18 5.08.13 7.61v.22l1.01-.31c-.44-2.09-.37-4.25.22-6.32a24 24 0 0 1 1.92-2.88c.6-.6 1.37-1.03 2.22-1.23.48 3.17.82 6.52 1.26 9.79-.16.84-.27 1.69-.31 2.53.04 1.98.51 3.92 1.39 5.7.66 1.67 2.93 1.92 4.36 3.13 1.78 1.54 3.39 3.24 4.84 5.11.18.16.37.4.46.64.53 2.36 1.26 4.66 2.24 6.87l.81.24c.16-1.26-.66-4.45-.59-6.32-1.41-1.87-2.46-3.92-3.67-5.9a7.5 7.5 0 0 0-2.95-1.96c1.28-.31 2.6-.51 3.9-.55 1.65.68 3.45.93 5.21.79 2.64 1.21 5.37 2.27 8.19 3.24.48 2.42.73 4.89.79 7.39 0 .42.57 1.63.6 1.15.15-2.42.15-4.86 0-7.28 4.01.46 4.22.97 7.4 3.19l.97-.38c-1.37-1.26-3.24-2.38-4.77-3.68-3.89-1.52-6.82-3.78-10.78-5.3-4.47-1.36-9.9-1.91-14.44-2.97v-1.21l.27-3.19-1.83-4.44-.53-9.49-2.22-4.45-.93-5.7-3.37-8.25-.31-1.25c-.27-.88.02-1.83.73-2.42a76 76 0 0 1 5.19 8.12c.73 2.05 1.25 4.18 1.5 6.32.09.38.37.71.71.88 2.05 1.25 3.79 2.93 5.13 4.93l7.11 2.49c-1.3 1.65-.38 5.72-.68 8.16.75 1.34 1.01 2.95 1.72 4.36.4.84.55-.27.4-1.21-.22-1.28-.55-2.57-1.01-3.79 0-.24 0-.44.15-.66.42-2.11.73-3.76 1.08-5.79.31-.22.82-.93 1.01-.57l1.23 2.46c.97-.13 1.96.02 2.84.42 2.88 2.69 6.6 4.31 10.54 4.49-.33.53-.26 1.56-.51 2.11.59 1.94 1.56 3.76 2.88 5.31.38.31.6.79.6 1.28 0 1.08.18 2.14.53 3.17.9.93 2.27.71 2.75 2.11a6.89 6.89 0 0 1 6.85 4.95l.93-.81c-.55-1.1-1.21-2.11-1.94-3.08-.93-.95-1.94-1.8-3.06-2.51-.97-.48-2.02-.82-3.1-1.01a2.7 2.7 0 0 1-.6-1.01c-.9-3.32-2.09-6.56-3.52-9.68 1.3-.22 3.04.15 4.71-.15.86.15 1.72.4 2.53.73 1.83 1.7 3.74 4.51 5.7 6.32a10 10 0 0 0 6.32 2.4c1.03 1.43 6.32 3.74 8.25 4.95.71.6 1.37 1.34 1.91 2.11.44.53.53-.29.22-.9-.38-.71-.84-1.37-1.39-1.96-1.85-1.83-4.22-2.84-5.96-4.42.59-.68 1.37-1.14 2.24-1.39 3.32.44 6.65.66 9.97.64l.95-.97c-2.27-1.03-4.8-1.37-7.28-1.01a7.9 7.9 0 0 1-3.81-1.1c-.4-.15-.86-.15-1.26 0-1.83.48-3.65 1.1-5.44 1.72-.4-.31-4.93-4.44-5.02-4.73a9.8 9.8 0 0 0-2.84-3.92c-1.81-.75-3.74-1.26-5.7-1.48-2.35.15-4.67-.09-6.96-.66-2.18-.66-4.22-1.69-6.03-3.08a8.3 8.3 0 0 1 2.22-.51c1.69-.13 3.39.13 4.99.71.82-.4 1.72-.64 2.64-.66 2.55.22 5.17.24 7.61.46 2.05.38 3.96 1.15 5.7 2.33.4.18.84.24 1.26.11 1.43-.31 2.84-.73 4.22-1.26l-.37-1.06c-1.52.71-3.24.81-4.84.22 0-1.56.37-3.1 1.01-4.51 0-.42-.15-.88-.24-1.3-.82 1.81-1.96 3.46-3.35 4.89-.81-.75-1.8-1.28-2.88-1.52-4.44-.22-8.71-.88-12.66-.93-1.91.26-3.79.4-5.7.42-4.07-.46-4.33-2.97-6.96-3.68-1.34-.38-3.92-.22-5.06-.71-1.41-.73-2.71-1.69-3.87-2.82-.24-.22-.55-.37-.66-.66-.73-3.74-2.69-7.13-5.57-9.64.4-.97 1.41-1.58 2.47-1.48 1.17.82 2.38 1.67 3.52 2.57 1.12-.33 2.29-.4 3.46-.18 1.63.71 3.13 1.59 4.58 2.66 1.41-.18 2.82-.11 4.22.22 2.51.79 7.04 3.04 9.49 3.52 1.43.29 4.34-.68 5.72-.48 2.62.68 5.15 1.58 7.59 2.75 0 0 .59.13.64.16 1.25-.38 2.55-.46 3.81-.18 1.03.33 2.27 1.37 3.17 1.65 1.85.26 3.76-.24 5.26-1.36 3.13 1.85 6.47 3.37 9.93 4.53 1.67.29 3.37.38 5.08.26l1.21-.97c-3.23-.46-6.41-1.28-9.46-2.47-1.81-.81-5.48-3.59-6.98-4.03-3.17-.86-7.79.27-10.74-.15-2.24-.31-4.95-2.42-6.98-3.02-2.91-.6-5.92-.71-8.89-.37-2.91-1.41-5.64-3.1-8.23-5.06-1.48-.09-2.97-.24-4.44-.48-2.27-.7-4.34-1.94-6.01-3.63-.57-.57-.64-1.45-.16-2.11-.44-.33-.93-.6-1.43-.84a87 87 0 0 1-10.08-4.64c-.22-.13-.4-.33-.51-.57a22 22 0 0 0-5.19-6.05c0-.42-.13-4.36-.24-4.73-.66-2.11-2.82-6.32-3.21-8.23-.26-2.75-.68-5.46-1.25-8.14.44-1.48.82-2.99 1.12-4.51 0-1.91-.27-8.98.59-10.15-.59-1.41-.99-2.91-1.21-4.45 0-2.55.6-5.08.82-7.59.26-4.88.16-9.77-.29-14.63 3.02.57 6.1.75 9.18.59.71.73 1.65 1.21 2.66 1.34 1.08-.18 2.18-.04 3.17.42 5.04 2.4 9.09 6.52 11.38 11.62 1.17 2.38 3.63 7.35 3.56 9.53-.02.48.22.95.6 1.25.95.82 2.75 1.81 2.99 3.17.57 3.13.75 6.32.57 9.51-.31 1.67-.75 3.32-1.36 4.91-1.03.51-2.11.88-3.23 1.12-1.91.42-5.86.84-8.21 1.3-.55.11-1.03.4-1.39.81-.37.59-.53 1.28-.48 1.98-.57.88-2.49 1.94-2.27 3.17.13.86-.02 1.78-.42 2.55.04.4.11.81.18 1.21.38.16.81.27 1.23.27 3.79-.27 7.61-.27 11.42 0 .95-.51 3.26-2.69 4.22-3.35.13-1.5.88-2.9 2.11-3.78 1.65-1.25 3.34-2.11 5.02-3.19.33-.4.66-.81.93-1.25.53-1.7 1.5-3.23 2.8-4.45.48-.99.7-2.07.66-3.17-.11-1.17-.75-2.24-1.76-2.84-.05-.31-.05-.64 0-.95.86-3.1-1.67-4.64-1.63-6.98s.75-4.89.81-6.96c.05-.51.27-.97.64-1.34 2.14-.88 4.14-2.11 5.9-3.61.48 2.14 1.3 4.22 2.46 6.12 2.13 2.66 4.67 4.95 7.55 6.8 1.63.99 2.77 1.08 3.94 2.64 4.38 1.1 9.55 1.92 13.78 3.17.86.24 3.59 1.72 4.45 1.81s2.38-.22 3.56-.27c.26.15.48.31.7.51.86.9 1.65 2.11 2.46 3.21.99 2.02 1.8 4.16 2.38 6.32q.03 2.535-.33 5.04c-.11.48-.33.93-.68 1.28a9.1 9.1 0 0 1-6.65 2.22c-.79 1.06-1.81 1.91-3.02 2.4 0 .79-.42 2.91.29 3.39 2.24 1.43 4.64 2.11 6.98 3.87.37.27.82.37 1.26.26 1.98-.51 5.19-1.12 6.98-1.81.88-.37 1.72-.84 2.47-1.45 0-.68.46-2.93.57-3.79 1.21-1.15 1.85-2.77 1.85-4.44-.46-3.41-1.54-6.73-3.13-9.79a8.7 8.7 0 0 0-1.92-6.32c.37-1.58.26-3.24-.33-4.77-1.54-2.88-4.78-3.48-7.73-3.63a31.5 31.5 0 0 0-6.98-4.93c-.24-.18-.42-.38-.6-.6-1.23-2.11-3.3-5.86-4.22-7.94a22.9 22.9 0 0 1-1.43-8.85c-.13-3.12 2.66-6.71 3.65-9.53 2.11-5.85-.82-11.45-2.53-17.1-.13-.4-.24-.82-.33-1.25l1.37-.27a38 38 0 0 1 3.56 3.76c1.12 2.02 2.47 3.9 4.05 5.61l.59 2.11c.4.15 1.85.86 1.87 1.41.15 2.14.59 4.29 1.28 6.32.11.24.26.44.44.6.81.79 3.35 2.79 2.91 4.01.84.44 2.79 1.28 3.06 2.36 1.01 4.22 5.74 4.66 7.94 7.61.71.95 1.69 4.22 2.49 5.11s2.11.95 3.23 1.63c1.72 1.59 2.97 3.65 3.59 5.92.05.99.05 1.96 0 2.95l2.71 1.65v1.48l3.1 1.69.4 2.51h.99c.16-.22.27-.46.42-.68.26-.38.42-.81.53-1.25-.26-.95-.38-3.79.38-4.51l-1.26-4.93c.81-.31 1.28-1.12 1.17-1.96-.84-2.25-1.98-4.38-3.39-6.32a1.73 1.73 0 0 1-.29-1.28 5.85 5.85 0 0 0-.73-4.73c-2.9-4.77-6.32-9.73-9.55-14.24-1.12-1.59-3.81-2.11-5.06-3.17-1.63-1.41-3.21-4.36-4.78-5.72-.82-.75-1.98-1.21-2.77-1.98-.95-3.26-2.4-8.06-5.72-9.7-2.25-1.14-4.6-2.13-6.98-2.95-.86-.31-5.11-.51-5.7-.88-3.81-2.46-7.57-6.16-11.42-8.67-2.11-1.45-4.45-2.55-6.95-3.19-5.44-1.25-10.94-2.14-16.49-2.68a71.5 71.5 0 0 0-15.82.38c-5.88-1.01-10.15-.48-15.83-.86-2.24-.26-4.77-.51-6.69-.9-.73-4.71-1.23-9.46-1.45-14.2-.02-.79.26-1.54.79-2.11l-.95-2.53c2.69-4.07-.13-4.64.18-7.94.22-2.11 1.65-4.22 1.81-6.32.27-3.63-.73-7.31-.81-10.78 0-4.38.81-8.93.6-13.31s-1.56-9.51-1.78-13.29c.05-3.81.33-7.64.81-11.44.24-1.56.75-3.04 1.54-4.42 2.57-2.55 6.47-5.46 8.89-8.25 2.51-3.35 4.67-6.98 6.47-10.78.26-.51 1.23-1.85 1.12-1.3-.66 3.67-.7 7.29 2.8 9.48.37-.38.68-.75.97-1.17.24-1.17.84-2.24 1.72-3.06.4.68 1.54.53 2.11.53.16-1.15.68-2.25 1.48-3.12l2.9 2.35 1.39-.55c.18-2.11.24-4.22.13-6.32-.02-.51.16-.99.53-1.36a6.69 6.69 0 0 0 3.5-4.86c1.67.59 3.12 1.65 4.22 3.04a30 30 0 0 1 2.25 5.48c1.56 0 3.13.11 4.67.33 2.22 1.21 4.56 2.14 6.96 2.88 1.59.11 2.64 0 3.52-1.36l-2.66-3.65 1.39-1.14c0-.33 0-.66.11-.99a5 5 0 0 1-1.78-2.6l3.13-1.26.71-1.65c1.81.79 3.5 1.8 5.06 2.99 1.3-1.15 2.77-2.13 4.34-2.84 1.87 5.86 10.32 5.9 15.34 5.26 1.41-2.57 1.72-5.61.88-8.43-1.59-3.68-3.79-7.24-5.63-10.74-.18-.55-.53-1.01-1.01-1.34-1.37-.51-2.64-1.23-3.79-2.11-1.25-2.11-2.25-4.51-3.39-6.65l-2.93 1.1c-.81.26-1.59.15-1.01-.46.71-.79 1.26-1.69 1.65-2.66 1.08.31 4.22 1.94 5.06 1.54s3.39-1.91 4.44-1.65c2 .51 4.44 1.01 6.45 1.36.26-1.26.64-2.49 1.14-3.67 1.59-1.54 4.22-2.27 4.22-4.84 4.11.26 8.21-.66 11.8-2.64.15-.24.26-.48.31-.73.33-2-.15-4.05-1.34-5.7-2.9-2.71-5.96-5.26-9.13-7.61l1.15-.31a6.9 6.9 0 0 0 3.79 1.76c1.72-.04 3.39-.59 4.8-1.56 1.15.86 2.13 2 2.79 3.3a9 9 0 0 0-.88 5.08c1.5 4.51 6.32 6.95 10.36 9.05 1.37-.57 2.62-1.39 3.67-2.46-.04 1.23.24 2.46.81 3.54 2.2 2.9 5.11 5.17 8.43 6.58.68-.6 1.25-1.3 1.69-2.11 1.94-4 .4-8.56-.4-12.66-.09-.7-.04-1.41.15-2.11 1.17-.16 2.36.02 3.45.55 1.23 1.03 1.92 2.71 3.17 3.76 3.24 2.66 8.12 1.91 12.02 1.14.46-2.62-.31-5.3-2.11-7.24-2.36-2.2-4.62-4.51-6.74-6.96-1.3-.38-2.6-.84-3.83-1.43-1.23-.99-2.29-2.13-3.19-3.45 5.83-.88 8.21-6.12 9.05-11.51-.44-.27-.93-.53-1.41-.71-2.24-.95-4.77-.93-6.98.11a57 57 0 0 1-8.23 3.21l-2.42 2.35q-1.815 1.02-3.78 1.59c-.88.13-1.78-.05-2.55-.51-2.11-2.25-4.22-5.06-7.61-3.19-.22 1.17-.22 2.4 0 3.59 0 .9-.15 1.72-.66 1.01-.79-1.12-1.91-1.96-3.17-2.46-3.19-.97-6.45-1.85-9.49-3.06-1.17 0-4.22 1.28-5.08.9a12.3 12.3 0 0 0-4.22-1.21c3.23-3.78 6.32-5.08 10.54-7.46.73.53 1.63.81 2.53.79 1.87-.44 3.79-.6 5.72-.46a23.7 23.7 0 0 0 4.44 3.17c6.01 2.33 12.13-.55 17.65-3.3-2.11-2.35-4.62-5.59-6.87-7.64a68 68 0 0 0-6.32-4.34c.26-.33.38-.99.82-.95 1.28.11 2.51.53 3.59 1.25.4.13.84.13 1.25 0 .75-.37 1.65-1.37 2.55-.88q2.31 1.29 4.44 2.91c.79.33 1.65.44 2.47.26.29.93.84 2.42 1.96 2.66.99.16 1.83.79 2.29 1.67.48 2.02 1.3 3.94 2.46 5.7.4.27.84.48 1.34.6.55-.48 1.43-1.52 2.11-1.63.44-.15.95.02 1.21.42.88.95 3.67 4.01 5.15 3.68 2.9-.66 4.62-3.56 5.55-6.32.6-1.8-.73-4.09-1.41-5.68h2.49l.93-3.32c.93-.04 1.87.09 2.77.38 1.14.68 3.35 1.65 4.44 2.35.48.27.9.7 1.17 1.17.86 1.87 1.03 3.1 3.24 3.79.55.26.95.7 1.14 1.26.55 1.94 1.25 3.81 2.11 5.63.37.55.93.93 1.56 1.06.71-.75 1.54-1.39 2.46-1.91.38.26.71.55 1.01.88.7.84 3.23 3.79 4.44 3.54 3.02-.7 4.64-3.78 5.46-6.69.6-2.11-1.26-5.02-2.11-6.96.15-.22.31-.82.48-.64 1.37 1.37 3.39 3.72 5.59 3.12.13-1.25.46-2.46 1.01-3.56 1.69.71 3.54.97 5.37.75 1.21-.27 1.69-1.81 1.92-2.84.38-2.35.16-4.75-.59-6.98-.11-.38-.37-.71-.7-.9-2.91-2.46-6.52-3.9-10.3-4.22l.26-1.7c1.65-.51 5.04-1.3 5.35-3.37.18-2.51-.81-4.95-2.69-6.6h-.82c-3.06-.33-6.14.22-8.91 1.56-2.68 1.63-5.3 3.32-8.1 4.67 0 .68 0 2.22-.75 2.62-1.41.88-3.56 2.75-4.44 3.08-.18.09-.4.15-.6.16-1.5-.13-2.99-.38-4.45-.79-2.46-1.21-5-2.09-7.66-2.68-.16-.38-.79-.95-.4-1.1 1.91-.73 3.74-1.59 5.53-2.55 1.69-.93 1.7-3.72.97-5.3-1.87-4-2.35-5.11-7-4.67 1.21-1.41 4.05-5.31 3.46-7.22 2.38-2.11 6.67.86 9.55 1.3.95.16 1.23-.13 1.94-.73.11-1.06.33-2.09.73-3.08 2.29-.24 7.42 0 8.72-2.11.7-1.14.88-2.51.55-3.79-.42-1.52-.95-2.99-1.63-4.42a5.77 5.77 0 0 0-3.87-1.92c-.44-.13-.33-.46 0-.64a5.4 5.4 0 0 0 1.7-1.15l.31-1.01c-.6-.73-1.06-1.63-1.25-2.57.24-.31.51-.59.84-.81 2.11-1.12 5.46-2.35 6.6-4.6.97-1.91-.82-3.9-2.11-5.26a20.7 20.7 0 0 0-5.08-3.02c-2.07.18-4.11.57-6.1 1.17 1.34-2.25.84-5.15-1.15-6.84a22.3 22.3 0 0 0-4.77-3.24c-1.34-.44-1.12-.55-2.53 0a29.4 29.4 0 0 0-13.62 8.98c-2.11 2.75-6.01 8.85-8.58 10.76q-.6.555-.93 1.26c0 1.26.18 2.53.26 3.81-.11.46-.33.9-.66 1.26a20.7 20.7 0 0 0-3.24 3.87c-1.23-.99-2.07-2.35-2.46-3.87.82-2.6 1.76-5.63.48-8.25a25.7 25.7 0 0 0-9.22-9.62c-1.23 2.8-2.99 5.46-4.07 8.43-.9 2.42-.97 5.11-1.67 7.57-.16.6-.97 2.27-.97 1.67a66 66 0 0 0-2.11-6.71c-3.02-4.05-7.4-4.44-12.19-4.78a11.51 11.51 0 0 0-.16 11.12c.97 1.96 3.02 7.57 3.83 8.85.53.82 3.39 2.62 3.76 3.17 1.21 2.33 2.22 4.73 3.04 7.18.68-.46 2.84-1.23 3.61-.81 2.11 1.14 4.44 2.66 6.43.44l1.41 2.24c-1.87.84-3.65 1.91-5.31 3.12-2.55 2.49-5.21 5.33-8.01 7.61-.24 1.39-.4 2.84-.51 4.22 0 .37.11 1.45 0 1.14l-.81-.24c.31-.86.42-1.81.26-2.71a6.87 6.87 0 0 1-2.46-3.24 38 38 0 0 1 0-5.42l-3.46-.27a18.5 18.5 0 0 0-3.32-2.66c-1.25-.57-2.71-.4-3.81.42-.81 1.03-.29 2.11.27 3.23-.84.53-.88 1.87-1.69 2.47.29 1.06.48 2.13.55 3.23l-2.71 1.36c-.7.44-.97 1.36-.6 2.11.93.93 1.91 1.8 2.91 2.6.33.31.51.75.44 1.23-1.36 4.01.11 5.64 3.45 7.95-2.18-.24-4.36.15-6.32 1.12-.59.33-.59-.16-.42-.82a6.5 6.5 0 0 0 0-3.81 25.05 25.05 0 0 0-8.67-10.21c-1.12 2.64-3.04 5.74-3.87 8.3-.7 2.24-1.01 5.13-1.67 7.39-.15.46-.53.38-.6-.11-.86-4.36-7.55-6.32-11.29-6.96-.29.29-.55.6-.81.95a8.3 8.3 0 0 0-1.56 6.32c.75 3.23 1.69 6.32 2.38 9.51 1.12.93 2.11 2 2.97 3.17.75 2 1.25 4.09 1.48 6.23a9.1 9.1 0 0 1 3.61 0c2.82 1.8 4.88 4.58 5.74 7.81.15.51.31.73 0 1.26a74 74 0 0 0-4.62 11.71 9.5 9.5 0 0 0-3.68 1.5c-.44.31-.55 0-.46-.53.44-1.45.71-2.93.84-4.45-1.1-1.28-1.91-2.79-2.36-4.42-.11-2.24.31-4.45.42-6.69-1.45 0-2.9-.29-4.22-.9-1.36-1.65-3.19-4.22-5.64-2.99-.57.26-1.63.86-1.52 1.69.37 2.84 1.15 3.67-1.21 5.72-.18.4-.26.84-.18 1.26.31.82.38 1.7.16 2.55-.97.93-2.11 1.65-3.35 2.11-.37.46-.71 1.87-.31 2.38.86 1.08 1.98 2.11 2.84 3.17.26.38.37.84.29 1.28-1.92 4.84-.27 7.55 3.74 10.54l-.86 1.15c-2.02-.64-4.23-.31-6.01.88-1.3 1.06-1.17 2.66-1.37 4.22-3.81-.57-6.32 3.59-7.81 6.45.31-3.94.88-7.84 1.72-11.71-.9-1.26-1.91-2.47-2.95-3.61a3.2 3.2 0 0 1-.15-1.08c0-1.83 0-3.63-.11-5.44l-3.67-.26c-2.11-1.39-3.61-3.61-6.52-3.08-.82.16-2.11.82-1.96 1.81.16 1.01.46 2 .9 2.93-.57.88-1.25 1.69-2 2.4l.82 2.71a11.4 11.4 0 0 1-3.87 2.35c-.24.7-.37 1.83.31 2.33 1.3.81 2.46 1.85 3.34 3.1a5.5 5.5 0 0 1-.48 2.35 5.6 5.6 0 0 1-2.79-1.08 212 212 0 0 0-4.64-4.36c-2.97 1.87-3.78 1.65-7.07.75-.27-4.34.68-8.69 2.77-12.54-1.5-3.67.31-8.43 1.65-11.91.84-.09 1.69.16 2.35.71 1.23 1.41 3.46 3.81 5.59 2.42.66-.29 1.06-.95 1.01-1.67-.18-1.06-.48-2-.71-2.99l1.8-2.38-.68-2.64c.38-.7.99-1.21 1.76-1.43l.66.18c.26.29.44.64.55 1.01.13 2.11 0 4.22 0 6.32 1.3.02 2.6.15 3.89.38 1.25.66 2.62 2.24 3.81 2.9 1.41.64 3.08.37 4.22-.7.71-1.1-.11-2.53-.55-3.54.4-1.03 1.14-1.91 2.11-2.46-.29-.95-.51-1.91-.6-2.9.16-.26.26-.55.46-.7 1.15-.7 2.38-1.25 3.67-1.65 0-1.01-.4-1.98-1.12-2.69-.88-.6-3.17-2.11-2.84-3.19s1.03-3.89.13-5.08c-1.37-1.76-3.04-3.24-4.91-4.45.15-.18.37-.4.55-.6s.46-.66.7-.97c-.64-.81-1.14-1.69-1.54-2.64 1.34-.75 2.57-1.67 3.72-2.71q-.03-.495 0-.99c-1.45-.97-3.04-1.78-4.67-2.4-.53-.26-.53-.48-.71-1.06a4.93 4.93 0 0 0-3.24-5.96c.81-.75 1.7-1.39 2.69-1.85.7.6 1.65.82 2.53.55a7.3 7.3 0 0 0 3.17-2.9 23 23 0 0 1 4.09-1.39c-.73 1.25-1.36 2.57-1.81 3.94-.53 1.85-.81 3.78-.81 5.7.18 1.01 2.11 3.39 2.11 3.79v4.22c.88 0 2.82 0 3.46.68 1.26 1.76 3.61 2.38 5.59 1.52.13-1.03-.05-2.07-.55-2.99.31-.7.84-1.28 1.5-1.69l-.51-1.7c.11-.38.24-.79.33-1.17 1.01-.05 1.92-.57 2.55-1.36v-.64c-.13-.4-.38-.75-.71-1.03a6.05 6.05 0 0 1-2.11-2.66c1.08-.51 2.29-.64 3.46-.4l4 3.02c.64-.84 1.43-1.56 2.35-2.11.42-.18 2.25-.26 2.53-.37.86-.44 3.08-2.29 1.94-3.41-.75-.53-1.58-.82-2.33-1.3a6.8 6.8 0 0 0-1.3-2.77c.57 0 1.14-.38 1.69-.15 1.23.46 2.53 1.08 3.79 1.5 2.51-1.37 4.38 1.72 6.32 2.84.48.29 1.63.24 1.91-.44.38-.93.88-1.8 1.52-2.57 1.54.59 3.19.82 4.84.68 3.56-.97 3.37-5.35 3.26-8.43 0-1.12-1.23-1.8-2-2.35-4.77-3.52-10.54-2.88-16.05-2.49 1.63-1.87 3.37-3.63 5.28-5.21 1.96-1.45 4.23-2.46 6.65-2.9l1.94 1.3c.99-.38 1.96-.7 2.8.22a6.24 6.24 0 0 0 3.23 2.4l1.58-3.02c1.25.7 2.68.93 4.07.64a2.56 2.56 0 0 0 1.63-1.94c.24-2.22.68-4.42 1.37-6.54-.48-.51-1.08-.9-1.72-1.15-1.78-.86-3.72-1.39-5.68-1.56-2.71-.13-5.35 0-8.01 0-.33.71-.86 1.36-1.52 1.81-.22.04-.4.09-.6.11l-4.38-.22c.6.95.93 2.05.95 3.19-.29.97-.86 1.85-1.65 2.51-2.36 1.34-4.75 2.71-6.96 4.22-.33-.22-1.26-.37-.97-.6 1.3-1.1 2.53-2.33 3.63-3.63 1.01-1.65.73-3.79-.7-5.13-.79-.82-2.66-2.75-3.87-2.4-3.54.99-6.65 3.1-8.89 6.01a54 54 0 0 1-5.15 6.6c-.46 1.25.29 2.69-.55 3.78-1.23 1.52-2.42 2.93-3.61 4.45.38.24.73.51 1.08.79l-3.79.93c-.57.22-1.17 0-.68-.42 1.06-.55 1.85-1.48 2.29-2.57.37-1.15-.86-1.87-1.72-2.11l5.63-3.3c.22-1.12.31-2.25.31-3.39-.11-6.05-4.22-10.3-7.84-14.77.6-.31 1.3-.51 2-.51 1.3.24 2.57.59 3.79 1.08 1.23.11 2.64-1.01 3.79-.42 2 1.1 4.11 1.94 6.32 2.49.22.04.42.04.64 0 .26-.22.55-.42.82-.6l.13-2.6c1.91.22 7.09 1.3 7.95-1.08 1.15-3.13-.82-6.18-2.84-8.25.31-.09.6-.18.9-.29q1.845-.57 3.78-.57c2.51.86 5.08 2.11 7.61 2.77.44.05.88 0 1.28-.16.16-.22.37-.42.57-.59l.15-2.33c.37-.18.75-.29 1.15-.31 1.87.16 7.02 1.14 8.03-1.03.73-1.63.64-3.5-.24-5.06-.64-1.26-1.3-3.37-2.71-3.89-3.61-1.63-7.46-2.6-11.42-2.88-5.02 0-10.1.7-15.1.95l-3.02-5.41a12.2 12.2 0 0 0-4.05-.15c-.51 0-.44-.29-.11-.7 1.94-1.94 4.2-3.52 6.69-4.66.42.64.66 1.36.7 2.11-.55.71-.7 1.69-.38 2.53a6.12 6.12 0 0 0 3.89 2.69c1.85.22 3.74-.24 5.31-1.25 1.39.33 2.8.6 4.22.82 1.03-.4 2.11-.73 3.19-1.01 2.25.48 4.22 1.48 6.32 2.11.81.15 1.63-.04 2.25-.53 0-1.12.24-2.22.68-3.24 1.76 0 6.8-.53 8.06-1.83 1.21 1.1 2.88 1.5 4.44 1.08 1.01.97 3.46 4.05 5.15 2.91l.86-2.42c1.58.64 3.26.95 4.95.97.55-.4.99-.95 1.28-1.56.75-2.05.75-4.29 0-6.32-2.88-3.37-7.11-4.11-11.47-3.96.38-.55 1.56-1.83 2.22-1.92 1.72-.24 3.41-.73 4.99-1.5l-1.91-2.8c1.43-.93 2.69-2.09 3.74-3.46a3.5 3.5 0 0 0-.53-2.11c-1.23-1.7-2.97-2.95-5-3.5-2.2.51-4.25 1.41-6.12 2.66l-.75-1.12c-.81-.22-1.56-.46-2.33-.81.27-1.39.31-2.8.13-4.22a2.58 2.58 0 0 0-2.35-1.7c-1.72-.11-3.46.15-5.06.79-1.48 1.03-1.5 1.7-2.11 3.48-1.78 4.66-.37 9.46 0 14.15-1.63-.13-3.26-.04-4.88.22l-.75-.64c.26-.37.55-.7.86-.99.86-.64 3.3-2.69 3.1-3.89a5.6 5.6 0 0 0-1.92-3.56c-.22-.18-3.06-2.11-3.17-2.11-4.05-.02-7.84 1.91-10.25 5.15-1.67 2.42-3.5 4.75-5.48 6.95.38.88 1.1 2.35.27 3.19-.68.68-1.28 1.43-1.81 2.24-5.15-.57-10.01 3.13-13.14 6.89q.225-1.71 0-3.45c.09-.46.29-.88.6-1.25 1.48-1.26 2.75-2.79 3.74-4.45.18-.4.18-.84 0-1.25-.95-.79-2.07-1.3-3.26-1.52.99-1.87 1.52-3.96 1.54-6.1-.15-1.69-.95-1.98-2.57-2.6-2.27-.6-4.66-.68-6.96-.18-1.43.51-1.59 1.15-2.55 2.51-4.22 5.9-4.22 10.54-4.91 17.56-.97 0-2.9-.31-3.26-1.43-1.15-3.48-2.64-6.32-6.32-7.61-.24-.33-1.08-.93-.68-1.06a6.7 6.7 0 0 0 3.76-2.11c1.37-4.22 3.17-3.24 6.91-4.95.79-.37 1.94-1.69 1.36-2.62s-1.08-1.56-1.58-2.29c0-.57.22-1.1.59-1.52 1.21-1.14 2.27-2.42 3.21-3.79.9-2.07.27-4.47-1.56-5.79-1.23-.99-4.77-3.81-6.43-3.12a22.7 22.7 0 0 0-8.23 5.11c-3.76 4.22-5.5 9.4-9.05 13.54-.64-.68-1.94-1.91-3.02-1.67-3.92.84-7.57 2.71-10.54 5.42 0-.9.11-1.81.33-2.69 1.15-2.11 2.84-4.51 1.91-7-1.3-.18-2.57-.57-3.76-1.14a3 3 0 0 1-.29-.75c0-1.78.27-4.8-.86-6.32-2.6-3.34-7.92-1.72-11.18-.29a21.25 21.25 0 0 0-1.72 15.52c-.24.26-.53 1.08-.7.81-1.03-2.2-2.24-4.33-3.59-6.32-.44-.64-1.08-1.1-1.81-1.36-3.37-.95-6.07.75-8.56 2.82a23 23 0 0 0 3.24 12.33c2.46 3.56 5 7.07 7.28 10.68 1.26.6 2.57 1.12 3.92 1.52l-3.23 10.32-1.03-.97s-.22-.22-.38-.22c-.22-.04-.4-.04-.6 0-.93.16-1.87.11-2.77-.18-.99-2-2.11-3.96-3.35-5.83-2.68-3.37-7.5-1.08-10.19 1.15-.11.86-.15 1.76-.11 2.64.51 6.32 3.87 11.58 7.77 16.48-3.46 2.11-6.96 4.42-10.37 6.6-.27.18-.93.6-1.03.99a4.4 4.4 0 0 1-2.11 3.5 8.76 8.76 0 0 0-5.08-4.78c-3.76-1.3-6.16-.68-9.51-1.25s-6.58-2.11-10.08-2.55c.79-1.45 1.83-2.71 3.12-3.74 2.75-.48 5.5-.93 8.27-1.36a9.8 9.8 0 0 1-.29-6.05c1.01.66 2.22.95 3.41.82.86-.22 2.42-2.9 2.75-3.74 2.24.24 4.51.24 6.74 0 4.38-1.65 4.77-6.84 4.58-11.01-.24-.27-.48-.53-.79-.71a19 19 0 0 0-9-3.37c-.53 0-.18-.48.31-.66 2.11-.73 5.53-2 6.14-4.44.66-3.32-.05-6.73-1.98-9.51-.26-.42-.68-.71-1.14-.84-4.73-.44-9.48.46-13.69 2.62-.99-2.53-2.9-4.6-5.31-5.77-.4-.22-.88-.22-1.28 0a19.6 19.6 0 0 0-4.44 2.64c-1.14-1.43-2.88-3.67-5.06-3.08-.75.15-1.37.68-1.65 1.39-.57 2.24-1.69 3.45-4.05 3.24-.38.04-.73.26-.95.57-.42.81-1.14 2.99-2.22 2.99-1.28-.04-2.57-.26-3.79-.64a1.8 1.8 0 0 0-.66 0c-.82 0-2.11 1.21-1.8 2.11s1.14 5.08.51 5.61c-1.76.99-3.32 2.33-4.58 3.89-.46.82-.44-.22-.55-1.17s-.27-2-1.36-2.46-2.69-.97-3.13-1.98c-.82-1.87-1.59-4.03-2.46-5.86-.79.66-2.88 1.94-3.92 1.59s-3.19-1.3-4.44-.81c-1.23.37-2.18 1.3-2.51 2.53-.24 1.43 1.12 2.47 1.96 3.5-.57.97-.24 2.24-.64 3.3.7.6 1.91 2.29 1.54 3.35-.66 1.12-1.36 2.22-2.11 3.26-.4.46-2.55 2.11-3.26 1.8-2.36-.99-5.57-3.41-8.25-2.47a8.47 8.47 0 0 0-4.88 6.32c0 .24-.18 1.03 0 1.26q1.29 1.815 2.97 3.24c5.37 4.86 9.88 5.3 16.48 7.42.95.37 1.83.86 2.64 1.5-.99.81-1.92 1.69-2.75 2.66 2 1.45 3.37 2.79 2.69 5.48-1.25.79-2.53 1.5-3.87 2.11-1.41 0-2.4-1.37-3.81-.97-1.01.59-1.87 1.67-3.17 1.43-1.15-.75-2.24-1.69-3.17-2.71-.18-.15-.4-.26-.64-.31-.82-.26-2.22 0-2.51.97-1.36 3.81-1.56 6.32-6.32 4.75 0-4.67-3.13-3.52-4.84-6.67-1.03-2.51-1.8-5.11-2.25-7.79-1.39.24-2.8.33-4.22.33-1.41-.51-3.78-2.38-5.08-2.84-1.03-.38-2.2-.29-3.17.24a2.105 2.105 0 0 0-1.39 2.46c.38.88 2.27 3.63 1.92 4.45-.37.82-1.52 2.11-.84 3.17s1.59 2.11 1.25 3.17c-.88 1.06-1.91 2-2.97 2.88 0 .6-.22 1.76.38 2.22 1.54 1.15 3.17 2.11 4.78 3.19.38.31.64.73.73 1.23-.16 2.88.86 5.68 2.88 7.73a52.4 52.4 0 0 1-9.75 2.25 17.6 17.6 0 0 1-4.6 4.86l-7.61 2.57c.37 1.3 1.37 3.37.57 4.67s-2.25 3.12-2.11 4.42c0 1.14.53 2.22 1.43 2.9.79.44 1.7.46 2.53.11 1.15-.88 2.46-1.58 3.79-2.11 1.03.31 2.09.55 3.17.66 2.42-.82 3.06-2.97 5.7-.82l-4.91 2.55a18.8 18.8 0 0 1-1.94 5.02c-1.59 1.41-3.3 2.69-5.08 3.89 0 .13.24 1.06.26 1.06.55.97.88 2.05 1.01 3.17-.44 2.38-1.56 5.33.53 7.22.38.33 1.41.82 1.91.29.48-.53 1.67-1.94 2.42-2.68s1.87 0 2.46.26l2.84-2.75 2.79 1.83c.84.22 1.7-.18 2.11-.97.48-1.78.81-3.54 1.25-5.28 2.4-1.23 4.88-2.29 5.61-5.17.4.57 4.22 4.05 4.67 4.53.81.38 1.7.48 2.57.31.66-.11 2.11-.59 2.11-1.39.16-1.06.13-2.13-.15-3.17-.04-.48.13-.97.46-1.34.73-.44 1.41-.99 1.98-1.63-.11-.79-.55-2.64 0-3.24a17.6 17.6 0 0 1 4.03-2.11c.38-.44.95-1.23.64-1.91-.93-1.12-2.11-2.57-2.99-3.79-.27-.44-.82-1.72-.37-1.54 4.84 1.83 9.49 4.11 13.93 6.82-.99.86-2.07 1.59-3.23 2.22-2.13.22-4.23.59-6.32 1.12-.93.44-1.67 1.17-2.11 2.11-.26.68.09 1.45.75 1.7.44.17.45.18.04.02.97.4 2.11.82 3.1 1.23-.48.88-.68 1.91-.55 2.9 1.1.33 2.13.82 3.08 1.48-.64 1.17-1.17 2.42-1.59 3.68.15.31.31.64.51.97 2 .16 4.01.13 5.99-.13v.66c-2.05-.11-4.11-.04-6.16.24-.4 0-.64.31-.75.82-.24 1.28-.55 2.55-.97 3.78-1.54 2.55-4.73 4.22-4.51 7.59 0 .95.53 2.42 1.81 2.11s2.57-.7 3.81-1.14c-.44 1.15-1.12 2.22-1.94 3.13-2.07.16-4.05.95-5.7 2.22-1.83 1.96-2.69 4.44-4.36 6.32-1.7 1.78-3.92 2.99-6.32 3.52.04-1.85-.11-3.68-.48-5.5a35 35 0 0 1-3.26-3.79c-.68-1.94-1.17-3.94-1.5-5.97-1.52-.29-2.95-.93-4.22-1.83-2.25-2.11-4.88-5.22-8.27-4.44.02.48.11.99.26 1.45.59.95 1.03 1.96 1.34 3.04-.64.15-1.21.55-1.54 1.1.71.93 1.14 2.05 1.21 3.23l-2.47.24-.9.79c.09.42.29.81.59 1.12 1.45 1.48 2.95 2.93 4.33 4.45-.31 4.03 1.41 6.12 4.44 8.58-2.46.11-4.88-.27-7.17-1.08-.4-.15-.86-.15-1.26 0-1.63.97-3.34 1.83-5.08 2.55-2.24.24-4.49.24-6.73 0-.16.31-2.8 3.72-2.88 3.79-2.47 2.11-7.37 4.22-7.31 7.72l.68.66 4.22-.84.46 1.52.84.48 2.38-.6.9.37-.33 2.84c.27.37.55.7.84 1.03 2.2-.95 4.29-2.14 6.19-3.59.38-.24.81-.33 1.25-.31 2.29.88 4.86.71 7-.48.22 1.36.05 2.71-.42 4-1.1 1.91-2.33 3.72-3.68 5.42.64 1.58 1.17 3.21 1.63 4.86 0 4-.55 7.92 2.71 10.78.7-1.65 1.36-3.21 2.11-4.8.73-.15 1.52.04 2.11.53.18-1.14 1.01-3.23 2.11-3.65.66.79 1.43 1.45 2.27 2l.64-.15c.29-.24.51-.55.64-.9.26-2.11.33-4.22.27-6.32.04-.4.18-.81.42-1.14 1.59-1.08 2.79-2.69 3.3-4.56.4-3.17.46-6.32.55-9.51 0-.68.13-1.26.55-.71.99 1.34 1.91 2.75 2.68 4.22 2.2.42 4.33 1.14 6.32 2.11 1.67 1.45 3.23 3.04 4.66 4.73.27-.11 4.49-1.06 4.73-1.03 4.22.42 7.28 2.11 10.76-1.12a10.34 10.34 0 0 0-4.36-3.08l.97-2.35a22 22 0 0 1-3.3-2.47c1.08-.9 1.98-1.98 2.69-3.19a2.5 2.5 0 0 0-1.08-.95c-1.85-.59-3.76-.99-5.7-1.15-.48-.11-.95-.29-1.37-.59-.82-1.7-2.09-3.17-3.67-4.22-2.24-.88-4.6-1.43-6.98-1.63-.86 0-1.87-.29-1.06-.55 2.88-.95 5.28-2.93 6.82-5.53 1.41-.22 2.71-.82 3.76-1.8 2.79-2.71 4.64-6.45 8.85-7.07.31 0 1.06.15.93-.15l.75 2.99c.44.7 1.34.97 2.11.68 1.43-1.06 2.69-2.35 3.74-3.79.42-.51.99-.84 1.65-.97-.13 1.85-.44 3.68-.97 5.48a36 36 0 0 1-3.74 4.34c.9 1.14 1.5 2.47 1.76 3.9 0 2.88-.42 5.59 1.81 7.77h.88c1.12-.64 1.41-2.36 1.72-3.41l2.35.48 1.15-2.38 1.25-.27a4.7 4.7 0 0 0 2.35 1.52c.48-.27 1.12-.57 1.12-1.23 0-1.21 0-4.93.71-5.77 3.54-2.22 3.68-4.47 3.46-8.43 2.97-1.3 6.14-2.13 9.38-2.42 0 .75 1.01 2.88 1.8 3.04 1.36.27 2.69.48 4.09.81l4.36 4.84c.37-.13.71-.29 1.03-.53 3.39-2.79 3.87-.71 6.98-1.43 1.25-.27 3.37-1.72 2.8-3.35-.4-1.23-2.11-1.81-3.21-2.22l.33-2.66-1.21-1.45c.18-.15.4-.29.6-.42.53-.29 1.28-.82 1.92-.71 2.11.29 4.22.75 6.19 1.25l.81-1.76c6.27 1.17 12.61 1.94 18.99 2.25 5.21.29 12.66-1.1 17.1-.11 2.38.4 4.49 1.78 5.79 3.79.15.15.33.24.53.29 5.35 1.8 7.09 9.68 7.64 14.77-.64.79-.95 1.8-.84 2.8a7.2 7.2 0 0 0 2.71 4.49c1.34-.79 2.84.29 3.72 1.3 2.29 2.6 2.6 4.62 4.22 7.5.37.66-.44.59-.97 0s-.44-.44-.7-.64a65 65 0 0 1-4.47-4.58c-.68.64-2.71 1.94-3.68 1.76-2.38-.4-5.11-1.34-6.96.79-.15-2.33.11-4.66.79-6.89.11-.44.04-.9-.22-1.28-.84-.97-2.75-2.29-2.75-3.79v-5.77l-4.03-.26c-1.23-1.39-2.8-2.46-4.58-3.06-1.14-.24-2.35.05-3.23.82-1.01 1.1 0 2.93.51 4.22l-2.11 2.27c.51.9.81 1.92.86 2.95l-3.96 2.29c-.18.9.16 1.81.9 2.36 1.41.81 2.6 1.94 3.45 3.34-2.91-.38-5.86-.27-8.72.31.02-2.33-.29-4.66-.9-6.89-1.01-2.79-2.24-5.41-2.97-8.25-.15-.51-.48-.95-.93-1.23-1.37-.64-2.6-1.52-3.67-2.57-1.21-1.91-1.94-4.07-3.02-6.01-.95.4-2.99 1.17-4.01.66-1.72-.9-3.87-2.11-5.7-.75-.42.33-1.01 1.12-.9 1.69.51 1.59 1.39 3.04 2.57 4.22-.37.64-.93 2.11-.38 2.88s1.67 1.87 1.65 2.53c-.13 1.06-.68 2-1.5 2.66-.86-.42-1.85-.42-2.71 0-.99.53-2.07.93-3.17 1.14-2.49-.29-5.04-.95-7.55-1.36 0 .84-.42 2.9-1.25 3.37-1.28.73-3.59 1.59-4.03 3.12-.27.86-.11 1.81.44 2.53 1.23 1.12 2.84.73 4.42.53-1.08 2.38-2.4 4.64-3.94 6.74l.81-6.03c-4.09-.42-8.21-.6-12.32-.57-3.79.29-7.57 1.23-11.38 1.39a33 33 0 0 1-4.44 3.74c-2.6.82-5.28 1.39-7.99 1.69.51 1.03 1.69 2.71 1.25 3.92a8.36 8.36 0 0 0-1.96 3.79c.11 1.14.73 2.14 1.72 2.71 2.35 1.41 4.09-.81 6.32-1.08 1.08.24 2.13.53 3.17.86 1.34-.18 2.62-.59 3.81-1.21l1.26.66c-.37.38-.79.7-1.26.9-1.7.51-3.74 1.08-5.44 1.65-.46 1.92-1.08 3.79-1.83 5.63-2.38 3.74-4.93 6.87-4.51 11.56 1.21-.71 2.42-1.43 3.56-2.25.13 0 1.28-.27 1.21.93l.9.88c.68-.86 1.67-1.45 2.77-1.65l.31 3.81.71.82c.42-.18.81-.44 1.12-.75 1.41-1.8 3.39-5.21 5.59-5.86.81.68 1.37 1.59 1.63 2.64-.16 2.11-.05 4.23.33 6.32.57 1.01 1.72 2.9 3.13 2.68s1.94-2.22 2.66-3.21 2.4-.15 3.41 0a6.74 6.74 0 0 1 2.11-3.46c1.28.9 2.71 1.63 4.22 2.11.68-.55 1.37-1.06 1.39-2.11-.33-1.78.02-3.61.99-5.13.51 1.7.51 3.54 0 5.26 1.67.53 3.3 1.25 4.8 2.11 1.25 1.03 2.9 3.34 4.22 4.22s3.72 1.76 4.99.4l-.95-4.42c.88.13 1.78-.71 2.33-1.17l-.73-2.42c.15-.33.31-.71.48-1.06 1.34.16 2.69-.04 3.92-.59l.18-1.54c3.46 2.42 8.56 5.35 11.62 7.95a85 85 0 0 0 6.98 6.32c.6 1.48 1.37 2.9 2.27 4.22 1.28 1.34 2.9 2.33 4.66 2.9-2.11 1.7-4.22 3.56-6.32 5.35.68 1.12 2.24 3.02 1.94 4.42-.53 2.38-.95 5.15 1.21 6.85.46.37 1.81.75 2.11.13.7-1.25 1.69-2.27 2.88-3.06.75 0 1.52.18 2.33.18.6-1.06 1.39-2 2.35-2.79.37.05.7.18 1.03.33 1.1.81 2.49 1.03 3.79.68 1.34 1.39 3.02 2.68 4.38 4.01.81 1.34.99 2.95.51 4.44-.59 2.53-2.27 5.37-2.69 7.61-.64 3.78-1.01 7.57-1.12 11.38-.16 3.13 1.56 6.32 1.8 8.89.31 3.23-1.52 5.48-1.98 8.23-.42 2.36.84 7.35.71 9.49-.15 1.81-1.37 5.21-1.37 6.98 0 4.73 1.12 9.11-.27 13.75.79.95 1.26 2.13 1.37 3.35q-.465 4.125 0 8.25c.02.31.02.64 0 .95-.44 0-.86-.13-1.28-.18-4.89-.59-9.77-1.48-14.55-2.66-5.37-1.83-10.54-2.64-15.21-4.91-6.8-3.35-11.86-8.78-18.36-12.39-4.03-2.24-8.43-2.68-12.66-3.87-.42-.88-.27-2.36-.86-3.92.53-.84.82-1.81.82-2.8-.37-2.22-1.14-4.33-2.35-6.23-.99.59-1.83 1.41-2.4 2.42-.79 2.36-1.67 4.67-2.68 6.96a7.9 7.9 0 0 1-2.11 2.62c-2.18.16-4.36.09-6.54-.22-1.1-1.94-1.96-4.03-2.53-6.19-.05-.26-.22-.48-.42-.64-1.3-1.06-2.71-1.96-4.22-2.71-.75 1.43-1.21 2.99-1.34 4.6.22 2.18.84 4.29 1.87 6.23-4.36.18-5.57 3.52-8.21 6.47.15 2.77-3.3 4.07-5.21 5.37-.29.27-.55.59-.71.95-.4 1.72-1.03 3.41-1.85 5-2.64 2.33-6.71 4.22-9.53 6.32-.97.81-1.52 1.98-1.5 3.23 1.1 1.7 1.91 3.59 2.38 5.57l1.08.46c1.67.51 3.41.51 5.08 0 .4.26.82.48 1.26.68 1.39-.6 2.91-.93 4.44-.88 1.06.33 2.07.81 2.99 1.39 1.72-.81 3.74-.84 5.5-.13 2.33-.79 4.58-1.81 6.71-3.04.18-.13.42-.16.64-.13 1.58 0 3.12-.46 4.44-1.36a10 10 0 0 1 5.7.55c5.06 3.87 7.5 9.05 11.97 13.45.6.59 2.84 2.22 3.26 2.79 1.52 2.49 3.46 4.73 5.72 6.58.48.4 1.43 2.82 1.85 3.23 2.6 2.62 6.32 5.61 8.65 8.21.38.81.64 1.65.75 2.53l-.37.64c-.13.27-2.79 3.65-3.04 4.01-5.15 0-6.56 3.08-10.43 3.9-2.8.33-5.57.95-8.25 1.83a18.8 18.8 0 0 0-6.18 5.48 74 74 0 0 0-4.22 8.23c-.27.55-.27 2.75-.7 3.17-2.57 2.53-2.99 5.37-4.89 8.25.27 3.83.84 7.64 1.69 11.38.79 1.83 1.39 3.76 1.78 5.72.05.7.48 1.28 1.12 1.56 1.39.38 2.8.66 4.22.82l.51-.51c.53-.57.99-1.21 1.39-1.87-.42-1.83 1.14-6.82 1.5-8.89-.13-1.03-.55-2-1.21-2.8.59-2.2.79-4.45.6-6.71-.15-1.23 0 0 .24-1.25 0-.42 1.12-3.83 1.3-4.45.57-1.08 1.26-2.07 2.11-2.95a69 69 0 0 1 6.73-5.3c.15-.11.22-.4.42-.42 2.69-.04 5.37-.26 8.06-.59 3.34-.95 4.22-1.23 6.98-2.11 2.84-1.15 5.61-2.57 8.21-4.22h1.39c.84 3.23 1.78 7.51 2.88 10.54.31.88 2.55 3.56 2.33 4.45-.57 1.78-.84 3.61-.81 5.46.16 1.7 2.77 4.22 4.05 5.35 0 3.17.18 8.98 1.52 11.75v.64c0 1.03-.7 4.75-1.67 5.19-1.83.64-3.81.71-5.7.26-1.3-.37-5.79 1.83-4.22 4.22l-2.11 1.3c-.16.29-.27.64-.31.97 0 1.23-.46 2.42-1.3 3.32.84.66 1.87 1.01 2.93 1.03 4.53-.48 6.03.27 10.15.59 1.5-.04 2.99-.29 4.42-.81.53-.18.4.22.7-.27.29-.48.81-1.26 1.21-1.94 0-.33-.27-.95 0-1.26a7.1 7.1 0 0 1 2.75-2.8l-.15-4.77c1.3-1.08 2.42-2.36 3.32-3.81.27-1.48.44-2.95.48-4.45-.79-2.64-2.62-5.92-3.08-8.25-.57-2.82.81-4.47.88-6.95 0-3.79-1.59-7.29-2.38-10.78-.18-.84.24-5.33 0-5.72-2.11-3.13-1.98-5.41.82-7.95.86-.86 1.96-1.45 3.17-1.7 2.82-.29 5.77-.33 8.65-.55-1.03 7.97-.97 17.85-1.34 26.06.73 2.91 1.23 5.86 1.45 8.85-.02 1.72-.33 3.46-.93 5.08-.64 1.39-1.7 1.91-1.81 3.17-.16 1.7.05 3.45.68 5.04q.06.33 0 .66c-.22 1.67-.79 3.24-.97 5.04a46 46 0 0 1-1.94 6.12c-2.53 1.87-2.22 3.02-3.87 5.13a57.6 57.6 0 0 1-8.85 7.88c-1.34.93-2.84 1.58-4.45 1.92-4.84 1.03-9.92 1.5-14.57 2.62-3.41.81-6.54 2.55-10.15 2.55-.9.86-1.98 1.54-3.17 1.96-3.78.51-6.84 2.88-10.12 3.59-4.16.59-8.38.84-12.57.79a26.7 26.7 0 0 1-5.21 3.46 17.8 17.8 0 0 0-8.19-4.93c0-.16-2.11-4.6-2.64-5.59-.46-.22-1.43-1.14-1.37-.64s.26 1.65.44 2.36c.31 1.21 1.94 7.04 3.46 6.89 2.11-.27 3.35 1.58 4.01 3.21a93.5 93.5 0 0 0-15.43 6.32c-1.28.75-2.29 1.91-2.91 3.26 0 .22-.22.82-.29.6l1.12.81c.97-1.65 2.35-2.99 4.01-3.94a56.4 56.4 0 0 1 10.15-3.34c3.06-.11 6.03-1.15 8.43-3.06 1.43.16 2.9-.04 4.22-.64.53-.31 1.92-1.72 2.53-1.81 2.46-.26 4.91-.26 7.37 0a51 51 0 0 0-7.37 5.99c-1.41 1.54-2.66 3.21-3.96 4.86a5.55 5.55 0 0 0-.95 5.04c-1.48 3.56-5.21 7.51-9.35 7.37a13.36 13.36 0 0 0-4.22 4.71c0 .15-.18.7-.26.51l1.48.84c.64-1.3 1.54-2.47 2.68-3.39 2.99-1.26 5.9-2.69 8.72-4.33.95-1.15 1.72-2.42 2.35-3.78.38-2.22 1.1-4.34 2.11-6.32 3.56-3.54 8.43-7.02 12.19-10.36a34 34 0 0 1 5.08-2.42c1.06-.16 3.48.22 4.42 0s4.22-1.98 5.08-2.11c4.44-.51 6.32-1.65 10.15-2.11 1.48 0 2.95-.15 4.42-.44.38.15 1.43.29 1.1.48-2.8 1.34-5.79 2.77-8.67 3.81-4.22 1.54-8.43 2.93-12.66 4.38-1.3.44-2.42 1.28-3.24 2.38-.38.55-1.56 3.37-2.24 4.44-.4.95-.44 2.02-.15 3.02a6.77 6.77 0 0 0-2.53 5.22c-1.45.81-2.95 1.52-4.49 2.11-1.8.11-3.52.68-5.04 1.65-.88.9-1.59 1.96-2.11 3.12-.02 1.1-.24 2.18-.66 3.19-1.56 1.58-3.04 3.3-4.38 5.06-.55 1.41-.93 2.91-1.1 4.44v.46l1.25.27c.44-1.78 1.03-3.48 1.72-5.17 1.06-1.72 2.6-3.12 4.45-3.96.27-1.78 1.01-3.46 2.11-4.88 1.08-1.21 2.62-1.87 4.22-1.92 1.06 3.5 1.37 6.43-.79 9.53.15.44-.22 1.08.22 1.85-.09.44-.24.86-.46 1.25-.15.18-.27.81-.33.59l1.15.4c.86-2.64 1.92-5.41 3.02-7.94-.15-2.13 0-4.25.46-6.32.13-.26.33-.48.59-.64 1.48-.79 2.77-1.85 3.81-3.13 1.58-3.65 3.46-6.32 4.78-9.51a19.4 19.4 0 0 1 7-2.51l1.7-1.83c.7.57.95 2.11 1.83 3.32-.51.97-1.41 3.19-.93 4.22-.81.75-1.52 1.63-2.11 2.55-.4.81-.55 2.38-.97 3.17a10.15 10.15 0 0 1-3.04 3.08c0 .4-.38 1.28 0 1.17.66-.13 1.3-.29 1.94-.48 1.43-1.3 2.71-2.77 3.87-4.33.57-.97.33-1.15.48-2.35.7-.4 2.95-1.98 2.91-2.82v-7.84c1.52.51 3.13.57 4.67.18 3.46-1.92 7.22-3.02 10.78-4.67 2.8-1.58 5.37-3.56 7.61-5.88.26-.11.75-.68.82-.38.05 1.8-.15 3.56-.6 5.3-1.59 2.2-3.34 4.31-5.17 6.32 0 1.43 0 2.8.18 4.38-1.36-.4-2.8-.33-4.11.22-1.48.81-2.84 1.8-4.05 2.97 0 0-.71 2.51-.71 2.55q.57 2.175.51 4.44c-.15 3.37-3.81 4.42-6.49 4.93-.4.13-.71.4-.93.75-.9 1.26-.97 2.8-2.24 3.79a95 95 0 0 0-5.21 4.36c-.53.53-.93 1.15-1.15 1.87l.66.81c1.01-2.11 2.95-2.66 4.8-3.89 1.8-1.48 3.35-3.19 4.66-5.11.37-.42.81-.71 1.3-.9 1.21-.27 2.38-.7 3.5-1.23.55-1.8 1.87-3.26 3.63-4 0-1.52-.16-6.87 1.12-7.68 1.5-1.01 3.3-1.54 5.11-1.45 1.23 3.83-.7 4.22-.4 6.43.46 3.5.46 7.04 0 10.54 1.08 1.37 2.66 4.05 1.96 5.92s-.99 3.67-1.67 5.37l-4.22 1.26c-.29.26-.53.59-.68.95-.6 1.87-1.43 2.11-2.93 3.41-.42 2.24-.95 4.49-1.56 6.71-.04.22-.04.42 0 .64 0 .22.15.86 0 .66l1.37-.15c.15-2.42.86-4.77 2.11-6.84 2-2.11 3.46-1.96 5.77-3.32.97 1.63 1.69 3.37 2.11 5.21 0 2.29.38 4.6 1.14 6.76-.15.26-.26.55-.31.84.15.15.31.33.38.33l.18.04v.13Z" class="cls-1"/><path d="M403.96 590.15c1.17-1.45 2.13-3.08 2.82-4.8.95-3.19 1.7-6.32 2.93-9.49.4-1.06-1.03-4.47-1.36-5.7.38-2.64.86-5.26 1.43-7.84-4.05-1.41-3.67-2.57-5.57-6.01-.64-.71-1.5-1.15-2.46-1.26-.79-.16-1.54.33-1.69 1.12 0 .02 0 .04-.02.05-.18 1.26-.24 2.53-.13 3.79 0 1.12-1.52 1.65-2.11 2.53 0 .53-.26 3.26-.15 3.61-.86.59-1.91.95-2.95.99-.93.38-1.45 1.39-1.17 2.36.13.55.31 1.1.57 1.59-1.98.31-3.9.93-5.72 1.8-2.02 1.48-4.16 2.82-6.32 4.07-3.5-4.36-7.79-8.01-12.66-10.76-5.19-2.66-12.98-5.61-18.4-7.84-.82-.33-1.25-1.65-1.45-2.42a5.37 5.37 0 0 0 .15-5.42c-.99-1.3-2.05-2.57-3.17-3.78-2.27-1.87-4.56-3.81-6.71-5.77 2.95-.71 4.22-3.35 5-6.03.81-.38 3.83-2.22 4.22-2.29.31-.11.66-.16.99-.22a9.09 9.09 0 0 0 9.13.27c.59-.37 1.25-.55.9 0-.55 1.34-1.56 2.42-2.82 3.12-1.58.81-4.73 1.56-6.54 2.24.27 1.25.42 2.51.48 3.79-.9 1.03-1.63 2.24-2.11 3.52a2.85 2.85 0 0 0 1.81 2.99c.42.09.86.04 1.28-.11 1.72-.95 3.02-2.25 5.04-1.23 1.01.55 2.35-.55 3.17-1.08.59-.31 1.3-.27 1.83.13.42.86.7 1.81.84 2.77-.84.88-1.59 1.83-2.29 2.84-.51.79.31 1.92.9 2.36.37.27.81.42 1.25.46 3.46-.26 3.23-2.11 7.61-1.01.88-.22 1.72-.55 2.53-.99.38-.22.84-.27 1.26-.15 1.01.26 2.8 1.23 3.81 1.63.42.02.86-.04 1.26-.18 1.21-.95 2.27-2.09 3.17-3.35.38-.27.81-.44 1.26-.51 2.22.02 4.38-.53 6.32-1.58 2.99-2.11 4.22-5.79 4.88-9.13h-5.64l2.51-4.58c.42.15 2.84 1.98 3.45 2.38s.66 2.11.55 2.91c.7.38 2.71 2.29 3.26 2.51-.16 1.01-.48 1.98-.93 2.91-.38.81.79 1.98 1.45 2.22 1.81.42 3.63.71 5.48.88 1.72 2.11 2.71 4.22 5.28 5.26 2.29.73 4.71 1.03 7.11.88a8.6 8.6 0 0 1-1.3 3.41c-1.06 1.43-2.95 3.04-4.09 4.45-.59.97-.97 2.05-1.1 3.17-.04.66.15 1.34.55 1.85l3.65-1.43c1.23.51 1.17.81 1.58 1.98l3.65-1.3c.16 6.52 2.38 9.88-3.21 14.77-.29.26-2.57.86-3.3 1.36a26.23 26.23 0 0 0-8.43 10.76l-1.63-3.46h.07Zm-82.72-178.23c1.98-1.1 3.78-2.53 5.28-4.22l.66 1.54c-.13 1.54-1.21 2.84-2.68 3.3-1.12.13-2.25-.09-3.24-.6zm-8.22 89.8c-.33-1.92-.73-3.87-1.25-5.74l6.14-1.37c.4 2.22 1.41 4.25 2.93 5.92-2.66.11-5.28.64-7.77 1.56 0-.13-.05-.27-.05-.38v.02Zm219.89-38.58c.05-1.3 0-2.62-.15-3.92 0-.57.38-.71.71-.27.88 1.28 3.19.55 4.44.29.51-.04.99.18 1.3.59.75 1.43 2 2.57 3.5 3.19.37.13-.66.22-1.01.31l-1.21.57c-.13.59-.33 1.14-.68 1.65l-6.91-2.4Zm-145.7 11.53c-.84-.79-2.02-1.14-3.17-.97q-.33.06-.66 0a11.6 11.6 0 0 1-3.17-2.36c-.05-1.23.02-2.46.29-3.63.81 1.65 2.4 2.77 4.22 2.97 2.42.16 4.86-.38 6.96-1.59.68-.37.59.33.22.99-1.36 2.29-2 4.93-1.83 7.59 0 .82 0 1.83-.26 1.06-.57-1.54-1.45-2.91-2.62-4.05h.02Zm31.39-43.55c-.22-1.34-.51-2.64-.84-3.94-8.43-3.26-14.94-1.21-23.04 1.45-.15-1.41-.04-2.84.29-4.22.57-1.72 2.27-2.69 3.41-4.01.09-1.23.33-2.42.71-3.59 0-.29 5.04-4.22 6.18-5.7s-1.3-2.82-2.11-3.39c.75-1.72 2.35-2.97 4.22-3.24a3.6 3.6 0 0 0 1.3-.93c.16-1.14.86-2.11 1.85-2.68 1.85-.64 3.78-1.12 5.72-1.45 1.1-.42 1.76-1.52 1.58-2.68-1.52-1.85-.81-3.46.79-4.89-.86 3.54-.33 7.28 1.48 10.43 2.11 3.48 4.11 6.58 6.32 10.12a11.1 11.1 0 0 0 4.47 2.53c1.01 1.17 1.8 2.53 2.33 4-1.17.15-2.25.75-2.97 1.69-.33.51-.88 2.55-1.28 3.12-.97.75-2.02 1.41-3.12 1.96-.51.26-.84.71-.93 1.26 0 2.47-3.46 3.34-5.41 3.83-.33.09-.68.18-.97.33l.02.02Zm4.14 53.04c.29-1.67.53-3.3.71-4.93l1.78.27v3.5c2.11 1.1 4.88 2.24 4.44 5.15l-6.91-4h-.02Zm108.36-36.21 2.38-2.11c0-1.08-.15-2-.22-3.04s.84-1.58 1.54-1.81c1.17-.57 2.51-.75 3.79-.55 1.01.16 2.11 3.08 2.24 3.92 1.92.48 3.96.37 5.83-.33l-.93 2.33c-1.1.26-2.24.26-3.34 0-.86-.16-3.72 1.87-4.44 2.27-1.34.64-5.42-.26-6.87-.68zm-153.48-4.46c-.15-.26-.59-.53-.4-.73 1.01-1.25.75-1.65.7-3.17s4-2.75 5.31-3.56l.82 1.41a48.6 48.6 0 0 0-6.1 6.73zm9.75 51.93c.4-1.26.55-2.6.4-3.9-.31-1.3-.9-4.77-1.21-5.7-.09-.29-.22-.57-.4-.81l-2.95-1.56-1.78-4.45-4.67.51c1.37-1.92 2.38-4.07 3.04-6.32a7.47 7.47 0 0 0 7.18 3.76c1.48 3.3 2.77 6.67 3.87 10.1.81 3.54.75 7.18 1.8 11.07a16.2 16.2 0 0 0-5.28-2.69Zm-22.34-.57c-3.72-.42-7.39-1.12-11-2.11.88-1.3.55-3.08-.75-3.96-1.25.27-2.55.27-3.79 0-.31-.7-.75-2.11-1.69-2.11-.86.27-1.78.27-2.64 0-.59-1.21-.95-2.53-1.03-3.89-2.11-1.14-3.87.9-5.7 2.11-.99.64-4.22-2.11-6.98-.81-.59.27-.48-.24-.24-.82.81-1.94 4.22-3.72 6.03-4.8l-1.67-3.81c.64-1.7.79-3.54.46-5.31a3.65 3.65 0 0 0-2.11-2.25c-.29-.09-.64-.09-.93 0l-2.47 2.75a7.9 7.9 0 0 0-3.56 0c-2.71-2.42-2.38-3.41-2.9-6.82-.11-.79-1.54-1.92-2.11-2.24-2.33-1.14-3.02 2.11-3.12 3.63-1.72 0-2.69-.44-3.87 1.06-.71-1.87-1.08-3.89-1.03-5.9-1.58.02-3.17-.24-4.66-.79-3.17-1.69-4.51-5.13-8.89-3.72-.81.29-1.21 1.21-.9 2 .02.09.05.15.11.24.44.82.82 1.69 1.15 2.55.33.99-1.12 1.98-1.94 2.11.64 1.25 1.1 2.6 1.39 3.96a13.4 13.4 0 0 1-3.56 1.91c-.81.48-.64 1.63-.16 2.27s.22.86-.15.57a47.3 47.3 0 0 0-16.68-8.27c.73-2.55-.57-4.38-2.25-6.18 3.96-1.1 8.03-1.81 12.15-2.11.82-1.45 1.72-2.88 2.71-4.22.33-.37.75-.59 1.23-.71 2.29-.68 4.38-1.5 6.67-2.11a32.5 32.5 0 0 1-1.25-4.22c0-.44.05-.86.22-1.28a8.33 8.33 0 0 0 1.41-5.42c1.91 0 2.36-1.28 3.17-2.71.48-.86 1.65-.81 2.47-.75.48-.02.95-.22 1.34-.51l1.28-1.72c.44 3.21.57 6.45.38 9.68 1.17.9 2.84 1.92 3.32 3.35.48 2.25.82 4.56 1.01 6.85 1.15-.09 2.29-.26 3.45-.53.46.02.9.16 1.28.4 1.72 1.54 3.59 2.46 5.68 1.01s.73-3.45 0-5.19c-.27-.71.86-2.79 1.3-3.35-.29-1.14-.66-2.27-1.1-3.37.97-1.14 2.11-2.25 3.04-3.41.6-.71 0-2.11-.7-2.57-1.03-.93-2.2-1.7-3.45-2.33-.33-.11.57-.46.84-.73 2.27-.64 4.71-.64 6.98 0 2.66 1.06 3.96 2.57 6.96 3.37 4.11.81 8.28 1.36 12.46 1.65-1.58 0-3.08.59-4.22 1.69-.4.15-.84.18-1.26.15-1.41-.59-2.91-.99-4.45-1.14-.46.04-.9.29-1.15.7-.46.95-.7 2-.7 3.06-.16.4-.29.71-.68.82-4.34 1.25-6.74 1.59-6.73 6.74 0 2.09.57 4.11 1.63 5.9 4.56-.82 9.46-.84 13.69-2.99.57 2.29-2.49 4.88-4.22 5.9-2.11 1.26-1.96 4.47-1.39 6.32.95 3.12 2.66 5.97 4.99 8.27 2.51-.22 4.95-.84 7.24-1.91a20.5 20.5 0 0 0 5.7-4.22c1.12.82 2.27 1.59 3.48 2.27 1.41.84.38 5.3.4 6.98.11 3.96 5.13 6.32 8.63 6.76.7.55 1.23 1.28 1.56 2.11.13.59-.48 1.25-.88 1.63.29.88.9 1.65 1.72 2.11l-3.41 3.34 5.02 1.92c-.05 1.26.18 2.53.7 3.68-3.63.11-7.28-.09-10.87-.53l-.09-.02Zm59.55 57.99h-.64c-.44-.68-.84-1.37-1.17-2.11l4.45.31-2.55 1.83-.09-.04Zm40.54-93.62c-.95-1.01-1.52-1.34-1.58-2.53s1.78-2.53 2.55-3.06c.79 1.72 1.94 3.59.31 5.21l-.82.84zm1.54 93.4a6.33 6.33 0 0 1 6.07-2.42l-.24 1.92-5.85.51.02-.02Z" class="cls-1"/><path d="M411.93 528.15c-7-2.49-12.81-18.18-14.94-25.31-3.35-11.03-5.35-24.8-2.46-36.12.29-3.83-.81-7.66-3.12-10.74-2.75-2.71-5.22-5.68-7.42-8.83-.93-1.01-3.32-1.08-4.6-1.08.97-2.49 2.64-4.64 4.78-6.23 1.08.99 2.4 1.65 3.83 1.91-.4 1.76 1.45 2.8 2.75 3.61l.4 2.77c1.69.84 2.69 2.11 1.78 4.05a2.8 2.8 0 0 0 .68 2.4c1.01.15 2.05.24 3.08.26.48-.04.95.16 1.23.57 1.14 1.52 1.85 3.56 3.87 4.22 3.02.6 6.16.29 8.98-.9.42-2.24-.04-4.56-1.25-6.49-2-2.6-4.22-5.11-6.52-7.55-.93-.64-2-1.03-3.12-1.14-1.06-.16-2.36-2.11-2.91-2.95.82-.66 1.87-.93 2.91-.79 2.11.64 3.56 1.34 5.7 1.83 1.58.38 2.22-1.63 2.55-2.71.15-.59.66-1.06 1.26-1.12 2.13-.05 4.25-.38 6.32-.93 1.1-.73 2.05-1.69 2.79-2.79l.81 1.96c-1.48 1.58-3.81 3.23-3.9 5.41-.15 3.12 6.12 5.08 8.43 5.59 1.37.29 5.72-2.46 6.98-3.24a26.6 26.6 0 0 0-1.85 7.81c-.16 4.22-.11 8.43.24 12.66a21.8 21.8 0 0 0-4.09-2.93c-.22-.11-.55-.84-.59-.93-.42-1.69-1.06-3.35-1.59-5-3.79 1.52-3.72.71-7.29-.38a4.19 4.19 0 0 0-3.24 1.45c-.13.24-.24.48-.31.75.18.97.68 1.85 1.37 2.55.68.7-.15 1.87-.46 2.53s1.03 2.66 1.72 3.08c-1.21.86-2.2 1.98-2.95 3.24-.13.44 0 .95.33 1.26 1.1.68 2.29 1.15 3.54 1.5 1.14.38 1.25 2.88 1.21 3.87-2.9.75-5.85 1.3-8.82 1.63-.33.02-.66.13-.93.29-.55 1.37-1.37 2.6-2.4 3.65-.75.24-4.93 1.78-5.33 1.8.57 1.28.84 2.68.84 4.07-1.52 2.29-1.8 4.51.22 6.49.88.86 2.53-.6 3.19-1.12s1.8 0 2.4.64c-.31 1.23-.11 1.56-1.25 2.46-1.34 1.21-2.75 2.29-4.22 3.34 2.27 3.21 2.27 3.56 2.11 7.53 0 1.03 1.43 2.46 2.11 2.97 1.1.79 1.8.18 2.47-.53.59-.64 1.12-1.36 1.56-2.11.79-.04 1.54.04 2.29.24a4.27 4.27 0 0 0 2.11-2.66c1.72.66 3.48 1.21 5.28 1.63 0 2.49.48 8.69-.24 10.54-1.23 3.19-2.69 6.32-3.87 9.49a5.65 5.65 0 0 1-2.4 2.53c-.02.02-.02.04-.02.05l-.04-.02Zm76.85.11a5.27 5.27 0 0 0-1.5-3.04c-.38-.22-.81-.31-1.25-.29-1.36.53-2.64 1.25-3.81 2.11-.9.27-1.85.29-2.79.11l4.71-4.88.22-2.47c.79.13 1.54.4 2.24.82.9.57.86 1.52.88 2.49.59.79 1.43 1.36 2.36 1.63.48.18.64 1.12.53 1.54-.15.81-.71 2.11-.97 2.84-.15.46-.55-.53-.6-.86zm6.76 3.55c-1.34 0-1.76.31-1.5-1.01l.16-.86c1.14.02 2.22.57 2.93 1.48-.51.26-1.06.38-1.59.4v-.02Zm40.49-9.16c-.48-1.03-.64-2.2-.48-3.34 1.65 1.15 1.59 1.28 2 3.46l-1.34.27c-.15.02-.15-.27-.18-.4Zm-159.56 18.16c.71-1.5 1.56-2.95 2.49-4.33 1.34 1.15 2.79 2.13 4.36 2.9zm90.08-3.04a6.9 6.9 0 0 1 1.94-1.26l1.78 1.21-3.32.84zM449.94 336.2c-5.72-1.23-7.83-7.39-7.26-12.66.59-4.45 3.34-8.34 7.31-10.39 4 1.76 8.93 3.61 11.62 7.24s1.63 8.78-.59 12.04c-2.64 3.35-6.98 4.84-11.09 3.78Zm5.06-27.94c-6.19-2.8-12.66-6.47-9.81-14.41 1.39-3.08 4.53-4.95 7.92-4.73 3.59-.16 6.87 2 8.1 5.37 1.76 5.44-.73 11.34-5.85 13.89l-.37-.15v.02Zm-77.31 5.57c-6.32-1.96-7.29-10.54-6.32-16.11.44-4.66 4.2-8.3 8.89-8.65 4.29.11 7.92 3.17 8.76 7.37 1.5 5.37 1.76 13.32-3.67 16.62-2.33 1.34-5.11 1.59-7.64.79zm37.39 22.52c-6.01-1.78-7.22-11.86-7.46-17.15-.33-7.7-.68-15.98 1.41-23.44.7-3.61 3.67-6.32 7.31-6.71 3.04-.16 5.86 1.5 7.18 4.22 4.22 8.54 3.39 25.48 1.92 34.84-.55 3.34-2.4 7.42-5.96 8.43-1.48.31-2.99.24-4.44-.22l.02.04Z" class="cls-1"/><path d="M734.29 338.29c-82.58 3.13-166.4.73-249.07 0v-22.25h253.82c-.05.64-.16 1.26-.29 1.91-1.5 6.73-2.71 13.54-4.34 20.27l-.11.09v-.02Zm-419.94.02H65.61l-4.67-22.23h254.15v22.27l-.73-.04Z" style="stroke-width:0;fill:#e10e14"/><path d="M314.35 308.6H59.4l-4.22-22.41h259.99v22.41zm426.3-.22c-.18.11-.38.16-.59.22-83.56 3.08-171.01 0-254.99 0v-22.41h259.88l-4.22 22.19h-.09Z" style="stroke-width:0;fill:#fce803"/></svg>