<svg xmlns="http://www.w3.org/2000/svg" width="194.537" height="238.138" fill-rule="evenodd" stroke-linejoin="round" stroke-miterlimit="2" clip-rule="evenodd" viewBox="0 0 194.537 238.138"><path d="M.102.068c.038 40.481-.4 80.979.293 121.45.951 28.034 15.087 53.805 34.249 73.643 17.22 18.822 38.615 34.16 62.634 42.977 35.54-13.31 65.592-40.116 84.618-72.764 11.651-20.274 13.23-44.16 12.485-67.009.04-32.788.018-65.577.023-98.365C129.637.018 64.87-.036.102.068" style="fill:#24338a;fill-opacity:1;fill-rule:nonzero;stroke-width:.975657"/><path fill="#fcd206" d="M7.566 7.903v30.44h179.423V7.903Z" style="fill:#ffcf01;fill-opacity:1;fill-rule:nonzero;stroke-width:.975657"/><path d="M42.065 45.222c-.1 18.943-.044 37.888-.058 56.832H7.42c.106 6.797.016 13.6.341 20.391h34.246v70.979c6.335 6.425 12.957 12.635 20.371 17.806.23-29.593.072-59.19.118-88.785h34.44v-20.391h-34.44c-.014-18.944.027-37.889-.05-56.832a298 298 0 0 0-20.38 0" style="fill:#1c1e1c;fill-opacity:1;fill-rule:nonzero;stroke-width:.975657"/><path fill="#fff" d="M7.566 45.173v56.88h34.44l.05-56.88zm54.91 28.44.02 28.44h34.44v-56.88h-34.49Z" style="fill-rule:nonzero;stroke-width:.975657"/><path fill="#fcd206" d="M111.18 134.621c0 49.193.03 89.468.07 89.507.038.039.448-.127.906-.38.459-.244 1.444-.781 2.196-1.181.751-.4 2.244-1.24 3.317-1.854s2.742-1.61 3.707-2.195c.966-.595 2.254-1.405 2.86-1.795l1.092-.713V45.173H111.18zm28.588-9.444c0 44.002.029 80.004.078 80.004.039 0 .663-.508 1.385-1.132.722-.625 2.127-1.854 3.122-2.742.995-.897 3.532-3.346 5.64-5.463l3.824-3.835V45.173h-14.05zm28.196-15.142c0 37.826.03 64.812.088 64.754.039-.049.654-.927 1.356-1.951a147 147 0 0 0 2.283-3.464c.566-.888 1.395-2.244 1.854-3.024a181 181 0 0 0 1.697-2.976 131 131 0 0 0 2-3.903 132 132 0 0 0 1.796-3.854 127 127 0 0 0 1.268-3.073c.332-.859.859-2.273 1.161-3.142l.547-1.59V45.172h-14.05z" style="fill:#ffcf01;fill-opacity:1;fill-rule:nonzero;stroke-width:.975657"/><path fill="#fff" d="M7.859 122.864c0 .225.068 1.181.146 2.118a113 113 0 0 0 .742 6.488c.156 1.132.439 2.907.634 3.951a100 100 0 0 0 .78 3.854c.244 1.073.566 2.459.732 3.073.166.615.478 1.737.693 2.488.214.752.614 2.05.878 2.878.273.83.77 2.264 1.102 3.171.342.917.83 2.166 1.074 2.781.253.615.79 1.873 1.19 2.78.4.918 1.258 2.693 1.893 3.952.634 1.259 1.6 3.083 2.146 4.049a110 110 0 0 0 2.068 3.512c.596.966 1.562 2.479 2.147 3.366.595.888 1.493 2.205 2 2.927a222 222 0 0 0 2.244 3.074c.732.966 2.078 2.702 2.995 3.854.927 1.15 2.4 2.936 3.269 3.95a298 298 0 0 0 2.858 3.27c.703.78 2 2.195 2.888 3.15.888.957 1.63 1.728 1.65 1.728.01 0 .019-15.933.019-35.417v-35.416H7.859zm54.637 44.051-.01 44.461c2.995 2.137 4.585 3.23 5.473 3.825.888.585 2.332 1.531 3.22 2.097.887.556 2.292 1.435 3.122 1.932a179 179 0 0 0 6.341 3.61 185 185 0 0 0 8.342 4.117c.917.41 2.079.917 2.586 1.132s1.502.625 2.195.898c.703.283 1.688.653 2.195.839.508.185.937.331.956.331.01 0 .02-24.235.02-53.856v-53.856h-34.44z" style="fill-rule:nonzero;stroke-width:.975657"/><g aria-label="PARMA CALCIO" style="font-size:28.6667px;line-height:1.25;font-family:&quot;Transport Narrow (Alfabeto Stre&quot;;-inkscape-font-specification:&quot;Transport Narrow (Alfabeto Stre&quot;;fill:#24338a;fill-opacity:1;stroke-width:1.65686"><path d="M15.3 16.243h.544c.803 0 1.49 0 1.978.172.86.401.946 1.663.946 2.494 0 .745-.115 1.605-.63 2.179-.803.63-1.893.516-2.839.544zm0 17.63v-8.37c1.891-.087 3.927.171 5.675-.689 2.294-1.06 2.838-3.669 2.838-5.99 0-1.75-.23-3.355-1.404-4.674-1.405-1.605-4.214-1.777-6.164-1.777h-5.991v21.5zm13.66 0 .602-4.185h3.956l.716 4.185h5.103l-4.673-21.5h-6.077l-4.701 21.5zm4.07-7.97h-2.924l1.462-9.631h.058zm12.804-9.66c2.466-.057 3.526.057 3.526 2.609 0 1.318-.344 2.666-1.806 2.666h-1.72zm0 9.145h1.663c1.175.086 1.577.946 1.72 2.264.143 1.32.029 3.096.115 4.988.028.43.143.832.286 1.233h5.504v-.287c-.23-.2-.372-.458-.487-.745-.287-1.376-.315-5.074-.459-6.794-.086-1.49-1.09-2.465-2.494-2.78v-.058c2.122-.975 2.666-2.609 2.666-4.902 0-4.271-2.064-5.934-6.192-5.934H40.79v21.5h5.045zm15.9 8.485-.459-16.856h.058L64.8 33.873h3.756l3.554-16.856h.058l-.516 16.856h4.816v-21.5h-7.052l-2.695 12.7h-.057l-2.61-12.7h-7.108v21.5zm21.424 0 .602-4.185h3.956l.716 4.185h5.103l-4.673-21.5h-6.077l-4.701 21.5zm4.07-7.97h-2.924l1.462-9.631h.058zm28.485-6.019v-1.806c0-4.386-2.58-6.22-6.88-6.22-4.615 0-6.765 2.178-6.765 6.85v8.83c0 4.386 1.806 6.851 6.45 6.851 5.16 0 7.28-2.58 7.28-6.278v-2.637h-5.044v1.95c0 1.318-.144 3.095-1.864 3.095-1.318 0-1.806-.717-1.806-1.92l.029-10.636c0-1.405.373-2.265 1.95-2.236.945 0 1.605.946 1.605 2.78v1.377zm6.526 13.989.602-4.185h3.956l.716 4.185h5.103l-4.673-21.5h-6.077l-4.701 21.5zm4.07-7.97h-2.924l1.462-9.631h.058zm18.824 7.97v-4.3h-6.163v-17.2h-5.046v21.5zm15.204-13.989v-1.806c0-4.386-2.58-6.22-6.88-6.22-4.616 0-6.766 2.178-6.766 6.85v8.83c0 4.386 1.806 6.851 6.45 6.851 5.16 0 7.282-2.58 7.282-6.278v-2.637h-5.046v1.95c0 1.318-.143 3.095-1.863 3.095-1.319 0-1.806-.717-1.806-1.92l.029-10.636c0-1.405.372-2.265 1.949-2.236.946 0 1.605.946 1.605 2.78v1.377zm7.701 13.989v-21.5h-5.046v21.5zm11.218-6.421c0 1.232-.114 3.067-1.748 3.067s-1.835-1.835-1.835-3.067v-8.83c0-1.318.2-2.895 1.806-2.895 1.663 0 1.777 1.577 1.777 2.895zm5.046-9.174c0-4.128-2.38-6.42-6.794-6.42-4.415 0-6.88 2.292-6.88 6.42v8.744c0 4.844 1.777 7.367 6.88 7.367s6.794-2.523 6.794-7.367z" style="font-style:normal;font-variant:normal;font-weight:900;font-stretch:condensed;font-size:28.6667px;font-family:Helvetica;-inkscape-font-specification:&quot;Helvetica Heavy Condensed&quot;;fill:#24338a;fill-opacity:1;stroke-width:1.65686"/></g></svg>