<svg xmlns="http://www.w3.org/2000/svg" xml:space="preserve" viewBox="0 0 393.244 500"><path d="M196.622 490.676C91.412 490.676 5.81 383.728 5.81 249.999S91.412 7.474 196.622 7.474 387.425 116.27 387.425 249.999s-85.593 240.677-190.803 240.677"/><path fill="#fff" d="M196.622 490.677C91.412 490.677 5.81 383.729 5.81 250S91.412 7.475 196.622 7.475 387.425 116.271 387.425 250s-85.593 240.677-190.803 240.677M196.613 0C88.201 0 0 112.145 0 250c0 137.846 88.201 250 196.613 250 108.43 0 196.631-112.154 196.631-250 0-137.855-88.201-250-196.631-250"/><path fill="#0063af" d="M159.951 233.405v-49.691c-25.674 1.244-49.517 3.861-73.333 8.061v237.493c-5.481-5.462-12.315-12.452-17.329-18.766-34.384-43.341-53.314-101.916-53.314-164.965 0-51.841 11.19-100.644 34.859-140.463-25.17 39.343-40.239 89.527-40.239 145.175 0 131.039 83.452 231.866 186.027 231.866 102.565 0 186.027-100.827 186.027-231.866 0-55.647-15.069-105.832-40.239-145.175 23.67 39.818 34.859 88.622 34.859 140.463 0 63.049-18.939 121.624-53.323 164.965-5.014 6.304-11.848 13.312-17.329 18.766V191.775c-23.816-4.209-47.65-6.816-73.333-8.061l.531 44.018-.531 183.447v60.679c-12.087 3.157-24.008 4.785-36.662 4.785s-24.585-1.629-36.671-4.785z" style="fill:#0761af;fill-opacity:1"/><path fill="#fff" d="M333.425 176.341c-.082-.988-1.135-1.931-2.608-2.242a395 395 0 0 0-4.474-.933c.101 1.372.156 2.068.274 3.449 1.812.375 2.717.567 4.547.952 1.447.311 2.343-.21 2.261-1.226m-7.256-5.187c1.665.339 2.498.512 4.163.869 1.519.32 2.297-.201 2.214-1.144-.092-1.043-.952-1.83-2.471-2.15a324 324 0 0 0-4.163-.869c.102 1.317.157 1.976.257 3.294m7.887 2.36c.009.119.018.174.018.293 1.51.75 2.516 2.04 2.635 3.44.22 2.553-1.866 3.458-5.453 2.69-3.01-.64-4.52-.952-7.53-1.555-.43-5.416-.64-8.116-1.061-13.532 2.91.586 4.364.878 7.274 1.501 3.577.759 5.609 2.544 5.81 4.867.1 1.244-.522 2.086-1.693 2.296m-28.693-.823c-2.534-.43-3.888-2.214-4.007-4.081l-.503-7.74c-1.226-.201-1.839-.302-3.074-.494.201 3.092.293 4.639.494 7.74.211 3.486 3.019 6.46 7.256 7.182 4.309.732 6.652-1.363 6.404-4.858-.219-3.093-.338-4.648-.558-7.75l-3.065-.549c.22 3.102.32 4.648.54 7.75.127 1.894-.934 3.23-3.487 2.8m-25.115-14.859a319 319 0 0 0-3.083-.403c.274 5.389.412 8.088.677 13.477 4.538.567 6.798.878 11.327 1.528l-.137-2.379a489 489 0 0 0-8.207-1.125c-.229-4.446-.339-6.661-.577-11.098m-18.527.146c2.022.201 3.651 1.519 3.651 1.519.677-.759 1.007-1.135 1.683-1.894 0 0-1.757-1.857-5.489-2.232-5.005-.503-8.042 2.37-7.905 6.249s3.413 7.283 8.463 7.795c3.742.375 5.389-1.089 5.389-1.089-.741-.915-1.116-1.372-1.857-2.278 0 0-1.235 1.025-3.577.787-2.955-.293-5.115-2.37-5.206-4.932-.102-2.552 1.901-4.227 4.848-3.925m-37.44-2.68c2.434.101 3.998 1.345 3.998 1.345.704-.787 1.061-1.189 1.775-1.976 0 0-1.748-1.793-5.773-1.967-5.069-.21-8.134 2.845-8.088 6.716s3.184 7.082 8.28 7.301c4.831.201 7.301-2.425 7.21-6.414-.009-.531-.009-.787-.027-1.317a537 537 0 0 0-7.704-.366c.009.888.018 1.327.037 2.214 1.766.073 2.653.11 4.428.201v.174c-.046 1.748-1.519 3.038-4.017 2.928-2.946-.119-4.959-2.068-4.996-4.62-.036-2.554 1.949-4.348 4.877-4.219m-33.021-2.846-.046 13.431c1.254-.009 1.876-.018 3.129-.027 0-3.276.009-4.913.018-8.189 4.126 3.257 6.194 4.904 10.376 8.225.302.009.448.009.75.009-.028-5.362-.037-8.042-.073-13.404-1.226-.018-1.839-.027-3.074-.037.009 3.202.009 4.794.028 7.997a2044 2044 0 0 0-10.339-8.015c-.311.001-.458.01-.769.01m-11.665.22c-1.244.027-1.857.046-3.102.091-.064 5.371-.101 8.061-.174 13.431l3.129-.091c.064-5.371.092-8.061.147-13.431m-18.519 14.2c.101-4.419.146-6.633.247-11.062 2.004-.11 3.001-.165 5.005-.265l.046-2.37c-5.243.256-7.868.403-13.111.769-.027.952-.037 1.427-.064 2.379 2.004-.137 3.01-.21 5.023-.329l-.274 11.062c1.253-.075 1.875-.111 3.128-.184m-27.585-4.209c1.528-.156 2.297-.229 3.824-.375 1.949-.183 3.157-1.052 3.212-2.617.055-1.546-1.116-2.251-3.12-2.059-1.491.137-2.233.21-3.733.357zm-2.809-6.752c2.763-.284 4.154-.43 6.917-.686 3.898-.366 6.24 1.116 6.139 4.053-.073 2.004-1.244 3.458-3.038 4.355-.009.082-.009.119-.009.201 1.409 1.574 2.113 2.37 3.541 3.943-.009.11-.018.165-.018.274-1.409.11-2.113.174-3.532.302-1.308-1.519-1.967-2.278-3.276-3.797-1.601.156-2.406.229-4.008.393-.073 1.638-.101 2.461-.164 4.108-1.244.119-1.867.183-3.12.32.229-5.387.339-8.077.568-13.466m-18.866 4.565c-2.864.384-5.005 2.544-5.151 5.105s1.803 4.136 4.676 3.742c2.9-.384 5.069-2.516 5.197-5.069.127-2.561-1.849-4.171-4.722-3.778m7.896 3.376c-.183 3.888-3.449 7.402-8.518 8.079-5.032.686-7.951-1.995-7.722-5.883s3.486-7.503 8.482-8.18c5.013-.677 7.941 2.105 7.758 5.984m-31.658.357c-1.482.256-2.223.384-3.706.65-.137 1.903-.201 2.855-.338 4.758 1.501-.274 2.251-.403 3.751-.659 1.985-.348 3.23-1.29 3.339-2.937.102-1.556-1.06-2.16-3.046-1.812m6.213 1.18c-.201 3.147-2.974 5.243-6.771 5.901l-3.641.64c-.119 1.619-.174 2.434-.293 4.053-1.235.229-1.848.339-3.083.567.384-5.407.586-8.116.979-13.523 2.754-.512 4.126-.75 6.889-1.235 3.825-.657 6.103.651 5.92 3.597m-30.276 12.252c-2.488.531-4.382-.338-4.382-.338-.741.979-1.107 1.473-1.848 2.452 0 0 1.903 1.272 6.094.384 4.172-.887 6.185-3.147 6.377-5.517.174-2.187-1.464-3.01-5.087-3.12-2.324-.073-3.083-.274-3.01-1.089.064-.833.915-1.528 2.58-1.885 2.479-.521 4.008.274 4.008.274.732-1.025 1.098-1.546 1.821-2.571 0 0-1.555-1.071-5.618-.21-3.889.823-6.039 2.882-6.24 5.307-.192 2.168 1.51 2.845 4.886 2.964 2.58.101 3.202.421 3.129 1.299-.066.86-.861 1.656-2.71 2.05m150.61-46.535c-8.289-.238-16.533-2.836-23.523-7.173-3.733 4.547-5.609 6.844-9.415 11.473 9.158 6.972 21.876 9.085 33.112 9.424 13.55.412 32.234-4.273 31.895-21.648-.293-15.17-16.652-20.559-28.171-24.118-5.746-1.775-15.326-3.349-15.92-9.479-.366-3.76 4.309-7.1 12.691-6.899 7.329.183 14.676 2.489 20.659 6.716 3.284-4.465 4.913-6.679 8.125-11.071-8.152-6.45-18.72-7.997-28.555-8.555-12.773-.723-29.544 5.288-30.44 20.87-.796 13.871 15.59 18.875 26.167 21.538 5.663 1.436 16.817 3.824 17.1 11.208.164 4.448-3.963 7.998-13.725 7.714m-46.04-59.041c-6.094.348-9.14.558-15.234 1.061-1.857 23.496-3.769 47.531-5.718 72.153 6.615-.567 9.927-.805 16.542-1.199 1.5-24.566 2.973-48.565 4.41-72.015M83.818 120.1c7.768-1.537 11.656-2.242 19.415-3.522 8.289-1.153 16.798-6.212 17.951-15.252 1.116-8.729-7.576-11.711-14.712-10.074-7.493 1.226-11.245 1.894-18.729 3.358-1.299 8.426-2.607 16.916-3.925 25.49m-5.407 35.198a572 572 0 0 0-16.652 3.577c4.3-25.134 8.509-49.682 12.608-73.653a601 601 0 0 1 34.393-6.569c14.282-2.507 30.349 2.955 28.583 20.101-1.876 18.326-20.047 27.888-36.314 30.514-7.658 1.281-11.492 1.976-19.159 3.504-1.144 7.456-2.297 14.968-3.459 22.526m200.556-27.696 28.373 3.797-14.676-30.696zm-10.027 19.662c-7.475-.741-18.72-1.574-18.72-1.574l38.894-68.456 5.691.421 42.069 80.131-18.317-3.623-5.435-10.888-39.315-5.398s-2.91 5.627-4.867 9.387m89.774 58.072c-48.822-17.228-103.846-27.778-162.083-27.778S83.352 188.108 34.53 205.345c48.822-14.749 103.865-21.629 162.101-21.629s113.261 6.88 162.083 21.62M224.491 451.878c0-.412-.082-.787-.229-1.144a2.7 2.7 0 0 0-.631-.924 2.9 2.9 0 0 0-.924-.631 2.8 2.8 0 0 0-1.144-.229c-.421 0-.796.073-1.144.229a2.9 2.9 0 0 0-.933.631 2.7 2.7 0 0 0-.631.924 2.96 2.96 0 0 0 0 2.288c.156.357.357.668.631.933q.397.398.933.631a3.08 3.08 0 0 0 2.288 0c.348-.156.659-.366.924-.631.274-.265.476-.576.631-.933a2.9 2.9 0 0 0 .229-1.144m-6.066 10.823 3.861-5.947-.046-.046a1.9 1.9 0 0 1-.668.201 5 5 0 0 1-.823.073 4.6 4.6 0 0 1-1.958-.412 4.6 4.6 0 0 1-1.528-1.107 5.1 5.1 0 0 1-1.006-1.638 5.6 5.6 0 0 1-.348-1.967c0-.833.147-1.592.43-2.269a5.2 5.2 0 0 1 1.189-1.738 5.4 5.4 0 0 1 1.821-1.098 6.6 6.6 0 0 1 2.278-.384c.823 0 1.601.119 2.306.375a5.1 5.1 0 0 1 1.812 1.07 4.9 4.9 0 0 1 1.171 1.729c.293.677.43 1.446.43 2.287 0 .851-.137 1.619-.43 2.306a14 14 0 0 1-1.071 2.095l-4.108 6.469h-3.312zm-16.716-8.033q0 .753.11 1.738a7.7 7.7 0 0 0 .412 1.866 4.3 4.3 0 0 0 .933 1.501c.412.412.952.613 1.638.613.677 0 1.217-.201 1.629-.613.402-.412.714-.915.933-1.501a7.7 7.7 0 0 0 .412-1.866c.073-.659.11-1.235.11-1.738 0-.494-.037-1.08-.11-1.738a8 8 0 0 0-.412-1.866 4.3 4.3 0 0 0-.933-1.501c-.412-.403-.952-.613-1.629-.613-.686 0-1.226.21-1.638.613a4.3 4.3 0 0 0-.933 1.501 8 8 0 0 0-.412 1.866c-.073.658-.11 1.244-.11 1.738m-2.717 0c0-1.272.101-2.351.311-3.257.201-.897.467-1.656.805-2.269.329-.604.695-1.098 1.116-1.473.421-.366.833-.65 1.272-.833a5 5 0 0 1 1.244-.375c.403-.055.75-.091 1.061-.091.293 0 .649.037 1.052.091.393.064.814.183 1.244.375.439.183.851.467 1.263.833.43.375.796.869 1.134 1.473.329.613.604 1.372.796 2.269.21.906.311 1.985.311 3.257s-.101 2.361-.311 3.257c-.192.897-.467 1.656-.796 2.26-.338.613-.704 1.107-1.134 1.482-.412.366-.823.65-1.263.842-.43.192-.851.311-1.244.366a7 7 0 0 1-1.052.101c-.311 0-.659-.037-1.061-.101a4.5 4.5 0 0 1-1.244-.366c-.439-.192-.851-.476-1.272-.842-.421-.375-.787-.869-1.116-1.482-.338-.604-.604-1.363-.805-2.26-.211-.896-.311-1.985-.311-3.257m-8.162-2.79a2.8 2.8 0 0 0-.229-1.144 2.8 2.8 0 0 0-.622-.924 2.87 2.87 0 0 0-2.077-.86c-.412 0-.796.073-1.144.229a2.9 2.9 0 0 0-.933.631 2.6 2.6 0 0 0-.622.924 3 3 0 0 0-.238 1.144c0 .412.092.796.238 1.144.146.357.348.668.622.933q.398.398.933.631c.348.137.732.22 1.144.22s.787-.082 1.153-.22c.348-.156.659-.366.924-.631s.467-.576.622-.933c.156-.349.229-.733.229-1.144m-6.056 10.823 3.852-5.947-.046-.046a1.9 1.9 0 0 1-.668.201 5 5 0 0 1-.823.073 4.5 4.5 0 0 1-1.949-.412 4.5 4.5 0 0 1-1.528-1.107 4.9 4.9 0 0 1-1.006-1.638 5.4 5.4 0 0 1-.348-1.967q.002-1.252.43-2.269a4.95 4.95 0 0 1 1.189-1.738 5.3 5.3 0 0 1 1.821-1.098 6.5 6.5 0 0 1 2.269-.384c.833 0 1.601.119 2.306.375a5.2 5.2 0 0 1 1.812 1.07 4.8 4.8 0 0 1 1.181 1.729c.283.677.421 1.446.421 2.287 0 .851-.137 1.619-.421 2.306a13.5 13.5 0 0 1-1.08 2.095l-4.099 6.469h-3.313zm-14.264-12.928-3.019 2.781-1.592-1.876 4.858-4.035h2.471V462.7h-2.717z"/><path fill="#e30613" d="M243.12 317.902c0 38.894-31.538 70.433-70.424 70.433-38.894 0-70.423-31.538-70.423-70.433 0-38.885 31.529-70.423 70.423-70.423 38.885-.001 70.424 31.538 70.424 70.423"/><path d="M172.696 241.852c-41.941 0-76.06 34.118-76.06 76.05 0 41.941 34.118 76.06 76.06 76.06 41.932 0 76.05-34.118 76.05-76.06 0-41.932-34.118-76.05-76.05-76.05m0 5.626c38.885 0 70.423 31.538 70.423 70.423 0 38.894-31.538 70.433-70.423 70.433-38.894 0-70.424-31.538-70.424-70.433.001-38.884 31.53-70.423 70.424-70.423"/><path fill="#fff" d="M216.504 308.102c-23.258 7.036-40.679 8.024-40.679 8.024s.979-17.411 8.024-40.669c-7.32-2.873-11.153-6.853-11.153-6.853s-3.797 3.98-11.153 6.853c7.036 23.258 8.024 40.669 8.024 40.669s-17.412-.988-40.66-8.024c-2.855 7.356-6.844 11.144-6.844 11.144s3.989 3.824 6.844 11.171c23.249-7.054 40.66-8.033 40.66-8.033s-.988 17.421-8.024 40.679c7.356 2.882 11.153 6.862 11.153 6.862s3.833-3.98 11.153-6.862c-7.045-23.258-8.024-40.679-8.024-40.679s17.421.979 40.679 8.033c2.854-7.347 6.834-11.171 6.834-11.171s-3.98-3.788-6.834-11.144m-.257-2.498c3.038 0 5.508-2.479 5.508-5.517 0-3.056-2.471-5.526-5.508-5.526s-5.517 2.47-5.517 5.526a5.53 5.53 0 0 0 5.517 5.517m0 27.311c-3.038 0-5.517 2.48-5.517 5.535 0 3.038 2.479 5.481 5.517 5.481s5.508-2.443 5.508-5.481c.001-3.055-2.47-5.535-5.508-5.535m14.996-19.168c-3.038 0-5.508 2.47-5.508 5.499a5.51 5.51 0 0 0 5.508 5.526 5.52 5.52 0 0 0 5.508-5.526c0-3.029-2.479-5.499-5.508-5.499m-102.08 19.168c-3.056 0-5.508 2.48-5.508 5.535a5.48 5.48 0 0 0 5.508 5.481c3.047 0 5.526-2.443 5.526-5.481a5.535 5.535 0 0 0-5.526-5.535m0-27.311c3.047 0 5.526-2.479 5.526-5.517a5.527 5.527 0 0 0-5.526-5.526 5.505 5.505 0 0 0-5.508 5.526 5.51 5.51 0 0 0 5.508 5.517m-15.024 8.143c-3.019 0-5.517 2.47-5.517 5.499a5.53 5.53 0 0 0 5.517 5.526 5.514 5.514 0 0 0 5.545-5.526c0-3.029-2.461-5.499-5.545-5.499m77.725 43.533c-3.029 0-5.508 2.489-5.508 5.535 0 3.028 2.479 5.499 5.508 5.499 3.056 0 5.544-2.47 5.544-5.499.001-3.046-2.488-5.535-5.544-5.535m-38.345 0c-3.028 0-5.499 2.489-5.499 5.535a5.51 5.51 0 0 0 5.499 5.499c3.065 0 5.526-2.47 5.526-5.499a5.53 5.53 0 0 0-5.526-5.535m19.177 15.024c-3.038 0-5.517 2.461-5.517 5.508 0 3.038 2.479 5.517 5.517 5.517s5.517-2.479 5.517-5.517c0-3.047-2.479-5.508-5.517-5.508m-19.177-91.083a5.505 5.505 0 0 0 5.526-5.508 5.51 5.51 0 0 0-5.526-5.508c-3.028 0-5.499 2.47-5.499 5.508a5.505 5.505 0 0 0 5.499 5.508m38.345 0c3.056 0 5.544-2.461 5.544-5.508 0-3.038-2.489-5.508-5.544-5.508a5.52 5.52 0 0 0-5.508 5.508 5.514 5.514 0 0 0 5.508 5.508m-24.685-20.504c0-3.038 2.479-5.517 5.517-5.517s5.517 2.479 5.517 5.517-2.479 5.535-5.517 5.535-5.517-2.498-5.517-5.535"/><path fill="#fff" d="M208.443 269.158h-5.416l4.519 4.511-4.519 22.572h81.284l5.425-27.083z"/><path d="M296.607 263.531H189.44l9.616 9.607 2.379 2.388-3.916 19.607-1.345 6.743h92.757l.906-4.529 5.417-27.082zm-6.871 5.627-5.417 27.082h-81.284l4.511-22.572-4.511-4.511h86.701z"/><path fill="#fff" d="m188.964 366.675-5.417-.018 4.52 4.519-4.51 22.572h81.256l5.417-27.091z"/><path d="m169.905 360.997 9.662 9.644 2.388 2.388-3.925 19.616-1.345 6.734h92.739l.906-4.529 5.417-27.082 1.354-6.743-6.871.009-81.266.009-5.398-.009zm100.325 5.663-5.417 27.082h-81.257l4.511-22.572-4.52-4.511 5.417.018z"/><path fill="#fff" d="m270.23 263.741 5.416-27.083H231.18l4.51 4.511-4.51 22.572z"/><path d="M282.517 231.03h-64.943l9.616 9.607 2.379 2.379-3.916 19.626-.869 4.044h50.533l.43-1.839 5.417-27.082zm-6.871 5.626-5.417 27.082H231.17l4.511-22.572-4.511-4.511h44.476z"/><path fill="#fff" d="M195.46 334.159h-5.416l4.51 4.51-4.51 22.572h81.265l5.426-27.082h-81.266z"/><path d="M283.597 328.532h-107.15l9.616 9.607 2.379 2.379-3.925 19.626-1.345 6.734h92.748l.906-4.529 5.417-27.082zm-6.871 5.627-5.417 27.082h-81.266l4.511-22.572-4.511-4.511h86.683z"/><path fill="#fff" d="M201.947 301.658h-5.416l4.519 4.511-4.519 22.571h81.284l5.416-27.082z"/><path d="M290.102 296.031H182.944l9.616 9.607 2.379 2.388-3.916 19.616-1.354 6.734h92.767l.906-4.529 5.416-27.082zm-6.871 5.627-5.417 27.082H196.54l4.511-22.572-4.511-4.511h86.691z"/></svg>