<svg xmlns="http://www.w3.org/2000/svg" width="302.102" height="331.014" viewBox="0 0 856 937.5"><defs><style>.cls-2{stroke-width:0;fill:#1ea451}</style></defs><path d="M828.6 621.7c0 132.9-106.3 183.1-357.6 223.3l10 34.8-31.9-13.8-29.2 31.7-13.1-33.3-49.4 14.8 13.4-36.6C129.9 802.9 27.7 752.1 27.7 621.7S48.7 516 61.2 486L38 468.4 65 448l-14.1-18.9 30.3-13.7-8.9-18 32.5-9c11.1-33.3 15.1-60.1 15.1-80 0-79.8-48.9-164-48.9-164l29.3-39c149.4-.3 157.3-41.4 174.1-65.7 38.7 45 88.8 71 150.4 71.9 0-.2 6.4-.2 6.4-.2 61.6-.7 111.7-26.7 150.4-71.7 16.8 24.3 24.8 65.4 174.1 65.7l29.3 39s-48.9 84.3-48.9 164 4 46.7 15.1 80l32.5 9-8.9 18 30.2 13.7-14.1 18.9 27 20.4-23.2 17.6c12.6 29.9 33.6 90.1 33.6 135.7z" style="fill:#000;stroke-width:0"/><path d="M856 465.9 823 441l17.6-23.4-34.7-15.7 10.6-21.5-47-13.1c-7.7-26-10.3-46.5-10.3-61.3 0-56.4 25.8-118.2 53.3-165.6l-45.1-60.1h-11.5c-73.3-.2-107.7-10.4-125.2-20.7-19.2-11.3-34.3-41.2-47.1-59.6l-7.7 9C534.5 57.2 495.7 85.5 431 86.2l-6.1.2c-71.8-1-108.5-35.3-152.5-86.4-10 14.5-19.1 30-29.7 44.1-26.1 35-103 36-142.6 36.1H88.7l-45.1 60.2C71.1 187.9 96.9 249.7 96.9 306s-2.6 35.4-10.3 61.3l-47 13.1 10.6 21.5-34.7 15.7L33 441 0 465.9l33.4 25.2C20.7 524.4 4.6 576.5 4.6 619.2c0 145.6 115.5 199.9 335.1 238.7l-19.6 53.7 72.9-22 18.8 47.9 42.9-46.8 61.4 26.5-16.3-56.6c230.4-39.1 351.4-92.4 351.4-241.5S835 524.3 822.4 491l33.3-25.2h.3Zm-27.4 155.8c0 132.9-106.3 183.1-357.6 223.3l10 34.8-31.9-13.8-29.2 31.7-13.1-33.3-49.4 14.8 13.4-36.6C129.9 802.9 27.7 752.1 27.7 621.7S48.7 516 61.2 486L38 468.4 65 448l-14.1-18.9 30.3-13.7-8.9-18 32.5-9c11.1-33.3 15.1-60.1 15.1-80 0-79.8-48.9-164-48.9-164l29.3-39c149.4-.3 157.3-41.4 174.1-65.7 38.7 45 88.8 71 150.4 71.9 0-.2 6.4-.2 6.4-.2 61.6-.7 111.7-26.7 150.4-71.7 16.8 24.3 24.8 65.4 174.1 65.7l29.3 39s-48.9 84.3-48.9 164 4 46.7 15.1 80l32.5 9-8.9 18 30.2 13.7-14.1 18.9 27 20.4-23.2 17.6c12.6 29.9 33.6 90.1 33.6 135.7z" class="cls-2"/><path d="m455.3 746.1 27.6-12.6-.9-70.2-26.2-14.8-59.7 37.1 2 25.9zm-112.4-88.2 2.3-69.9-14.8-8.2c-18.2 21.7-29.1 49.7-29.1 80.2s.1 5.3.3 7.9l29.8 3.6L343 658Zm51.5-84.3-30.8 12-2.2 67.2 24.7 17.6 58.1-36.1-2.3-34.7zm-50.7 180.2 7.3-27.9-23.7-36.8-23.2-2.7c5.8 26.6 19.9 50 39.6 67.4m209.7-93.9c0-4.6-.3-9.2-.7-13.7l-27.2-3.3-25.2 19.1.9 71.5 20.6 9.6c19.7-22.1 31.6-51.2 31.6-83.1Zm-59.8-106.7c-19.3-11.9-42-18.7-66.3-18.7s-6.7 0-10 .4l-8.1 26 46.5 25.5h32.2zm55.6 74.4c-6.6-24.5-20.5-46.1-39.1-62.3l-4.9 28.5 20.6 31 23.3 2.8zM445.7 784l1.1-21.6-59-35.8-19.1 3.7-9 35.4c19.5 12.4 42.7 19.6 67.6 19.6s12.4-.4 18.4-1.3M235.4 220c4.3 0 7.7-3.4 7.7-7.6s-3.5-7.6-7.7-7.6-7.6 3.4-7.6 7.6 3.4 7.6 7.6 7.6m-16.7-48.8c-4.2 0-7.6 3.4-7.6 7.6s3.1 7.2 7 7.6c1.2-4.2 4.2-7.7 8-9.6-.9-3.3-3.8-5.7-7.4-5.7ZM366 223c0 4.2 3.4 7.6 7.6 7.6s7.7-3.4 7.7-7.6-3.4-7.6-7.7-7.6-7.6 3.4-7.6 7.6M202.8 333.4h48.1c-.3-16.9-4.2-56.6-24.8-56.6s-22.9 34.5-23.2 56.6zm167-145.6c-4.3 0-7.7 3.4-7.7 7.6s3.4 7.6 7.7 7.6 7.6-3.4 7.6-7.6-3.4-7.6-7.6-7.6m-165.3 3.7c0-4.3-3.4-7.7-7.7-7.7s-7.6 3.4-7.6 7.7 3.5 7.6 7.6 7.6 7.7-3.4 7.7-7.6m46.4 146.4h-48.1v8.2c0 10.5.4 17 .8 20.9h47.3v-29ZM185.3 219c0 4.2 3.4 7.6 7.7 7.6s7.7-3.4 7.7-7.6-3.4-7.6-7.7-7.6-7.7 3.4-7.7 7.6m30.2 15.9c4.3 0 7.7-3.4 7.7-7.7s-3.4-7.6-7.7-7.6-7.6 3.4-7.6 7.6 3.4 7.7 7.6 7.7m-7.8-21.2c2.3-1.3 5-2.1 7.8-2.1s2.9.2 4.3.6c0-3.6 1.2-6.8 3.3-9.3-2.6-2.1-4.4-5.1-5.2-8.4-2-.1-3.8-.6-5.4-1.3-.7 6.1-4.9 11.1-10.5 13.1 2.6 1.8 4.6 4.5 5.8 7.5Zm25.4-15.3c4.3 0 7.7-3.4 7.7-7.6s-3.4-7.6-7.7-7.6-7.6 3.4-7.6 7.6 3.4 7.6 7.6 7.6m121.1-1.3c-1.7.8-3.5 1.2-5.4 1.3-.8 3.3-2.7 6.2-5.2 8.4 2 2.6 3.2 5.9 3.3 9.4q2.1-.6 4.2-.6c2.9 0 5.6.8 7.9 2.1 1.1-3 3.1-5.7 5.8-7.5-5.7-1.9-9.8-7-10.4-13.1zm-37.5 169.8h51.8l.2-20.5v-8.6h-51.4l-.6 29Zm-33.4-121.8c-19.6 0-24.7 36.4-25.3 51.9l-.3 11.7c1.6 9.1 2.2 18 2.3 24.8h48.2c0-4.2.4-8.9 1-13.8-1.1-22.4-6.3-74.5-26-74.5Zm24.9 92.8h-48.1v29h47.4z" class="cls-2"/><path d="M280.2 100.1c-35.2 38.5-105.8 43.3-157 45.1 0 0 37.9 88 37.9 158.3s-3.1 43.1-8.3 63.4h41.6c-.4-4.3-.7-11-.7-20.9 0-22.8-1.2-78.4 32.4-78.4s2.4 0 3.6.3l-2.6-5.7-23.4-4 .6-8.6 22-1.6-1.8-7.9c-2.6 1.7-5.6 2.7-8.9 2.7-6.7 0-12.6-4.3-14.8-10.3-2.3 1.3-5 2-7.9 2-8.6 0-15.7-6.9-15.7-15.6s4.4-12.6 10.5-14.8c-4-2.9-6.6-7.5-6.6-12.8 0-8.7 7-15.7 15.6-15.7s4.4.5 6.4 1.3c.8-7.9 7.5-13.9 15.6-13.9s13.7 5.1 15.3 12c8.3.4 14.9 7.2 14.9 15.6s-1.3 7-3.4 9.6c3.5 2.9 5.7 7.2 5.7 12 0 7.3-5.1 13.5-11.9 15.2l10.6 13.4 6.5-15.5 8.5 1.2-2.4 24c4.9-6.6 11.6-14.7 21-14.7s15.9 9 20.8 17.9l-2.3-23.2 8.5-1.2 6.5 15.4 10.6-13.3c-6.8-1.7-11.9-7.8-11.9-15.1s2.2-9.2 5.7-12c-2.1-2.7-3.3-6-3.3-9.6 0-8.3 6.6-15.1 14.8-15.6 1.6-6.9 7.8-12 15.3-12s14.8 6.2 15.6 14c1.9-.9 4.1-1.3 6.3-1.3 8.6 0 15.7 7 15.7 15.6s-2.6 9.9-6.7 12.8c6.1 2.1 10.5 7.9 10.5 14.8s-7 15.6-15.7 15.6-5.6-.8-7.9-2.1c-2.1 6-8 10.3-14.8 10.3s-6.3-1-8.9-2.8l-1.8 7.9 22 1.6.6 8.6-23.4 4-2.4 5.3c2.8-.9 5.8-1.4 9.1-1.4 32.5 0 31.7 54.2 31.7 76.4v20.5h25.2V149.8c-46-4.1-87.3-18.1-122.9-49.7z" class="cls-2"/><path d="M368.6 333.4c-.4-21.4-3.4-54.2-22.4-54.2s-28.5 36.3-28.8 54.2zm-25.2-102.2c0 4.2 3.4 7.6 7.6 7.6s7.7-3.4 7.7-7.6-3.4-7.6-7.7-7.6-7.6 3.4-7.6 7.6m4.4-56c-3.5 0-6.5 2.4-7.4 5.7 3.9 1.9 6.8 5.3 8 9.6 3.9-.4 7-3.6 7-7.6s-3.4-7.6-7.7-7.6h.1Zm-24.4 41.2c0 4.2 3.5 7.6 7.7 7.6s7.6-3.4 7.6-7.6-3.4-7.7-7.6-7.7-7.7 3.4-7.7 7.7m10-29.2c-4.3 0-7.7 3.4-7.7 7.6s1.3 4.7 3.1 6.2c.7-.1 1.4-.2 2.2-.2 1.9 0 3.8.3 5.5 1 2.7-1.2 4.5-3.8 4.5-6.9s-3.4-7.6-7.6-7.6Zm377.1 181.3c-5.4-20.7-8.7-42.2-8.7-65 0-70.2 37.9-158.3 37.9-158.3-22.7-.8-49.3-2.2-74.9-6.9v230.2zm84.1 251.7c0-35.5-9.6-68.5-22.6-100.8h-81.8v234.4c60.8-25.3 104.4-63.7 104.4-133.6M90.9 519.5c-13 32.3-22.6 65.2-22.6 100.7 0 65.2 37.9 103 92.3 128.3v-229H90.8zm515-151V118.4c-8.7-5-16.6-11-23.2-18.3-7.1 6.3-14.5 11.8-22 16.8v251.6zm-102 0V142.3c-14.5 3.9-29.5 6.3-45.2 7.7v218.6h45.2ZM275.5 519.4v265.3c30.7 7.1 62 13.7 92 21l5.4-23c-47.4-20.8-80.4-67.9-80.4-122.8s60.4-134.2 134.9-134.2 134.9 60 134.9 134.2-37.8 108.5-90.5 126.7l7 23.2c30.8-8 63.6-14.8 95.9-22.2V519.3H275.5Zm378.6-94.7c-6.9 0-9.9 2.4-9.9 9.5s4.5 21.5 9.9 21.5 9.9-11.6 9.9-21.5-2.9-9.5-9.9-9.5m-88.9 0c-7 0-9.9 2.4-9.9 9.5s4.5 21.5 9.9 21.5 9.9-11.6 9.9-21.5-2.9-9.5-9.9-9.5" class="cls-2"/><path d="M718.8 395.8H144.1c-11.6 33.3-27.3 64.8-41.5 96.3h657.7c-14.2-31.5-29.9-63-41.5-96.3m-496.9 71.5h-23c-15.9 0-21.5-9.7-21.5-22.2s4.4-21.8 9.4-31.7h15.3c-3.1 6.9-10.2 20.2-10.2 31.5s7.7 10.3 10.5 10.3h5.4v-41.8H222v53.9Zm20.1 0h-11.9v-12.1H242zm26.1 0h-16.5l-3.3-12.1h12.9c1.4 0 5.2.3 5.2-1.8s-1.3-2.7-2.3-3.8l-9.6-10.8c-3.3-3.8-6.6-7.6-6.6-13s2.7-12.5 14.6-12.5h15.3l3.3 12.2h-11.9c-1.4 0-5.3-.3-5.3 1.7s1.4 2.7 2.3 3.8l9.9 10.9c3.4 3.7 6.7 7.6 6.7 12.9s-2.7 12.5-14.6 12.5zm31 0h-11.9v-12.1h11.9zm49.2 0h-16.5l-3.3-12.1h12.9c1.4 0 5.3.3 5.3-1.8s-1.3-2.7-2.3-3.8l-9.6-10.8c-3.3-3.8-6.6-7.6-6.6-13s2.7-12.5 14.6-12.5h15.3l3.3 12.2h-12c-1.4 0-5.2-.3-5.2 1.7s1.3 2.7 2.3 3.8l9.9 10.9c3.3 3.7 6.7 7.6 6.7 12.9s-2.7 12.5-14.6 12.5zm46.9-29.3v-8.7h14.2v37.9h-14.2v-17.1h-15.5c0 6 2.3 12 5.4 17.1l-11.6 7.6c-5.2-7.9-8.4-17.3-8.4-26.8s3-19.2 9.8-25.9c7.5-7.6 16.3-8.9 26.6-8.9h7l3.3 12.2h-11.2c-15.2 0-17.8 7.9-19.6 12.5h14.2Zm40.8 29.3h-16.6l-3.3-12.1H429c1.4 0 5.2.3 5.2-1.8s-1.3-2.7-2.3-3.8l-9.6-10.8c-3.3-3.8-6.7-7.6-6.7-13s2.8-12.5 14.6-12.5h15.3l3.3 12.2h-11.9c-1.4 0-5.3-.3-5.3 1.7s1.3 2.7 2.3 3.8l9.9 10.9c3.4 3.7 6.7 7.6 6.7 12.9s-2.7 12.5-14.6 12.5Zm37.1 0h-16.6l-3.3-12.1h12.9c1.4 0 5.3.3 5.3-1.8s-1.3-2.7-2.3-3.8l-9.6-10.8c-3.4-3.8-6.7-7.6-6.7-13s2.8-12.5 14.6-12.5h15.3l3.3 12.2h-11.9c-1.4 0-5.3-.3-5.3 1.7s1.4 2.7 2.3 3.8l9.9 10.9c3.4 3.7 6.7 7.6 6.7 12.9s-2.7 12.5-14.6 12.5m61.4 0h-23.1c-15.9 0-21.5-9.7-21.5-22.2s4.4-21.8 9.4-31.7h15.3c-3.1 6.9-10.2 20.2-10.2 31.5s7.7 10.3 10.5 10.3h5.3v-41.8h14.2v53.9Zm30.7 1.1c-16.7 0-24.7-20.5-24.7-34.8s5.6-21.5 24.7-21.5 24.7 9.8 24.7 21.5-8 34.8-24.7 34.8m60.8-1.1h-29.5v-53.9h14.2v41.8h18.7l-3.3 12.1zm28.1 1.1c-16.7 0-24.7-20.5-24.7-34.8s5.7-21.5 24.7-21.5 24.7 9.8 24.7 21.5-8 34.8-24.7 34.8" class="cls-2"/></svg>