<svg xmlns="http://www.w3.org/2000/svg" xml:space="preserve" viewBox="0 0 566 566"><g style="fill:#000035;fill-opacity:.98564595"><path d="M283 0C126.7 0 0 126.7 0 283s126.7 283 283 283 283-126.7 283-283S439.3 0 283 0m0 12c72.4 0 140.4 28.2 191.6 79.4S554 210.6 554 283s-28.2 140.4-79.4 191.6S355.4 554 283 554s-140.4-28.2-191.7-79.4C40.2 423.4 12 355.4 12 283S40.2 142.6 91.4 91.4 210.6 12 283 12" style="fill:#000035;fill-opacity:.98564595"/><path d="M283 75.2C168.4 75.2 75.2 168.4 75.2 283S168.4 490.8 283 490.8 490.8 397.6 490.8 283 397.6 75.2 283 75.2m0 8c110.2 0 199.8 89.6 199.8 199.8S393.2 482.8 283 482.8 83.2 393.2 83.2 283 172.8 83.2 283 83.2" style="fill:#000035;fill-opacity:.98564595"/><path d="M164.9 164.1h73l118.8 142c.8.9 2.2.4 2.2-.8V198.6c0-13.6-11-24.6-24.6-24.6H327v-10h74v10h-4.9c-12.2 0-22.1 9.9-22.1 22.1V400h-9.7l-152-181.8c-.4-.5-1.3-.2-1.3.5V359c0 14.4 11.7 26.1 26.1 26.1h5.9v9h-78v-9h8c12.2 0 22.1-9.9 22.1-22.1V197.5L184 184.3l-4.1-4.9c-2.9-3.4-7.1-5.4-11.5-5.4h-3.3v-9.9z" style="fill:#000035;fill-opacity:.98564595"/></g></svg>