<?xml version="1.0" encoding="UTF-8" standalone="no"?>
<!-- Generator: Adobe Illustrator 23.0.1, SVG Export Plug-In . SVG Version: 6.00 Build 0)  -->

<svg
   xmlns:ns="http://ns.adobe.com/SaveForWeb/1.0/"
   xmlns:dc="http://purl.org/dc/elements/1.1/"
   xmlns:cc="http://creativecommons.org/ns#"
   xmlns:rdf="http://www.w3.org/1999/02/22-rdf-syntax-ns#"
   xmlns:svg="http://www.w3.org/2000/svg"
   xmlns="http://www.w3.org/2000/svg"
   xmlns:sodipodi="http://sodipodi.sourceforge.net/DTD/sodipodi-0.dtd"
   xmlns:inkscape="http://www.inkscape.org/namespaces/inkscape"
   version="1.1"
   id="Ebene_1"
   x="0px"
   y="0px"
   viewBox="0 0 566 566"
   style="enable-background:new 0 0 566 566;"
   xml:space="preserve"
   sodipodi:docname="SSC Napoli 2024 (deep blue navy).svg"
   inkscape:version="0.92.1 r15371"><defs
     id="defs37" /><sodipodi:namedview
     pagecolor="#ffffff"
     bordercolor="#666666"
     borderopacity="1"
     objecttolerance="10"
     gridtolerance="10"
     guidetolerance="10"
     inkscape:pageopacity="0"
     inkscape:pageshadow="2"
     inkscape:window-width="1680"
     inkscape:window-height="988"
     id="namedview35"
     showgrid="false"
     inkscape:zoom="1.0475"
     inkscape:cx="283"
     inkscape:cy="334.07178"
     inkscape:window-x="-8"
     inkscape:window-y="-8"
     inkscape:window-maximized="1"
     inkscape:current-layer="Ebene_1" /><style
     type="text/css"
     id="style2">
	.st0{fill:#124A93;}
	.st1{fill:url(#SVGID_1_);}
	.st2{fill:#FFFFFF;}
	.st3{fill:#1C8FCE;}
	.st4{fill:url(#SVGID_2_);}
</style><metadata
     id="metadata4"><ns:sfw><ns:slices /><ns:sliceSourceBounds
         bottomLeftOrigin="true"
         height="566"
         width="566"
         x="0"
         y="0" /></ns:sfw><rdf:RDF><cc:Work
         rdf:about=""><dc:format>image/svg+xml</dc:format><dc:type
           rdf:resource="http://purl.org/dc/dcmitype/StillImage" /><dc:title></dc:title></cc:Work></rdf:RDF></metadata><g
     id="g32"
     style="fill:#000035;fill-opacity:0.98564595"><path
       style="fill:#000035;fill-opacity:0.98564595"
       d="M 283 0 C 126.7 0 4.3957893e-016 126.7 0 283 C 0 439.3 126.7 566 283 566 C 439.3 566 566 439.3 566 283 C 566 126.7 439.3 4.3957893e-016 283 0 z M 283 12 C 355.4 12 423.39961 40.200391 474.59961 91.400391 C 525.79961 142.60039 554 210.6 554 283 C 554 355.4 525.79961 423.39961 474.59961 474.59961 C 423.39961 525.79961 355.4 554 283 554 C 210.6 554 142.60078 525.79961 91.300781 474.59961 C 40.200781 423.39961 12 355.4 12 283 C 12 210.6 40.200391 142.60039 91.400391 91.400391 C 142.60039 40.200391 210.6 12 283 12 z "
       id="path6" /><linearGradient
       id="SVGID_1_"
       gradientUnits="userSpaceOnUse"
       x1="91.3883"
       y1="91.3875"
       x2="474.6071"
       y2="474.6063"><stop
         offset="0"
         style="stop-color:#83A9CF"
         id="stop8" /><stop
         offset="0.1"
         style="stop-color:#5680B9"
         id="stop10" /><stop
         offset="0.25"
         style="stop-color:#124A93"
         id="stop12" /></linearGradient><path
       d="M 283 75.199219 C 168.4 75.199219 75.199219 168.4 75.199219 283 C 75.199219 397.6 168.4 490.80078 283 490.80078 C 397.6 490.80078 490.80078 397.6 490.80078 283 C 490.80078 168.4 397.6 75.199219 283 75.199219 z M 283 83.199219 C 393.2 83.199219 482.80078 172.8 482.80078 283 C 482.80078 393.2 393.2 482.80078 283 482.80078 C 172.8 482.80078 83.199219 393.2 83.199219 283 C 83.199219 172.8 172.8 83.199219 283 83.199219 z "
       id="path17"
       style="fill:#000035;fill-opacity:0.98564595" /><linearGradient
       id="SVGID_2_"
       gradientUnits="userSpaceOnUse"
       x1="146.7674"
       y1="146.7532"
       x2="419.2425"
       y2="419.2283"><stop
         offset="0.4"
         style="stop-color:#1C8FCE"
         id="stop21" /><stop
         offset="0.6"
         style="stop-color:#44A4DB"
         id="stop23" /><stop
         offset="1"
         style="stop-color:#69B9E5"
         id="stop25" /></linearGradient><path
       class="st2"
       d="M164.9,164.1h73l118.8,142c0.8,0.9,2.2,0.4,2.2-0.8V198.6c0-13.6-11-24.6-24.6-24.6H327v-10h74v10h-4.9   c-12.2,0-22.1,9.9-22.1,22.1V400h-9.7L212.3,218.2c-0.4-0.5-1.3-0.2-1.3,0.5v140.3c0,14.4,11.7,26.1,26.1,26.1h5.9v9h-78v-9h8   c12.2,0,22.1-9.9,22.1-22.1V197.5l-11.1-13.2l-4.1-4.9c-2.9-3.4-7.1-5.4-11.5-5.4h-3.3V164.1z"
       id="path30"
       style="fill:#000035;fill-opacity:0.98564595" /></g></svg>