<svg xmlns="http://www.w3.org/2000/svg" width="500mm" height="500mm" viewBox="0 0 500 500"><defs><clipPath id="a"><path d="M213.31 31.147h61.021V90.06H213.31z"/></clipPath></defs><g fill="#f0f"><path fill="#b2b3b5" d="m172.406 396.135 11.905 6.537s13.827 4.26 14.176 4.33c.349.065 12.011 4.05 12.011 4.05l18.994 3.561 22.486 1.327 16.48-1.047 18.715-3.841 13.757-3.282 19.274-7.961 19.274-11.174 14.804-10.684L367.62 365.8l14.386-16.34 16.41-27.724 5.866-14.805 6.495-24.58 2.793-15.084.768-20.042-1.746-20.042-3.282-16.061-3.492-11.941-8.31-19.553-6.215-12.57-12.71-17.878-11.312-13.966-18.646-15.991-18.715-12.78-22.277-9.566-22.276-6.495-20.112-3.77-24.65-.49-21.718 2.165-19.763 4.959-19.972 7.89-19.624 10.755-19.623 15.363-10.475 9.287-10.335 12.29-9.148 12.92-8.38 14.804-6.564 13.407-5.098 16.76-4.26 17.737-1.885 17.389.978 22.555 1.396 12.36 4.12 19.205 6.215 17.457 7.961 15.852 13.129 21.788 20.88 21.857 16.41 13.478z"/><path fill="#312c28" d="m180.483 261.702 63.798-83.943 4.763-1.845.752-.32 1.79.992 51.79 55.238 19.29 42.664.313 2.039 2.353 27.683-13.273 11.89-2.57.702-4.988-.998-114.238.95-15.776-17.315 2.542-24.955z" opacity=".96"/><g clip-path="url(#a)" transform="matrix(8.1593 0 0 -8.1593 -1739.4 744.48)"><path fill="#fff" d="M225.32 61.178c.073.461.203.563.762.474l2.685-.428c1.39-.221 1.858.703 1.975 1.44.159 1.004-.292 1.754-1.386 1.928l-2.737.436c-.551.088-.649.233-.581.665l-.126.019-.227-1.428.127-.02c.076.483.211.569.762.481l2.707-.431c.892-.141 1.339-.738 1.221-1.482-.093-.581-.501-1.087-1.461-.935l-2.848.454c-.543.087-.652.218-.579.679l-.125.021-.296-1.853zm2.67 6.851c.405.817 1.319.973 2.441.417 1.104-.547 1.52-1.326 1.124-2.125a1.3 1.3 0 0 0-.342-.447l-3.371 1.67c.032.206.068.325.148.485m-.075-1.194 2.686-1.33c.448-.223.479-.346.275-.759l.098-.05.757 1.531c.519 1.046.215 2.27-.999 2.872-1.017.504-2.265.399-2.938-.959l-.743-1.501.098-.048c.196.411.317.467.766.244m2.225 3.878 2.369-1.833c.377-.29.409-.437.132-.784l.087-.066 1.029 1.329-.087.067c-.247-.32-.37-.395-.791-.069l-2.37 1.833c-.391.303-.395.444-.127.779l-.086.068-1.029-1.33.087-.067c.263.34.395.376.786.073m1.22 2.111.294-.07 2.086-2.472c.231-.275.237-.43-.063-.691l.07-.084 1.034.873-.069.084c-.364-.325-.512-.349-.847.048l-1.797 2.129.01.008 4.192-1.106.068.058-2.504 2.967c-.215.254-.205.422.05.638l-.071.083-.966-.815.071-.083c.349.303.494.299.809-.074l1.593-1.888-.01-.008-3.732.981-.726-.613.07-.082c.147.123.246.165.438.117m4.11 2.607 1.296-2.702c.219-.457.163-.576-.25-.768l.047-.098 2.603 1.249-.171 1.127-.112-.017c.087-.671-.053-1.001-.534-1.232l-.567-.271c-.237-.114-.303-.082-.436.196l-.677 1.411.729.35c.336.162.521.086.723-.351l.099.049-.661 1.377-.099-.049c.22-.442.168-.645-.271-.856l-.626-.3-.741 1.545.799.383c.451.217.661.239.999-.303l.104.05-.468.828-2.587-1.241.048-.098c.434.223.553.138.753-.279m3.82.29c.364-.223 1.082-.44 1.369-.615.278-.171.406-.345.468-.601.095-.399-.109-.758-.489-.85-.48-.115-1.097.14-1.337.947l-.118-.029.343-1.429.118.028c-.01.156.048.243.173.273.187.045.491-.12.921-.017.662.159 1.052.787.895 1.443-.078.325-.301.62-.595.801-.441.27-1.15.444-1.506.662-.24.147-.376.332-.431.556-.076.319.128.625.483.71.388.093 1.046-.092 1.283-.913l.106.025-.334 1.392-.106-.025c-.005-.147-.068-.241-.174-.266-.131-.032-.426.122-.894.01-.611-.148-.931-.686-.78-1.316.086-.356.296-.596.605-.786m2.99 1.818.078-2.996c.012-.507-.087-.593-.543-.598l.002-.109 2.887.074.306 1.099-.11.029c-.195-.646-.459-.89-.992-.905l-.628-.016c-.263-.007-.309.05-.318.358l-.04 1.565.808.021c.372.01.512-.134.517-.616l.109.003-.039 1.527-.11-.003c.02-.494-.111-.657-.598-.67l-.693-.017-.044 1.712.885.023c.5.014.701-.052.788-.685l.116.003-.089.947-2.868-.074.003-.109c.487.025.561-.101.573-.563m5.79-4.468c.718-.228 1.373-.01 1.952.643l-.096.095c-.541-.556-1.008-.732-1.575-.55-.861.274-1.203 1.086-.721 2.601.515 1.615 1.218 2.331 2.107 2.048.683-.217.992-.908.788-1.769l.129-.041.429 1.643-.122.039c-.099-.214-.168-.279-.261-.25-.18.058-.371.451-.952.636-1.184.377-2.424-.485-2.917-2.036-.508-1.594.234-2.739 1.239-3.059m4.5 1.512.01-.007-.426-1.579-.805.517zm-2.99-1.755-.059-.093.999-.641.059.091c-.274.169-.311.3-.221.44q.038.056.132.145l.668.577.928-.597-.2-.763c-.048-.169-.064-.218-.103-.278-.098-.15-.221-.155-.448-.009l-.059-.092 1.257-.808.06.092c-.259.167-.32.227-.16.82l1.018 3.815-.086.056-2.978-2.556c-.378-.329-.542-.369-.807-.199m3.12-2.061-.081-.073 1.93-2.122 1.065.545-.045.097c-.752-.346-.991-.312-1.458.2l-.306.338c-.181.199-.172.275.041.47l2.288 2.081c.379.345.509.316.816-.03l.081.073-1.175 1.291-.08-.073c.311-.332.327-.474-.048-.815l-2.217-2.016c-.346-.315-.479-.34-.811.034m2.78-3.946c.314-.56.849-.805 1.591-.735l-.007.116c-.659-.033-1.052.131-1.3.573-.377.672-.117 1.376 1.063 2.039 1.26.706 2.115.745 2.504.051.299-.532.089-1.143-.537-1.561l.057-.101 1.221.775-.053.095c-.186-.075-.267-.076-.308-.003-.078.14.031.496-.223.949-.518.924-1.792 1.107-3.001.428-1.243-.697-1.447-1.842-1.007-2.626m4.33-.411-2.83-.984c-.45-.156-.591-.103-.73.317l-.103-.035.553-1.589.102.036c-.133.382-.128.526.375.701l2.831.984c.467.162.588.089.723-.32l.103.036-.552 1.589-.103-.036c.141-.407.098-.537-.369-.699m1.41-3.315c.103-.704-.462-1.092-1.892-1.301-1.243-.182-2.067-.089-2.184.705-.102.705.464 1.092 1.892 1.301 1.333.195 2.076.038 2.184-.705m-2.288 1.416c-1.193-.175-2.17-.94-2.009-2.045.169-1.155 1.38-1.549 2.51-1.383 1.111.162 2.179.882 2.009 2.045-.17 1.161-1.399 1.545-2.51 1.383"/><g fill="#a0834a"><path d="M265.02 44.239c.713.472.848.619.848.619s-.807.525-2.813-.054c0 0-1.211-.309-2.517-1.426-1.305-1.118-3.364-2.612-5.087-3.177 0 0 1.561-.35 4.186.741s4.669 2.827 5.383 3.297m-12.67-4.27c-3.069.504-6.874-2.234-6.874-2.234 4.985-.288 6.874 2.234 6.874 2.234"/><path d="M259.32 44.686s-2.606-.041-5.138-4.571c0 0 3.419.723 5.138 4.571m-6.78-7.981c3.408.535 6.183 1.364 6.183 1.364s-.822 1.089-3.311.893c-2.489-.197-3.845-.982-4.701-1.231-.856-.251-2.623-.553-3.176-.563 0 0 1.597-.999 5.005-.463m3.41 42.855c1.999-3.022 5.905-3.673 5.905-3.673-2.185 3.58-5.905 3.673-5.905 3.673m12.18-.897s-1.903-2.693-.969-6.297c0 0 2.154 2.299.969 6.297m-4.07 3.734s-.465-3.348 2.301-6.603c0 0 .071 4.279-2.301 6.603m3.77-14.975c.324-1.711.706-4.633.647-5.195 0 0 1.58 1.831.982 6.356-.39 2.943-.468 4.022-.42 4.298 0 0-.946-.228-1.365-2.682 0 0-.168-1.065.156-2.777m-6.77-22.3s2.876 1.988 3.139 6.487c0 0-2.494-1.344-3.139-6.487m9.97 17.873s-1.29-.453-2.04-1.744-1.082-3.399-1.343-4.69c-.262-1.291-.872-3.069-.872-3.069s2.023 1.813 2.738 3.958c.715 2.144 1.343 5.109 1.517 5.545m2.67.105s-2.633-.906-3.627-6.015c0 0 3.296 2.806 3.627 6.015m-7.21 5.496c-1.065 4.333-4.309 5.674-4.309 5.674.131-2.897 4.309-5.674 4.309-5.674m3.99-.659s1.413 3.172.06 7.302c0 0-1.042-1.101-.91-3.794s.85-3.508.85-3.508m-.31-3.939c3.591 4.178 2.227 5.878 2.227 5.878-2.43-2.443-2.227-5.878-2.227-5.878m-3.76 6.146s.511.86-.233 3.511c-.744 2.65-2.045 4.441-2.627 5.161a3.3 3.3 0 0 0-.674 1.512s-1.092-2.535.698-5.116 2.557-3.766 2.836-5.068m.35-21.326s.89.872 1.727 2.285c.836 1.412 1.551 2.371 1.778 2.528 0 0-1.15.418-3.243-1.483-2.093-1.9-1.587-3.574-4.412-6.225 0 0 1.709.192 4.15 2.895m-17.05 36.15c.097.348.166.554.286.831.353.191.668.242.966.159.636-.178.799-1.092.427-2.424-.259-.924-.704-1.368-1.241-1.218-.696.195-.855 1.161-.438 2.652m.227-2.947c1.204-.336 2.189.814 2.52 1.998.297 1.063-.137 2.042-1.012 2.286a1.6 1.6 0 0 1-1.282-.177l-.014.025c.8 1.598 2.112 2.496 3.327 2.243l.051.179c-1.67.584-3.977-.614-4.697-3.19-.472-1.69-.026-3.047 1.107-3.364m15.693-29.366s2.127 3.173.82 6.574c0 0-2.041-2.145-.82-6.574m-5.47 33.137s-1.093-2.465 1.558-6.464c0 0 .628 3.86-1.558 6.464m-14.24.204c-.658.055-.99.921-.876 2.299.08.957.434 1.477.989 1.431.72-.061 1.048-.978.919-2.522-.03-.37-.047-.575-.113-.871-.311-.253-.611-.363-.919-.337m.379-2.29c1.014.858 1.515 2.029 1.617 3.253.145 1.748-.558 2.998-1.731 3.096-1.224.101-1.993-1.171-2.098-2.436-.091-1.1.519-1.979 1.424-2.055.453-.037.868.104 1.225.415l.02-.022c-.486-1.73-1.604-2.849-2.846-2.829l-.015-.185c.972-.143 1.746.207 2.404.763m19.541-16.188c-1.066-2.538 1.653-6.5 1.653-6.5.777 3.723-1.653 6.5-1.653 6.5m-4.52 9.973s-.21 2.348-2.255 4.046c-2.046 1.697-4.278 3.557-4.72 4.022 0 0-.535-1.326 1.419-3.302 1.952-1.976 4.253-3.115 5.556-4.766m-1.91 4.767s-.86 3.673-4.65 5.557c0 0 .512-3 4.65-5.557m-1.45-42.667s2.678-1.565 6.949-.09c0 0-2.603 1.741-6.949.09M219.8 67.422c.324 1.712.156 2.777.156 2.777-.419 2.454-1.365 2.682-1.365 2.682.048-.276-.03-1.355-.419-4.298-.599-4.525.981-6.356.981-6.356-.059.562.323 3.484.647 5.195m-.57-23.358c2.423-2.813 6.904-3.163 6.904-3.163-3.311 3.527-6.904 3.163-6.904 3.163m6.99-6.978c1.953-1.904 7.703-1.051 7.703-1.051-5.343 2.26-7.703 1.051-7.703 1.051m3.45 2.505c-4.346 1.651-6.95-.09-6.95-.09 4.273-1.475 6.95.09 6.95.09m-9.58 8.826c-1.936 4.569-4.953 4.935-4.953 4.935.698-2.651 4.953-4.935 4.953-4.935m-4.85 21.459s-1.364-1.7 2.227-5.878c0 0 .203 3.435-2.227 5.878m16.15-35.749s3.479-.946 6.61 1.696c0 0-3.666.623-6.61-1.696m-13.38 37.317c.132 2.693-.91 3.795-.91 3.795-1.353-4.13.06-7.303.06-7.303s.718.815.85 3.508m-4.7-12.774c1.762-3.278 5.44-3.958 5.44-3.958-2.406 3.801-5.44 3.958-5.44 3.958m4.25-1.586c-.995 5.109-3.627 6.016-3.627 6.016.331-3.208 3.627-6.016 3.627-6.016m5.23-11.23c-2.65 2.755-6.364 2.284-6.364 2.284 2.249-2.563 6.364-2.284 6.364-2.284m44.75 2.563s4.255 2.284 4.953 4.935c0 0-3.018-.366-4.953-4.935m-2.7-2.563s4.115-.279 6.365 2.284c0 0-3.715.471-6.365-2.284m4.05 8.858s3.679.68 5.441 3.958c0 0-3.035-.156-5.441-3.958m-7.39-13.81s4.481.35 6.904 3.163c0 0-3.592.363-6.904-3.163m-17.68-4.08.001.004-.004-.002-.004.002.001-.004c-3.517-1.966-3.836-5.675-3.836-5.675 2.774.956 3.771 5.344 3.839 5.66.068-.316 1.065-4.704 3.838-5.66 0 0-.319 3.709-3.835 5.675"/><path d="M252.2 32.968c-1.064.941-4.15 4.045-8.3 4.133 0 0 1.377-.611 3.034-2.11 1.656-1.5 4.063-3.872 7.115-2.825 0 0-.785-.139-1.849.802m-8.46 4.133c-4.15-.087-7.236-3.191-8.3-4.133-1.063-.941-1.848-.802-1.848-.802 3.051-1.047 5.457 1.325 7.114 2.825s3.034 2.11 3.034 2.11m9.97-1.066s5.75-.853 7.703 1.051c0 0-2.358 1.209-7.703-1.051m-4.08-.213c3.131-2.642 6.61-1.696 6.61-1.696-2.943 2.321-6.61 1.696-6.61 1.696m-7.47 1.914s-3.805 2.738-6.874 2.234c0 0 1.889-2.522 6.874-2.234M219.5 78.663c-1.185-3.998.969-6.297.969-6.297.934 3.604-.969 6.297-.969 6.297m3.12-34.424c.714-.47 2.759-2.207 5.383-3.297s4.186-.741 4.186-.741c-1.723.565-3.782 2.059-5.087 3.177-1.306 1.117-2.517 1.426-2.517 1.426-2.006.579-2.813.054-2.813.054s.134-.147.848-.619m6.29-6.169s2.775-.829 6.183-1.364 5.004.463 5.004.463c-.554.009-2.319.312-3.175.562-.858.25-2.214 1.035-4.703 1.232-2.488.196-3.309-.893-3.309-.893m-2.33 7.052c-.646 5.143-3.139 6.487-3.139 6.487.261-4.499 3.139-6.487 3.139-6.487m-6.44 15.896s2.717 3.962 1.652 6.5c0 0-2.431-2.777-1.652-6.5m-2.77-7.387c.226-.157.941-1.116 1.778-2.529s1.727-2.284 1.727-2.284c2.441-2.703 4.15-2.895 4.15-2.895-2.825 2.651-2.319 4.325-4.412 6.226s-3.243 1.482-3.243 1.482m4.64-.976c1.221 4.429-.82 6.574-.82 6.574-1.307-3.401.82-6.574.82-6.574m18.66 37.051c.575.061 1.027-.391 1.101-1.099.067-.636-.136-1.177-.638-1.635-.938.629-1.251 1.136-1.299 1.598-.064.606.282 1.078.836 1.136m1.731-5.424c.067-.637-.304-1.153-.879-1.214-.708-.074-1.215.496-1.316 1.461-.076.719.089 1.235.523 1.643 1.226-.795 1.603-1.223 1.672-1.89m-1.922 2.093c-.746-.702-1.071-1.369-.996-2.078.103-.986.952-1.654 1.969-1.547 1.006.104 1.704.977 1.597 1.994-.083.791-.537 1.356-1.636 2.039.838.712 1.136 1.241 1.071 1.857-.07.668-.694 1.464-1.781 1.35-1.017-.107-1.646-.848-1.544-1.813.07-.668.458-1.198 1.32-1.802M218.64 61.251c-.749 1.29-2.04 1.744-2.04 1.744.175-.436.802-3.401 1.517-5.546.715-2.144 2.737-3.958 2.737-3.958s-.61 1.779-.872 3.069c-.261 1.291-.593 3.401-1.342 4.691"/><path d="M228.31 44.686c1.719-3.848 5.138-4.571 5.138-4.571-2.532 4.53-5.138 4.571-5.138 4.571m3.38 34.874s-3.72-.093-5.905-3.673c0 0 3.906.651 5.905 3.673m-4.21 6.232c-2.186-2.604-1.557-6.464-1.557-6.464 2.65 3.999 1.557 6.464 1.557 6.464m-6.34-17.196s4.178 2.777 4.309 5.674c0 0-3.243-1.341-4.309-5.674m2.92 6.617c1.79 2.581.698 5.115.698 5.115s-.093-.79-.675-1.511c-.581-.721-1.883-2.511-2.627-5.162s-.232-3.511-.232-3.511c.279 1.303 1.046 2.488 2.836 5.069m-.49 7.184c-2.372-2.324-2.301-6.603-2.301-6.603 2.765 3.255 2.301 6.603 2.301 6.603m9.3 5.417c-3.789-1.883-4.65-5.557-4.65-5.557 4.139 2.558 4.65 5.557 4.65 5.557m1.88.041c.227.069.373-.091.517-.566l1.356-4.463c.146-.484.053-.783-.437-.942l.051-.168 2.172.659-.051.169c-.494-.151-.75.02-.913.553l-1.795 5.916-.169-.051-1.146-1.233.114-.127c.068.096.192.22.301.253m-2.88-5.597c1.953 1.976 1.418 3.301 1.418 3.301-.441-.464-2.673-2.324-4.719-4.022-2.047-1.697-2.255-4.045-2.255-4.045 1.301 1.65 3.603 2.791 5.556 4.766"/></g><path fill="#fff" d="M243.78 80.494c11 0 19.958-8.958 19.958-19.97 0-4.595-1.561-8.834-4.18-12.213l-6.836 9.283c.069.677.05 1.078.05 1.078v11.05h-8.982l8.929-12.12-.005-.048-.019-.178-.003-.019-.029-.222-.003-.02q-.05-.366-.139-.797l-.004-.017q-.029-.14-.062-.285l-.005-.02a11 11 0 0 0-.072-.295l-.007-.025a8 8 0 0 0-.081-.301l-.016-.061-.082-.278-.025-.075-.087-.274-.029-.08q-.046-.137-.097-.278l-.047-.126-.092-.241-.068-.162-.086-.214-.078-.175q-.044-.103-.091-.207-.064-.137-.131-.275l-.055-.114q-.096-.195-.202-.393l-7.312 9.924-.003.003-7.297-9.927-.003.002q-.1.186-.191.371l-.057.116q-.062.126-.12.251l-.062.136-.102.227-.059.139-.091.219-.054.138a10 10 0 0 0-.13.346q-.045.121-.085.24l-.033.097q-.055.165-.104.326l-.021.071q-.039.125-.073.246l-.033.123a9 9 0 0 0-.083.318l-.04.164-.031.134-.033.152-.027.131q-.016.071-.028.142l-.024.127q-.013.068-.023.131-.031.182-.056.349l.001-.001q-.037.26-.061.481l-6.852-9.31a19.86 19.86 0 0 0-4.198 12.236c0 11.012 8.958 19.97 19.961 19.97m0-39.941a19.86 19.86 0 0 0-12.674 4.555l5.38 7.311a15 15 0 0 1 1.411-2.161c2.708-3.454 5.895-4.733 5.895-4.733s3.199 1.279 5.902 4.733a15 15 0 0 1 1.41 2.158l5.368-7.291a19.86 19.86 0 0 0-12.692-4.572m-20.392 19.972c0-11.261 9.151-20.421 20.404-20.421 11.26 0 20.416 9.16 20.416 20.421 0 11.262-9.156 20.418-20.416 20.418-11.253 0-20.404-9.156-20.404-20.418"/><path fill="#fff" d="M234.82 69.722V58.671s-.019-.397.049-1.069l8.918 12.12h-2.438z"/></g></g></svg>